<svg width="122" height="49" viewBox="0 0 122 49" fill="none" xmlns="http://www.w3.org/2000/svg">
<path d="M50.7106 0.00787964C51.5058 0.0102265 52.2609 0.0633908 53.0378 0.121161C53.7637 0.175152 54.5046 0.232416 55.318 0.25788C55.7254 0.270635 56.1664 0.276929 56.6364 0.284247C57.0501 0.290692 57.4867 0.298007 57.945 0.312567C58.3707 0.326141 59.3179 0.390188 60.528 0.480536C61.2736 0.536194 62.1288 0.602143 63.0212 0.671942C65.378 0.804177 67.7401 0.96232 70.1061 1.14655C70.6017 1.16146 71.0311 1.16373 71.3717 1.1485C71.616 1.13759 71.8247 1.1172 72.0387 1.09675C72.3295 1.06889 72.6316 1.04051 73.0524 1.03522C73.38 1.03097 73.7625 1.05374 74.0163 1.09284C74.1345 1.11106 74.2247 1.1329 74.3063 1.15241C74.3996 1.17472 74.4828 1.19435 74.5856 1.20417C74.6599 1.21122 74.7386 1.20988 74.8346 1.20807C74.9879 1.2052 75.1874 1.20114 75.486 1.23054C76.5908 1.33915 77.8968 1.48607 79.1217 1.6319C80.5029 1.79573 81.8777 1.96994 82.9303 2.09577C84.1793 2.24514 85.8237 2.49569 87.5866 2.78522C88.7738 2.98073 89.9796 3.18971 91.0094 3.3653C91.9877 3.53199 93.0837 3.69699 94.0876 3.85749C95.2537 4.04224 96.5289 4.26479 97.4567 4.4864C97.6663 4.53559 97.9189 4.6259 98.2272 4.73933C98.4458 4.81976 98.6945 4.91263 98.9723 5.00983C100.221 5.28632 101.446 5.5797 102.767 5.95515C102.813 5.96272 102.86 5.97077 102.906 5.97858H102.908C103.117 6.0137 103.336 6.05132 103.564 6.09479C104.608 6.31112 105.763 6.58158 107.347 7.28425C107.833 7.50289 108.079 7.65636 108.368 7.82429C108.635 7.98285 108.868 8.12549 109.215 8.29401C109.613 8.48765 110.058 8.67291 110.607 8.93073C111.34 9.27285 112.146 9.68981 112.882 10.2403C112.932 10.277 112.984 10.3172 113.038 10.3585C113.578 10.7695 114.318 11.3791 115.004 12.1788C117.159 14.1744 118.404 17.729 117.424 20.6837C115.852 25.5702 112.018 28.6755 108.308 31.3731C106.458 32.6706 104.538 33.6779 103.054 34.2589C101.566 34.8421 100.655 34.9713 100.565 34.7501C100.458 34.5287 101.163 33.9769 102.435 33.0958C103.704 32.2164 105.429 31.06 107.165 29.7794C109.969 27.6965 112.626 25.2735 114.275 22.3897C114.357 22.2374 114.436 22.0849 114.509 21.9337C115.067 20.7907 115.336 19.6639 115.308 18.6133C115.302 18.3726 115.281 18.1348 115.244 17.9005C115.232 16.0611 112.634 13.1503 110.574 12.0313C110.538 12.0086 110.5 11.9857 110.464 11.963C110.013 11.6855 109.587 11.4463 109.025 11.1583C107.872 10.581 106.194 9.76732 102.785 8.65729C102.54 8.57795 102.274 8.49514 101.985 8.40827C100.754 8.06644 99.6012 7.7928 98.4157 7.53034C85.3329 4.80919 71.8887 3.46451 58.4948 2.60944C58.3252 2.60139 58.1525 2.59301 57.9782 2.58503C54.6078 2.42566 50.4409 2.31347 47.8083 2.2364C44.4748 2.13406 42.2101 2.10319 40.3434 2.08796C29.8113 2.34292 18.6183 2.36211 9.236 6.84479C8.67779 7.15542 8.06565 7.55798 7.59831 7.93952C5.59164 9.56924 3.8489 11.4694 2.72917 13.7276C1.41063 16.3306 1.1861 19.386 2.15104 22.1319C2.71632 23.7279 3.58503 25.1253 4.52311 26.3155C5.84637 27.9876 7.29321 29.2637 8.53483 30.2608C11.5211 32.6771 15.4133 34.7902 18.401 36.1094C18.8851 36.3258 19.3701 36.5331 19.7926 36.7091C22.2253 37.6779 24.6928 38.4877 27.2126 39.1885C27.3779 39.2457 27.5455 39.3041 27.7165 39.3624C27.9148 39.43 28.1189 39.4974 28.3298 39.5645C30.3387 40.2035 32.8927 40.8643 36.7477 41.7247C38.6192 42.1401 40.7319 42.5866 43.2946 43.0841C44.9047 43.3954 45.7853 43.6004 46.4421 43.7579C46.6407 43.8049 46.8285 43.8486 47.0192 43.8907C47.6664 44.0337 48.4073 44.1222 49.2116 44.21C50.2709 44.3262 51.5945 44.4676 53.2624 44.7569C58.6451 45.6731 61.0864 45.7301 62.8874 45.7969C63.4201 45.8138 63.9046 45.8268 64.401 45.8497C66.0003 45.9257 68.2853 46.0991 70.0016 46.2178C71.3701 46.3194 74.1089 46.3259 76.1833 46.2344C76.9669 46.2022 78.0268 46.1817 79.2741 46.1329C80.5671 46.0823 82.053 46.0013 83.6471 45.8467C87.6589 45.4462 89.7663 45.0591 91.4567 44.751C91.9372 44.6607 92.3825 44.5725 92.8258 44.4805C94.2457 44.1869 95.9661 43.7911 97.7096 43.3008C99.7751 42.7251 101.844 42.0075 103.378 41.377C107.384 39.8561 111.199 37.8271 114.534 35.1778C116.251 33.8217 117.807 32.4091 118.964 31.3555C120.119 30.3055 120.83 29.7125 121.031 29.8633C121.226 30.0071 120.892 30.8943 119.969 32.2344C119.048 33.5746 117.557 35.2402 115.768 36.7042C112.174 39.6623 108.042 41.9135 103.728 43.5762C98.4584 45.605 92.9379 46.7934 87.3796 47.4571C83.4914 47.9186 79.579 48.1249 75.6784 48.1446C75.2769 48.1466 74.8741 48.1466 74.4723 48.1446C71.1986 48.2022 67.9205 48.1072 65.6227 47.9757C63.7267 47.8681 62.3397 47.7158 61.1686 47.5801C60.3507 47.4851 59.6326 47.3963 58.9089 47.3223C58.5184 47.2824 57.9967 47.2298 57.3434 47.1592C54.7252 46.8842 50.2633 46.3075 46.2516 45.5421C44.4817 45.2086 42.4107 44.7685 40.4518 44.3204C37.6182 43.6753 35.1059 43.0318 33.7262 42.7257C31.8556 42.3131 29.8207 41.7889 27.8766 41.2423C27.3948 41.1069 26.9258 40.9706 26.4743 40.835C24.2709 40.1759 22.3544 39.4881 21.2741 39.1339C19.9599 38.7008 18.8791 38.2574 17.2936 37.5255C16.1973 37.0134 14.8475 36.3608 13.0924 35.379C11.0631 34.2359 9.68329 33.2518 8.58561 32.4014C7.02114 31.1659 5.89424 30.173 4.3444 28.5469C2.62915 26.7456 1.19338 24.4259 0.596355 22.3946C0.312485 21.473 0.0790445 20.3849 0.0182299 19.2305C-0.0716604 17.7032 0.174716 16.0797 0.672527 14.7042C1.07637 13.5775 1.58414 12.7079 2.06022 11.9981C2.21006 11.7755 2.3615 11.564 2.51237 11.3594C3.02867 10.5904 3.61373 9.85783 4.24772 9.16706C4.34725 9.04758 4.44743 8.92948 4.55339 8.80671C5.06597 8.21464 5.71746 7.52064 6.62468 6.74421C6.67227 6.70347 6.72133 6.66307 6.77116 6.62214C8.4168 5.3076 10.017 4.64296 11.7878 4.01179C13.1072 3.55541 14.5558 3.15437 16.2048 2.75495C17.3308 2.48192 18.6058 2.20315 19.8796 1.96296C21.7627 1.60584 23.6314 1.33449 24.9655 1.20026C25.4752 1.14874 25.8712 1.13641 26.2926 1.12311C26.2945 1.12311 26.2967 1.12312 26.2985 1.12311C26.3268 1.12226 26.3552 1.12103 26.3835 1.12018C29.5979 0.770916 32.747 0.55179 35.9626 0.404364C36.2368 0.386412 36.5152 0.368229 36.7917 0.35163C38.146 0.27002 39.4704 0.207357 40.321 0.143622C41.2536 0.0729882 43.5863 0.0152507 46.0641 0.00397339C47.671 -0.00509582 49.3508 0.00361218 50.7106 0.00787964Z" fill="#333333"/>
</svg>
