<svg width="78" height="7" viewBox="0 0 78 7" fill="none" xmlns="http://www.w3.org/2000/svg">
<path d="M70.7697 0.386256C71.3879 0.464555 72.0054 0.559395 72.4836 0.631032C73.6954 0.91937 74.8956 1.27526 76.0792 1.75323C76.6885 1.9993 77.2383 2.36722 77.5727 2.7557C77.91 3.14439 77.993 3.50417 77.8454 3.70062C77.7033 3.90384 77.382 3.96137 76.9413 3.93262C76.4993 3.90139 75.9526 3.77844 75.396 3.59353C74.2727 3.22007 73.1051 2.95426 71.9123 2.73819C70.4685 2.47884 69.0015 2.3013 67.5192 2.16339C66.4877 2.06775 65.4524 1.99946 64.4121 1.954C64.305 1.94933 64.1968 1.944 64.0884 1.93978C63.2161 1.97572 62.3399 2.02902 61.7244 2.05535C61.2221 2.07678 60.8395 2.05414 60.528 2.0349C60.3103 2.02186 60.1155 2.0105 59.9175 2.02037C59.8093 2.02576 59.6699 2.03487 59.498 2.04663C58.7894 2.09372 57.593 2.19219 56.4925 2.22382C56.0628 2.23563 55.5813 2.23623 55.0915 2.24065C55.0229 2.24124 54.9541 2.24103 54.886 2.24149C54.0976 2.24693 53.3555 2.24573 52.9905 2.29691C52.3453 2.38758 51.5967 2.41672 50.9381 2.43813C50.3076 2.45888 49.759 2.47305 49.4497 2.5347C49.0807 2.60824 48.7587 2.6092 48.2861 2.60828C47.9574 2.60761 47.5538 2.60632 47.0058 2.62668C46.375 2.64998 45.9267 2.63826 45.5456 2.62812C45.0092 2.61367 44.6067 2.60192 44.0103 2.6861C43.3481 2.77954 42.6548 2.84882 42.1066 2.85066C41.8569 2.85152 41.571 2.8648 41.2743 2.87838C40.8816 2.89638 40.4698 2.91492 40.0913 2.9056C39.7795 2.89788 39.5203 2.85865 39.2917 2.82395C39.2205 2.81314 39.1518 2.80315 39.0857 2.79427C38.8389 2.80316 38.5913 2.81177 38.3439 2.8212C38.304 2.83021 38.2615 2.84024 38.2178 2.85047C37.9985 2.9018 37.7288 2.96456 37.3944 3.00199C36.8652 3.06121 36.3958 3.04851 35.9042 3.0345C35.5221 3.02357 35.1206 3.01252 34.6643 3.0338C34.3526 3.04834 34.0019 3.0778 33.6491 3.10711C33.1264 3.15061 32.6126 3.19271 32.2552 3.18466C32.1202 3.18166 32.0033 3.15504 31.8881 3.12829L31.8871 3.12818C31.8793 3.12637 31.871 3.12439 31.8631 3.12258C30.9923 3.1699 30.1187 3.22035 29.2517 3.27265C29.1768 3.28261 29.1005 3.29175 29.0245 3.30154C28.6541 3.3493 28.2961 3.39579 28.0644 3.45365C27.815 3.51628 27.1751 3.56886 26.5068 3.62509C26.0719 3.66178 25.6125 3.70066 25.2438 3.74464C25.028 3.77027 24.8224 3.74671 24.6115 3.72279C24.414 3.70047 24.2069 3.67834 23.9857 3.69478C23.8748 3.70303 23.755 3.72068 23.628 3.73967C23.5164 3.75637 23.3982 3.77397 23.275 3.78705C23.1613 3.79909 22.9017 3.79313 22.5696 3.78657C22.3644 3.7825 22.132 3.77794 21.8897 3.77713C21.2497 3.827 20.6056 3.87901 19.9664 3.93265C19.8332 3.96745 19.7184 4.00977 19.629 4.06036C19.5649 4.09668 19.5105 4.13857 19.4554 4.18164C19.3804 4.24032 19.303 4.30191 19.1947 4.35322C19.1101 4.39324 19.0089 4.41271 18.9397 4.4026C18.9075 4.39787 18.8819 4.38701 18.859 4.37697C18.833 4.36552 18.8099 4.35548 18.7816 4.35758C18.7612 4.35916 18.7403 4.36969 18.715 4.38263C18.6745 4.40327 18.6219 4.42973 18.5401 4.43597C18.2345 4.45909 17.8892 4.47513 17.5553 4.49201C17.1789 4.51108 16.8079 4.53178 16.5198 4.56208C16.2011 4.59559 15.7217 4.60158 15.2578 4.61003C14.937 4.61558 14.6046 4.62455 14.3256 4.6434C14.0502 4.66206 13.7785 4.71045 13.5021 4.76052C13.1717 4.82044 12.8598 4.87972 12.5925 4.88285C12.5383 4.88336 12.4687 4.85487 12.3764 4.81963C12.3115 4.79448 12.2368 4.76517 12.1533 4.74088C11.8073 4.78679 11.4797 4.83159 11.1346 4.88062C11.1233 4.88747 11.1105 4.89508 11.0988 4.9022C10.8308 5.0638 10.4964 5.2803 9.94193 5.27914C9.80268 5.27864 9.71004 5.24918 9.6269 5.22264C9.5454 5.19664 9.4723 5.17308 9.37475 5.18392C9.26492 5.19615 9.13847 5.24595 8.99917 5.30151C8.80456 5.37933 8.59221 5.46754 8.36664 5.47711C8.35131 5.47776 8.33444 5.47773 8.31735 5.47853C8.29379 5.47964 8.26869 5.48183 8.24219 5.48299C8.06675 5.49404 7.84035 5.50186 7.61594 5.47752C6.86509 5.61749 6.12 5.74069 5.36086 5.84292C4.06962 5.99184 2.8634 6.19951 1.32077 5.95764C1.11168 5.91203 0.913894 5.85836 0.653558 5.70986C0.417698 5.58259 0.0280764 5.2223 0.00169396 4.73769C-0.0171169 4.28092 0.167684 4.05614 0.290493 3.90406C0.422572 3.75509 0.556754 3.66185 0.677206 3.59709C1.17015 3.34659 1.50809 3.42432 1.65222 3.6117C1.7329 3.71554 1.74542 3.85993 1.73014 4.02611C2.39423 4.06675 3.37659 3.91603 4.24149 3.75098C4.28988 3.73871 4.33932 3.72557 4.38911 3.71329C4.74523 3.62403 5.07839 3.49753 5.40497 3.36789C5.48004 3.33812 5.56438 3.30612 5.6341 3.27732C6.10589 3.09163 6.97226 2.92721 7.63731 2.79954C7.78221 2.77188 7.91794 2.74771 8.03738 2.72691C8.04984 2.7247 8.06298 2.72253 8.07545 2.72032C8.23676 2.69241 8.38975 2.66205 8.57106 2.62781C8.99241 2.55003 9.57263 2.44013 10.7761 2.33253C11.1272 2.27712 11.4621 2.22875 11.8136 2.18211C15.5659 1.69242 19.2819 1.57993 22.9981 1.53097C23.0444 1.52838 23.0918 1.52569 23.1395 1.52304C24.0661 1.47129 25.2167 1.41376 25.9469 1.43102C26.8616 1.45327 27.4978 1.48335 28.0064 1.51066C30.948 1.51265 33.8828 1.52202 36.8166 1.46718C37.7351 1.45006 38.6556 1.42669 39.5727 1.39502C40.419 1.3658 41.2635 1.33047 42.1085 1.28963C42.5993 1.24465 43.0656 1.1955 43.4977 1.14867C44.1052 1.08287 44.6457 1.02241 45.0923 0.989191C46.1696 0.909483 47.3946 0.885227 48.3026 0.86121C48.4506 0.857365 48.5907 0.853426 48.7205 0.849506C49.4414 0.788052 50.1578 0.722525 50.8774 0.652057C50.926 0.65812 50.9749 0.664704 51.0246 0.671303C51.6458 0.753701 52.4047 0.694473 53.5886 0.586714C53.9821 0.550705 54.4217 0.508501 54.9168 0.463573C55.0786 0.448852 55.2456 0.434453 55.4177 0.420777C55.8807 0.384201 56.1118 0.417221 56.3134 0.442317C56.3719 0.449817 56.4271 0.457102 56.4822 0.461985C56.671 0.478718 56.8636 0.428963 57.0895 0.37202C57.3774 0.29859 57.7447 0.210217 58.2193 0.239683C59.7424 0.335782 60.4047 0.2027 60.9037 0.096703C61.0537 0.0661283 61.1895 0.0396105 61.3274 0.0237418C61.7692 -0.0280791 62.4176 0.0121774 62.8906 0.0769396C63.2777 0.127085 64.034 0.0936884 64.6203 0.0552284C64.8367 0.0401211 65.1378 0.0514369 65.4874 0.0686907C65.8425 0.086129 66.2728 0.111326 66.715 0.118138C67.8578 0.138907 68.4511 0.176852 68.948 0.209141C69.0866 0.218426 69.2144 0.227609 69.3409 0.236917C69.757 0.268284 70.2595 0.321375 70.7697 0.386256ZM1.64739 4.48954C1.6321 4.5725 1.6187 4.65869 1.63551 4.7034C1.64276 4.7455 1.73285 4.75249 1.7423 4.50202C1.74293 4.43139 1.72034 4.35074 1.6912 4.2802C1.67737 4.34834 1.66339 4.41902 1.64739 4.48954Z" fill="#333333"/>
</svg>
