<svg width="98" height="7" viewBox="0 0 98 7" fill="none" xmlns="http://www.w3.org/2000/svg">
<path d="M94.4249 0.219253C95.1578 0.054165 95.8817 -0.0568754 96.5635 0.0307768C97.2614 0.118911 97.5973 0.496373 97.5196 0.724136C97.4451 0.963931 97.1455 1.11029 96.7422 1.355C96.3213 1.59491 95.668 1.90658 94.9161 2.11964C93.421 2.55152 91.8679 2.89939 90.3438 3.16652C88.4562 3.4971 86.6 3.72327 84.711 3.88039C83.4035 3.98863 82.0666 4.06862 80.7667 4.12453C80.6316 4.13035 80.4949 4.13566 80.3575 4.14113C79.2593 4.25559 78.1425 4.35124 77.3819 4.39406C76.7349 4.43011 76.2617 4.40986 75.8702 4.39113C75.597 4.37827 75.3517 4.36605 75.1016 4.37355C74.9685 4.37756 74.7788 4.38495 74.5616 4.39308C73.696 4.42664 72.1753 4.47419 70.7852 4.41554C70.692 4.41171 70.5961 4.40782 70.4981 4.40285C69.9596 4.37446 69.3632 4.33154 68.7891 4.29152C67.8228 4.22414 66.9253 4.16483 66.4708 4.18898C65.6729 4.23126 64.7589 4.2109 63.9502 4.19484C63.1791 4.17945 62.5048 4.16798 62.1221 4.21535C61.6649 4.27202 61.2737 4.25864 60.6924 4.23976C60.2891 4.22671 59.7934 4.21032 59.1211 4.21437C58.3453 4.21911 57.7958 4.19744 57.3282 4.17921C56.6702 4.15367 56.1752 4.13508 55.4405 4.21144C54.6231 4.29634 53.7696 4.36109 53.0967 4.36086C52.7897 4.36074 52.4382 4.37374 52.0733 4.38722C51.59 4.40507 51.0821 4.42431 50.6182 4.41652C50.2348 4.41012 49.9161 4.37248 49.6348 4.33937C49.5473 4.32907 49.4632 4.31942 49.3819 4.31105C49.0772 4.32188 48.7719 4.33236 48.4678 4.34425C48.4191 4.35362 48.3679 4.3639 48.3145 4.37453C48.0459 4.4281 47.7113 4.49489 47.2989 4.53664C46.6452 4.60274 46.0716 4.59627 45.4649 4.59035C44.9913 4.5858 44.4988 4.581 43.9375 4.61086C43.5547 4.63123 43.1207 4.6681 42.6866 4.70461C42.0435 4.75874 41.411 4.81222 40.9708 4.81203C40.8061 4.81193 40.662 4.78835 40.5196 4.76418L40.5176 4.7632C40.508 4.76156 40.498 4.75995 40.4883 4.75832C39.4101 4.82524 38.345 4.89491 37.2667 4.9673C37.1739 4.97898 37.0802 4.99099 36.9874 5.00246C36.533 5.05853 36.0961 5.11319 35.8077 5.17628C35.4956 5.24461 34.7079 5.30989 33.8848 5.37941C33.3456 5.42494 32.7786 5.47253 32.3233 5.52296C32.0565 5.55245 31.8015 5.53277 31.5401 5.51222C31.2978 5.49299 31.0426 5.47405 30.7686 5.49367C30.6311 5.50352 30.4829 5.52279 30.3252 5.54347C30.1866 5.56167 30.0401 5.58064 29.8868 5.59523C29.7442 5.60877 29.4254 5.60572 29.0186 5.60207C28.7641 5.59994 28.4743 5.59825 28.1719 5.59914C27.3749 5.65342 26.5861 5.70639 25.7852 5.75832C25.62 5.79269 25.4772 5.8341 25.3653 5.88429C25.2851 5.92026 25.2171 5.96169 25.1475 6.00441C25.0528 6.0626 24.9545 6.12291 24.8184 6.17336C24.7119 6.21277 24.586 6.23191 24.4991 6.22121C24.4584 6.2162 24.4262 6.20512 24.3975 6.19484C24.3649 6.18313 24.3358 6.17253 24.3008 6.17433C24.2756 6.17567 24.2496 6.18614 24.2178 6.19875C24.1669 6.21896 24.1003 6.24533 23.9981 6.2505C23.6179 6.26978 23.1871 6.28031 22.7676 6.29054C22.3055 6.30176 21.8378 6.31356 21.4737 6.33546C21.0621 6.36019 20.4877 6.34843 19.8975 6.33742C19.486 6.32974 19.0765 6.32201 18.7276 6.3257C18.3853 6.32934 18.0344 6.36215 17.6836 6.39406C17.2661 6.43223 16.867 6.4688 16.5284 6.4507C16.46 6.4469 16.374 6.41262 16.2667 6.36964C16.1903 6.33911 16.103 6.30351 16.003 6.27199C15.5655 6.28755 15.131 6.30135 14.7002 6.313C14.6852 6.3186 14.6689 6.32477 14.6534 6.33058C14.3057 6.46171 13.824 6.641 13.1338 6.56496C12.9596 6.5456 12.8493 6.50346 12.7501 6.46535C12.6525 6.42787 12.5651 6.39406 12.4395 6.39015C12.2958 6.3858 12.1328 6.4154 11.9454 6.44777C11.6834 6.4932 11.3919 6.54374 11.0997 6.51222C11.0797 6.51007 11.0575 6.50775 11.0352 6.50539C10.8235 6.48299 10.5117 6.44939 10.2032 6.37355C9.26404 6.37444 8.36366 6.36766 7.42486 6.355C5.89704 6.33318 4.3356 6.29321 2.80474 6.23488C2.04452 6.20623 1.34259 6.08529 0.804738 5.89503C0.277324 5.70475 -0.00435075 5.46422 5.081e-05 5.22218C0.00582424 4.97978 0.296993 4.75194 0.825246 4.57765C1.36354 4.40385 2.05774 4.29766 2.80962 4.27296C4.01691 4.23326 5.2211 4.18173 6.44732 4.1255C6.5113 4.1196 6.57299 4.11338 6.63579 4.10793C7.10125 4.06732 7.53891 3.99214 7.9815 3.91554C8.08257 3.89797 8.1867 3.88003 8.28618 3.86281C9.03934 3.73256 10.5369 3.74365 11.3516 3.7466C11.3666 3.74661 11.3816 3.74659 11.3965 3.7466C11.5914 3.74737 11.7776 3.74428 11.9942 3.73976C12.4954 3.72923 13.2033 3.71497 14.6426 3.74074C15.0619 3.72387 15.4851 3.70707 15.9112 3.69191C20.4443 3.5301 25.0097 3.42532 29.5635 3.34132C29.6208 3.33821 29.6794 3.33477 29.7383 3.33156C30.8822 3.26926 32.2922 3.1925 33.1885 3.19582C34.3223 3.20026 35.0894 3.21712 35.7266 3.23293C39.3487 3.17042 42.9684 3.10489 46.5899 3.00832C47.7259 2.97801 48.8592 2.94502 49.9952 2.90773C51.0412 2.87339 52.0835 2.83688 53.1299 2.79933C53.7371 2.75628 54.3153 2.70985 54.8516 2.6675C55.606 2.60795 56.2753 2.55663 56.8301 2.53175C58.1671 2.4716 59.6842 2.4822 60.8116 2.49367C60.9956 2.49551 61.1694 2.49807 61.3301 2.49953C62.2245 2.46796 63.1188 2.43667 64.0137 2.40773C64.0736 2.41661 64.134 2.42651 64.1954 2.43605C64.9602 2.55532 65.8998 2.54216 67.377 2.5298C68.019 2.52456 68.7674 2.51921 69.6446 2.52687C70.0369 2.53033 70.2967 2.55613 70.4981 2.58546C70.5891 2.59838 70.6683 2.61187 70.7422 2.62453C70.8134 2.63671 70.8802 2.64859 70.9473 2.65773C71.1776 2.68904 71.4187 2.65359 71.6993 2.61183C72.0691 2.55757 72.4731 2.49266 73.0772 2.54347C74.9135 2.70496 75.7536 2.55797 76.3419 2.4507C76.5122 2.41906 76.6895 2.39002 76.8565 2.3716C77.4155 2.31154 78.1444 2.33125 78.7579 2.36769C79.2265 2.39787 80.1408 2.31129 80.8428 2.21339C81.1036 2.17681 81.4522 2.15693 81.8858 2.13039C82.33 2.10311 82.8075 2.07202 83.3633 2.00636C84.7051 1.84377 85.428 1.74235 86.0127 1.66066C86.1762 1.63744 86.3264 1.6163 86.4737 1.59425C86.974 1.52094 87.5449 1.4397 88.1631 1.34425C88.8719 1.23441 89.6167 1.10588 90.1563 0.990738C91.6011 0.794037 93.0136 0.548743 94.4249 0.219253Z" fill="#333333"/>
</svg>
