<svg width="18" height="23" viewBox="0 0 18 23" fill="none" xmlns="http://www.w3.org/2000/svg">
<path d="M15.7338 11.1805C15.7338 10.4144 15.4072 9.6798 14.8258 9.13814C14.2445 8.59648 13.456 8.29218 12.6338 8.29218C11.8116 8.29218 11.0231 8.59648 10.4418 9.13814C9.86039 9.6798 9.53379 10.4144 9.53379 11.1805C9.53379 11.9465 9.86039 12.6811 10.4418 13.2228C11.0231 13.7645 11.8116 14.0688 12.6338 14.0688C13.456 14.0688 14.2445 13.7645 14.8258 13.2228C15.4072 12.6811 15.7338 11.9465 15.7338 11.1805ZM17.1338 11.1805C17.1338 12.2924 16.6597 13.3589 15.8158 14.1451C14.9719 14.9314 13.8273 15.3731 12.6338 15.3731C11.4403 15.3731 10.2957 14.9314 9.4518 14.1451C8.60788 13.3589 8.13379 12.2924 8.13379 11.1805C8.13379 10.0685 8.60788 9.00207 9.4518 8.21579C10.2957 7.42951 11.4403 6.98779 12.6338 6.98779C13.8273 6.98779 14.9719 7.42951 15.8158 8.21579C16.6597 9.00207 17.1338 10.0685 17.1338 11.1805Z" fill="black"/>
<path d="M7.73379 15.7458H4.63379C3.81162 15.7458 3.02312 16.0501 2.44176 16.5918C1.86039 17.1334 1.53379 17.8681 1.53379 18.6341C1.53379 19.4001 1.86039 20.1348 2.44176 20.6764C3.02312 21.2181 3.81162 21.5224 4.63379 21.5224C5.45596 21.5224 6.24446 21.2181 6.82582 20.6764C7.40718 20.1347 7.73379 19.4001 7.73379 18.6341V15.7458ZM9.13379 18.6341C9.13379 19.746 8.65969 20.8125 7.81578 21.5988C6.97187 22.385 5.82726 22.8268 4.63379 22.8268C3.44031 22.8268 2.29571 22.385 1.4518 21.5988C0.607883 20.8125 0.133789 19.746 0.133789 18.6341C0.133789 17.5221 0.607883 16.4557 1.4518 15.6694C2.29571 14.8831 3.44031 14.4414 4.63379 14.4414H9.13379V18.6341Z" fill="black"/>
<path d="M15.7338 4.19268C15.7338 3.42665 15.4072 2.69201 14.8258 2.15035C14.2445 1.60869 13.456 1.30439 12.6338 1.30439H9.53379V7.08096H12.6338C13.456 7.08096 14.2445 6.77666 14.8258 6.235C15.4072 5.69334 15.7338 4.9587 15.7338 4.19268ZM17.1338 4.19268C17.1338 5.30464 16.6597 6.37108 15.8158 7.15735C14.9719 7.94363 13.8273 8.38535 12.6338 8.38535H8.13379V0H12.6338C13.8273 0 14.9719 0.441716 15.8158 1.228C16.6597 2.01427 17.1338 3.08071 17.1338 4.19268Z" fill="black"/>
<path d="M9 0V8.38535H4.5C3.30653 8.38535 2.16192 7.94363 1.31801 7.15735C0.474094 6.37108 0 5.30464 0 4.19268C0 3.08071 0.474094 2.01427 1.31801 1.228C2.16192 0.441716 3.30653 0 4.5 0H9ZM1.4 4.19268C1.4 4.9587 1.72661 5.69334 2.30797 6.235C2.88933 6.77666 3.67783 7.08096 4.5 7.08096H7.6V1.30439H4.5C3.67783 1.30439 2.88933 1.60869 2.30797 2.15035C1.72661 2.69201 1.4 3.42665 1.4 4.19268Z" fill="black"/>
<path d="M9.13379 6.98779V15.3731H4.63379C3.44031 15.3731 2.29571 14.9314 1.4518 14.1451C0.607883 13.3589 0.133789 12.2924 0.133789 11.1805C0.133789 10.0685 0.607883 9.00207 1.4518 8.21579C2.29571 7.42951 3.44031 6.98779 4.63379 6.98779H9.13379ZM1.53379 11.1805C1.53379 11.9465 1.86039 12.6811 2.44176 13.2228C3.02312 13.7645 3.81162 14.0688 4.63379 14.0688H7.73379V8.29218H4.63379C3.81162 8.29218 3.02312 8.59648 2.44176 9.13814C1.86039 9.6798 1.53379 10.4144 1.53379 11.1805Z" fill="black"/>
</svg>
