<svg width="23" height="23" viewBox="-4.5 0 23 23" fill="none" xmlns="http://www.w3.org/2000/svg">
<path d="M12 6.75C12 3.85051 9.6495 1.5 6.75 1.5C3.85051 1.5 1.5 3.85051 1.5 6.75C1.5 8.30469 2.17488 9.70071 3.25 10.6631L3.26855 10.6797L3.28516 10.6963C3.56164 10.9779 3.96831 11.4466 4.31152 11.9609C4.48344 12.2186 4.64942 12.5022 4.77441 12.791C4.89601 13.072 5 13.4059 5 13.75H3.5C3.5 13.6941 3.47899 13.5751 3.39746 13.3867C3.31938 13.2064 3.2039 13.0034 3.06348 12.793C2.78182 12.371 2.4383 11.9757 2.21484 11.748C0.856135 10.5142 0 8.73163 0 6.75C0 3.02208 3.02208 0 6.75 0C10.4779 0 13.5 3.02208 13.5 6.75C13.5 8.73189 12.6442 10.5142 11.2852 11.748L11.0977 11.9473C10.8936 12.1744 10.6478 12.4763 10.4365 12.793C10.2961 13.0034 10.1806 13.2064 10.1025 13.3867C10.021 13.5751 10 13.6941 10 13.75H8.5C8.5 13.4059 8.60399 13.072 8.72559 12.791C8.85058 12.5022 9.01656 12.2186 9.18848 11.9609C9.53169 11.4466 9.93836 10.9779 10.2148 10.6963L10.2314 10.6797L10.25 10.6631C11.3251 9.70071 12 8.30469 12 6.75Z" fill="black"/>
<path d="M10.75 16.25V18.25H2.75V16.25H10.75Z" fill="black"/>
<path d="M9.25 20.25V22.25H4.25V20.25H9.25Z" fill="black"/>
</svg>
