<svg width="21" height="21" viewBox="0 0 21 21" fill="none" xmlns="http://www.w3.org/2000/svg">
<path fill-rule="evenodd" clip-rule="evenodd" d="M20.4004 3.39355C20.4002 1.51973 18.8807 0.000233904 17.0068 0H3.39355C1.51973 0.000233904 0.000233904 1.51973 0 3.39355V17.0068C0.000233904 18.8807 1.51973 20.4002 3.39355 20.4004H17.0068C18.8807 20.4002 20.4002 18.8807 20.4004 17.0068V3.39355ZM3.22852 20.1963C3.12324 20.1909 3.01933 20.1804 2.91699 20.165L2.90723 20.1631C3.01273 20.1792 3.11988 20.1908 3.22852 20.1963ZM3.39355 18.5635C2.53403 18.5633 1.83711 17.8664 1.83691 17.0068V6.78711H18.5635V17.0068C18.5633 17.8664 17.8664 18.5633 17.0068 18.5635H3.39355ZM18.715 17.4101C18.7204 17.3903 18.7255 17.3708 18.7295 17.3506L18.7275 17.3613C18.7242 17.3778 18.7196 17.394 18.715 17.4101ZM1.83691 3.39355C1.8371 2.56474 2.48483 1.88833 3.30176 1.84082L5.78027 4.9502H1.83691V3.39355ZM12.8965 4.9502H9.36719L6.88574 1.83691H10.415L12.8965 4.9502ZM18.5635 4.9502H16.4834L14.001 1.83691H17.0068C17.8664 1.83711 18.5633 2.53403 18.5635 3.39355V4.9502ZM3.20008 1.3922C3.20207 1.392 3.20406 1.3918 3.20605 1.3916H3.2041L3.20008 1.3922Z" fill="black"/>
<path fill-rule="evenodd" clip-rule="evenodd" d="M8 10.4227C8 9.86918 8.65677 9.52164 9.1845 9.79605L12.6011 11.5748C13.133 11.8516 13.133 12.5493 12.6011 12.8261L9.1845 14.6042C8.65674 14.8787 8 14.5317 8 13.9782V10.4227ZM8.1477 10.4227C8.1477 10.3969 8.14935 10.3718 8.15275 10.3472L8.15419 10.34L8.1477 10.4227Z" fill="black"/>
</svg>
