<svg width="23" height="20" viewBox="0 0 23 20" fill="none" xmlns="http://www.w3.org/2000/svg">
<path d="M11.5 4.75C11.5 2.95507 10.0449 1.5 8.25 1.5C6.45507 1.5 5 2.95507 5 4.75C5 6.54493 6.45507 8 8.25 8C10.0449 8 11.5 6.54493 11.5 4.75ZM13 4.75C13 7.37335 10.8734 9.5 8.25 9.5C5.62665 9.5 3.5 7.37335 3.5 4.75C3.5 2.12665 5.62665 0 8.25 0C10.8734 0 13 2.12665 13 4.75Z" fill="black"/>
<path d="M18 4.75C18 2.95507 16.5449 1.5 14.75 1.5V0C17.3734 0 19.5 2.12665 19.5 4.75C19.5 7.37335 17.3734 9.5 14.75 9.5V8C16.5449 8 18 6.54493 18 4.75Z" fill="black"/>
<path d="M15 17.75C15 15.4028 13.0972 13.5 10.75 13.5H5.75C3.40279 13.5 1.5 15.4028 1.5 17.75V19.75H0V17.75C0 14.5744 2.57436 12 5.75 12H10.75C13.9256 12 16.5 14.5744 16.5 17.75V19.75H15V17.75Z" fill="black"/>
<path d="M21.5 17.75C21.5 15.4028 19.5972 13.5 17.25 13.5V12C20.4256 12 23 14.5744 23 17.75V19.75H21.5V17.75Z" fill="black"/>
</svg>
