<svg width="23" height="23" viewBox="0 0 23 23" fill="none" xmlns="http://www.w3.org/2000/svg">
<path d="M6.75 11.5C6.75 7.28828 8.01639 3.92967 9.28906 1.74707C4.83028 2.75355 1.5 6.73704 1.5 11.5C1.5 16.2629 4.83039 20.2454 9.28906 21.252C8.01653 19.0693 6.75 15.7113 6.75 11.5ZM8.25 11.5C8.25 16.1919 9.94339 19.6945 11.2246 21.4932C11.3161 21.4956 11.4079 21.5 11.5 21.5C11.5918 21.5 11.6832 21.4956 11.7744 21.4932C13.0557 19.6947 14.75 16.1923 14.75 11.5C14.75 6.80715 13.0557 3.30417 11.7744 1.50586C11.6832 1.5034 11.5918 1.5 11.5 1.5C11.4079 1.5 11.3161 1.50338 11.2246 1.50586C9.94334 3.30431 8.25 6.80755 8.25 11.5ZM16.25 11.5C16.25 15.7115 14.9826 19.0693 13.71 21.252C18.1691 20.2457 21.5 16.2632 21.5 11.5C21.5 6.73671 18.1692 2.75321 13.71 1.74707C14.9827 3.92966 16.25 7.288 16.25 11.5ZM23 11.5C23 17.8513 17.8513 23 11.5 23C5.14873 23 0 17.8513 0 11.5C0 5.14873 5.14873 0 11.5 0C17.8513 0 23 5.14873 23 11.5Z" fill="black"/>
<path d="M22.5 10.5V12.5H0V10.5H22.5Z" fill="black"/>
</svg>
