<svg width="424" height="732" viewBox="0 0 424 732" fill="none" xmlns="http://www.w3.org/2000/svg">
<path d="M490.558 705.593C486.862 710.785 481.93 715.424 475.763 719.51C469.637 723.842 462.882 727.074 455.498 729.207C448.257 731.442 440.84 732.247 433.245 731.622C425.651 730.998 418.536 728.324 411.902 723.602C417.629 727.461 424.074 729.549 431.236 729.866C438.44 730.43 445.559 729.739 452.594 727.792C459.629 725.845 466.179 722.901 472.243 718.96C478.452 715.121 483.353 710.678 486.946 705.63C490.744 700.293 493.04 694.321 493.832 687.713C494.665 681.353 494.151 674.902 492.288 668.36C490.569 661.922 487.689 655.742 483.646 649.822C479.5 644.047 474.543 639.106 468.774 635C463.005 630.893 456.755 628.075 450.023 626.543C449.534 629.672 448.16 632.823 445.901 635.996C443.848 638.881 441.311 641.53 438.29 643.943C435.413 646.458 432.381 648.429 429.193 649.855C426.15 651.383 423.054 652.222 419.906 652.371C416.655 652.665 413.875 651.99 411.568 650.348C408.251 647.987 406.311 644.759 405.749 640.665C405.331 636.673 406.302 633.018 408.664 629.701C411.641 625.518 416.307 622.32 422.663 620.107C429.162 617.997 437.044 618.066 446.308 620.313C446.731 614.53 445.929 608.635 443.903 602.629C441.877 596.623 438.914 590.711 435.015 584.894C431.26 579.179 426.714 573.661 421.375 568.34C416.078 563.266 410.545 558.676 404.776 554.57C400.594 551.593 396.33 548.884 391.983 546.442C387.679 544.248 383.488 542.351 379.411 540.753C377.013 546.87 373.607 553.029 369.192 559.231C363.443 567.308 356.253 575.121 347.622 582.668C338.991 590.215 329.791 596.271 320.023 600.836C310.256 605.401 300.309 607.775 290.185 607.957C280.102 608.386 270.733 605.521 262.08 599.362C258.33 596.693 254.961 593.643 251.971 590.211C249.023 587.026 246.898 583.449 245.595 579.479C244.292 575.509 244.079 571.229 244.957 566.638C245.834 562.047 248.172 557.084 251.971 551.747C258.028 543.237 265.961 536.823 275.771 532.505C285.622 528.433 296.236 525.884 307.615 524.856C319.138 523.93 330.817 524.311 342.653 525.999C354.53 527.934 365.545 530.775 375.696 534.524C379.16 525.689 380.08 515.696 378.457 504.544C376.875 493.64 373.359 482.553 367.908 471.285C362.498 460.263 355.505 449.635 346.927 439.401C338.494 429.27 329.086 420.509 318.702 413.118L316.7 415.93C309.924 425.45 300.05 434.286 287.078 442.437C274.147 450.836 259.341 457.899 242.661 463.629C226.022 469.605 208.104 474.02 188.909 476.872C169.754 479.972 150.514 481.055 131.189 480.121C112.008 479.289 93.2862 476.286 75.0241 471.111C56.9062 466.038 40.4919 458.267 25.7814 447.796C17.9936 442.253 12.0781 436.522 8.03504 430.602C4.03351 424.929 1.53396 419.129 0.536594 413.204C-0.419214 407.525 -0.0989443 401.886 1.4972 396.285C2.99067 390.829 5.48262 385.649 8.97318 380.745C16.9809 369.494 26.7109 360.556 38.1628 353.93C49.5121 347.449 61.9344 342.817 75.4299 340.036C88.9254 337.255 103.082 336.14 117.9 336.691C132.718 337.241 147.651 338.852 162.699 341.522C177.788 344.438 192.631 348.158 207.229 352.681C221.827 357.204 235.603 362.12 248.556 367.428C261.406 372.88 273.052 378.344 283.495 383.821C293.979 389.545 302.682 394.87 309.605 399.798L310.038 400.106C319.707 385.909 324.861 372.41 325.499 359.608C326.384 346.765 322.147 335.165 312.787 324.809C307.336 326.362 301.359 327.432 294.857 328.019C288.355 328.607 281.739 328.896 275.01 328.887C268.28 328.878 261.561 328.55 254.851 327.903C248.183 327.503 241.915 326.845 236.049 325.929C229.811 324.314 224.961 322.275 221.5 319.811C218.471 317.655 216.43 315.333 215.376 312.845C214.323 310.357 214.669 307.886 216.414 305.434C217.235 304.281 218.427 303.064 219.989 301.786C221.695 300.61 223.957 299.721 226.776 299.119C242.163 295.512 256.845 294.879 270.822 297.222C285.046 299.523 297.062 304.163 306.869 311.144C308.455 312.273 309.918 313.423 311.258 314.593C312.597 315.764 313.886 317.007 315.122 318.322L418.843 280.667C417.875 280.195 416.958 279.651 416.093 279.035C415.227 278.419 414.362 277.804 413.497 277.188C408.16 273.39 403.029 268.542 398.101 262.644C393.275 256.601 389.427 249.95 386.554 242.691C383.682 235.431 382.147 227.819 381.949 219.855C381.853 211.746 383.868 203.727 387.991 195.797C396.075 180.471 400.227 165.173 400.45 149.902C400.775 134.487 398.158 119.695 392.599 105.525C387.185 91.4572 379.24 78.1968 368.766 65.7434C358.539 53.2484 346.791 42.2788 333.522 32.8349C324.725 26.5732 315.312 21.177 305.282 16.6461C295.356 11.971 284.607 8.44975 273.038 6.08244C259.968 4.60266 247.785 4.6237 236.489 6.14555C225.441 7.6258 215.361 10.3392 206.251 14.2857C196.997 18.1296 188.814 23.0623 181.703 29.084C174.551 34.8587 168.357 41.4241 163.121 48.7802C152.855 63.204 146.315 78.6503 143.502 95.1192C140.544 111.485 140.786 127.63 144.228 143.553C147.67 159.476 153.94 174.478 163.038 188.56C172.136 202.642 183.536 214.558 197.237 224.31C205.457 230.161 214.592 235.033 224.641 238.926C234.793 242.675 245.075 244.561 255.488 244.584C266.004 244.463 276.197 242.048 286.067 237.338C296.082 232.732 305.042 224.875 312.947 213.769C318.594 205.836 322.036 196.878 323.276 186.894C324.515 176.911 323.861 166.992 321.314 157.139C318.869 147.141 314.81 137.733 309.137 128.914C303.566 119.951 296.742 112.595 288.666 106.846C277.705 99.0447 265.227 94.2917 251.23 92.5871C237.336 90.7383 223.243 92.9852 208.95 99.328C215.467 95.0567 222.336 92.1224 229.557 90.5253C236.922 89.0308 244.278 88.6169 251.626 89.2833C259.118 90.0524 266.406 91.8715 273.49 94.7405C280.676 97.4652 287.442 101.086 293.788 105.602C302.874 112.07 310.244 120.032 315.898 129.489C321.799 138.904 325.766 148.899 327.8 159.474C329.937 169.904 330.108 180.348 328.314 190.806C326.766 201.222 323.016 210.613 317.061 218.979C309.875 229.076 301.418 236.53 291.692 241.342C281.966 246.154 271.691 248.836 260.867 249.39C250.146 249.8 239.288 248.265 228.293 244.785C217.401 241.161 207.195 235.962 197.677 229.187C181.668 217.793 168.692 204.428 158.748 189.092C148.804 173.757 141.998 157.829 138.329 141.31C134.659 124.79 134.231 108.296 137.045 91.8272C139.858 75.3583 146.039 60.4168 155.586 47.0028C161.336 38.9255 168.239 31.6695 176.295 25.2346C184.208 18.6971 193.089 13.3926 202.94 9.32135C212.749 5.00319 223.446 2.18584 235.03 0.86931C246.717 -0.591467 259.158 -0.211624 272.352 2.00882C285.259 4.02397 296.82 7.47168 307.035 12.3521C317.25 17.2325 326.468 22.5983 334.688 28.4495C347.957 37.8934 360.168 48.9752 371.322 61.695C382.62 74.5174 391.553 88.3729 398.121 103.261C404.689 118.15 408.213 133.805 408.692 150.228C409.316 166.752 405.659 183.49 397.722 200.441C391.697 215.928 389.98 229.483 392.571 241.106C395.265 252.585 403.102 262.944 416.082 272.182C417.524 273.209 418.966 274.235 420.408 275.262C421.995 276.391 423.684 277.376 425.476 278.217C444.028 272.299 461.649 268.759 478.337 267.599C495.127 266.294 512.385 267.385 530.109 270.874C533.917 271.629 537.253 272.59 540.115 273.759C542.978 274.927 545.346 276.178 547.221 277.512C553.423 281.926 554.624 286.802 550.825 292.139C549.491 294.014 547.518 295.869 544.908 297.705C542.4 299.397 539.212 300.823 535.345 301.982C530.779 303.513 524.309 304.666 515.934 305.442C507.56 306.218 498.278 306.131 488.09 305.182C478.005 304.088 467.434 301.996 456.378 298.908C445.466 295.922 435.045 291.33 425.116 285.132L319.453 323.686C323.432 328.474 326.518 334.365 328.711 341.359C331.15 348.31 332.5 355.573 332.759 363.146C333.162 370.821 332.434 378.561 330.574 386.364C328.714 394.167 325.546 401.365 321.07 407.958C333.371 416.931 344.026 426.688 353.036 437.23C361.943 447.916 369.051 458.842 374.357 470.008C379.562 481.318 382.801 492.642 384.074 503.979C385.348 515.316 384.378 526.143 381.163 536.459C385.385 538.16 389.72 540.159 394.169 542.456C398.515 544.898 402.779 547.607 406.962 550.584C413.163 554.998 419.077 559.968 424.704 565.495C430.373 571.268 435.25 577.238 439.334 583.405C443.563 589.674 446.732 596.059 448.842 602.559C450.993 609.305 451.652 615.859 450.818 622.219C454.319 623.407 457.593 624.76 460.641 626.277C463.731 628.042 466.718 629.951 469.602 632.004C475.948 636.52 481.41 641.821 485.989 647.904C490.464 654.132 493.706 660.568 495.712 667.212C497.719 673.856 498.327 680.482 497.535 687.089C496.887 693.8 494.561 699.967 490.558 705.593ZM548.321 289.704C550.477 286.675 549.464 283.672 545.281 280.695C541.82 278.232 536.487 275.957 529.28 273.87C522.507 272.091 515.025 271.003 506.833 270.606C498.786 270.311 490.329 270.593 481.461 271.452C472.839 272.27 464.177 273.602 455.475 275.448C446.773 277.295 438.576 279.501 430.884 282.066C438.259 286.663 446.466 290.549 455.505 293.723C464.544 296.898 473.685 299.166 482.927 300.529C492.314 301.995 501.359 302.566 510.064 302.242C518.768 301.918 526.473 300.557 533.178 298.158C537.395 296.813 540.654 295.439 542.957 294.035C545.506 292.59 547.295 291.147 548.321 289.704ZM441.021 634.152C443.28 630.979 444.623 628.023 445.051 625.286C437.043 623.715 429.943 623.768 423.752 625.446C417.601 627.37 413.294 630.063 410.83 633.525C409.393 635.544 408.81 637.737 409.082 640.103C409.394 642.717 410.633 644.793 412.796 646.333C414.527 647.565 416.647 648.096 419.158 647.927C421.668 647.758 424.27 647.003 426.964 645.66C429.699 644.565 432.279 642.924 434.704 640.738C437.17 638.8 439.276 636.604 441.021 634.152ZM365.602 553.742C369.401 548.406 372.284 543.287 374.252 538.385C363.853 534.678 352.86 531.96 341.271 530.231C329.579 528.646 318.291 528.325 307.406 529.27C296.665 530.318 286.74 532.815 277.63 536.761C268.664 540.811 261.563 546.513 256.327 553.869C251.091 561.225 249.148 568.535 250.497 575.797C251.847 583.06 256.632 589.616 264.852 595.467C271.176 599.099 278.895 600.465 288.01 599.564C297.167 598.91 306.475 596.517 315.935 592.385C325.539 588.355 334.719 582.937 343.475 576.131C352.375 569.427 359.751 561.964 365.602 553.742ZM307.84 320.31C305.799 317.988 303.192 315.698 300.02 313.44C290.934 306.973 280.175 303.009 267.742 301.549C255.31 300.089 242.531 300.337 229.405 302.294C224.056 303.703 220.561 305.561 218.918 307.869C217.789 309.455 217.617 311.071 218.401 312.716C219.083 314.506 220.506 316.17 222.669 317.71C225.842 319.968 230.156 321.844 235.612 323.337C246.913 324.861 258.51 325.51 270.405 325.283C282.299 325.057 294.778 323.399 307.84 320.31ZM306.188 405.514C292.714 396.359 277.307 387.783 259.966 379.787C242.626 371.791 224.515 364.876 205.635 359.043C186.796 353.458 167.794 349.169 148.63 346.176C129.507 343.431 111.355 342.68 94.1736 343.924C77.1361 345.271 61.6253 348.899 47.6409 354.809C33.8008 360.822 22.6715 369.742 14.2531 381.569C11.2759 385.752 8.94764 390.397 7.26838 395.504C5.58913 400.611 5.08318 405.9 5.75055 411.374C6.56214 416.949 8.77318 422.543 12.3836 428.155C15.994 433.768 21.549 439.243 29.0484 444.58C40.4418 452.69 52.6039 458.956 65.5348 463.379C78.5072 468.049 91.7963 471.206 105.402 472.849C119.049 474.739 132.838 475.21 146.768 474.259C160.741 473.556 174.402 471.763 187.753 468.879C201.002 466.14 213.714 462.475 225.89 457.885C238.107 453.542 249.335 448.604 259.574 443.071C269.856 437.785 278.85 432.017 286.557 425.768C294.408 419.622 300.592 413.375 305.11 407.029L306.188 405.514Z" fill="#333333"/>
</svg>
