<svg width="500" height="280" viewBox="0 0 500 280" fill="none" xmlns="http://www.w3.org/2000/svg">
<path d="M207.096 184.12L207.576 183.448L207.096 183.544C206.776 183.608 206.168 183.704 205.272 183.832C204.504 184.024 203.768 184.152 203.064 184.216C202.36 184.28 201.784 184.376 201.336 184.504L200.088 184.6V185.272C200.088 185.464 200.024 185.72 199.896 186.04C199.768 186.296 199.608 186.552 199.416 186.808C199.032 187.448 198.616 188.312 198.168 189.4C197.784 190.424 197.4 191.448 197.016 192.472C196.696 193.432 196.536 194.072 196.536 194.392C196.536 194.712 197.112 194.456 198.264 193.624C199.544 192.792 201.08 191.384 202.872 189.4C204.728 187.352 206.136 185.592 207.096 184.12ZM208.92 181.24C209.112 180.984 209.304 180.632 209.496 180.184C211.352 176.344 211 174.136 208.44 173.56C207.736 173.432 206.904 173.4 205.944 173.464C204.984 173.528 204.216 173.688 203.64 173.944C201.784 174.776 200.184 175.992 198.84 177.592C197.56 179.128 197.048 180.408 197.304 181.432C197.816 182.776 200.408 183.096 205.08 182.392C205.208 182.392 205.56 182.36 206.136 182.296C206.776 182.168 207.32 182.04 207.768 181.912C208.024 181.848 208.248 181.752 208.44 181.624C208.632 181.496 208.792 181.368 208.92 181.24ZM211.512 180.856C211.512 180.92 211.544 180.952 211.608 180.952C211.672 180.952 212.056 180.856 212.76 180.664C213.464 180.472 214.328 180.248 215.352 179.992C219.832 178.712 223.064 177.976 225.048 177.784C226.904 177.528 228.792 177.496 230.712 177.688C230.968 177.752 231.128 177.912 231.192 178.168C231.32 178.424 231.32 178.68 231.192 178.936C231.128 179.128 230.968 179.192 230.712 179.128C227.064 179.128 221.656 179.992 214.488 181.72L210.648 182.68L209.976 183.832C209.016 185.816 207.608 187.864 205.752 189.976C203.96 192.088 202.136 193.848 200.28 195.256C196.696 197.944 194.424 198.072 193.464 195.64C193.336 195.384 193.24 195.128 193.176 194.872C193.048 194.552 192.984 194.232 192.984 193.912C192.984 193.528 192.984 193.048 192.984 192.472V190.168C192.984 190.104 193.016 190.072 193.08 190.072C193.08 189.944 193.112 189.784 193.176 189.592C193.304 189.208 193.464 188.792 193.656 188.344C193.848 187.832 194.04 187.384 194.232 187C194.36 186.552 194.456 186.232 194.52 186.04C194.712 185.72 194.936 185.4 195.192 185.08C195.448 184.696 195.672 184.408 195.864 184.216L196.632 183.544L196.152 183.064C194.36 180.888 195.32 177.944 199.032 174.232C202.104 171.544 204.984 170.424 207.672 170.872C210.04 171.384 211.512 172.6 212.088 174.52C212.28 175.096 212.376 175.832 212.376 176.728C212.312 176.92 212.28 177.08 212.28 177.208L212.664 176.632C213.112 175.928 213.56 175.032 214.008 173.944C214.52 172.856 214.84 171.96 214.968 171.256C215.224 170.168 215.352 168.984 215.352 167.704C215.352 166.36 215.224 165.208 214.968 164.248L214.776 164.152L214.2 162.616H214.104C213.912 162.168 213.688 161.752 213.432 161.368C213.176 161.048 212.76 160.664 212.184 160.216C211.672 159.768 211.384 159.512 211.32 159.448C211.256 159.384 211.096 159.256 210.84 159.064C210.584 158.872 210.232 158.648 209.784 158.392C209.4 158.2 208.984 157.976 208.536 157.72C207.192 156.952 206.168 156.184 205.464 155.416C204.76 154.584 203.992 153.592 203.16 152.44C202.328 151.224 201.688 149.464 201.24 147.16C200.856 144.856 201.368 142.744 202.776 140.824C204.184 138.904 205.688 137.592 207.288 136.888C208.248 136.184 210.392 135.352 213.72 134.392C217.112 133.432 219.576 133.592 221.112 134.872C222.712 136.152 222.264 136.824 219.768 136.888C212.28 137.4 207.608 138.872 205.752 141.304C203.96 143.672 203.352 146.264 203.928 149.08C205.08 151.256 206.072 152.76 206.904 153.592C207.736 154.424 208.92 155.384 210.456 156.472C212.76 158.136 214.392 159.736 215.352 161.272C215.928 162.232 216.28 163.128 216.408 163.96C216.6 164.728 216.728 165.72 216.792 166.936C216.92 168.408 216.824 169.816 216.504 171.16C216.184 172.44 215.64 173.944 214.872 175.672C214.104 177.272 213.272 178.616 212.376 179.704C212.12 180.088 211.832 180.472 211.512 180.856Z" fill="#333333"/>
<path d="M246.095 167.992L245.903 168.184C248.783 168.888 250.383 170.776 250.703 173.848C250.831 176.408 249.903 179.288 247.919 182.488C244.335 187.672 240.335 189.88 235.919 189.112C234.063 188.728 232.783 187.896 232.079 186.616L231.695 185.944L230.543 188.056L229.487 190.264V191.416C229.487 194.552 228.591 198.104 226.799 202.072C226.223 203.416 225.423 204.984 224.399 206.776C223.311 208.504 222.191 210.2 221.039 211.864C220.719 212.376 220.239 212.984 219.599 213.688C218.895 214.392 218.255 215.032 217.679 215.608C217.039 216.184 216.655 216.472 216.527 216.472C216.463 216.472 216.367 216.408 216.239 216.28C216.111 216.216 215.983 216.12 215.855 215.992C215.791 215.928 215.759 215.896 215.759 215.896C215.567 215.768 215.439 215.64 215.375 215.512C215.311 215.448 215.311 215.288 215.375 215.032C215.375 214.968 215.407 214.872 215.471 214.744C215.599 214.296 215.759 213.816 215.951 213.304C216.143 212.856 216.591 211.896 217.295 210.424C217.999 208.952 218.799 207.352 219.695 205.624C220.527 203.896 221.295 202.392 221.999 201.112C222.383 200.344 222.927 199.32 223.631 198.04C224.335 196.696 224.975 195.384 225.551 194.104C225.679 193.784 225.839 193.496 226.031 193.24C226.671 192.088 227.119 191.224 227.375 190.648C227.631 190.008 227.791 189.496 227.855 189.112C227.855 188.728 227.823 188.216 227.759 187.576C227.695 187.384 227.663 187.192 227.663 187C227.535 185.912 227.503 184.824 227.567 183.736C227.567 182.584 227.663 181.688 227.855 181.048C228.559 178.36 229.999 175.928 232.175 173.752L233.327 172.6C233.327 172.6 233.423 172.536 233.615 172.408C233.807 172.216 234.031 172.024 234.287 171.832C234.607 171.64 234.895 171.448 235.151 171.256C237.007 169.848 238.991 168.824 241.103 168.184C241.807 167.992 242.639 167.896 243.599 167.896C244.623 167.832 245.455 167.864 246.095 167.992ZM227.855 194.392L228.047 193.72L226.895 196.024C226.575 196.664 226.191 197.496 225.743 198.52C225.231 199.48 224.783 200.408 224.399 201.304C223.375 203.352 222.351 205.432 221.327 207.544C220.303 209.592 219.503 211.128 218.927 212.152C218.671 212.536 218.479 212.888 218.351 213.208C218.159 213.528 218.063 213.688 218.063 213.688C218.063 213.688 218.095 213.656 218.159 213.592C218.223 213.592 218.319 213.496 218.447 213.304C218.575 213.176 218.735 212.952 218.927 212.632C221.103 209.88 223.119 206.52 224.975 202.552C226.703 199.096 227.663 196.376 227.855 194.392ZM231.503 182.968L231.695 183.16C232.271 181.944 232.815 180.792 233.327 179.704C233.903 178.552 234.319 177.688 234.575 177.112C234.959 176.152 235.247 175.32 235.439 174.616C235.695 173.912 235.791 173.496 235.727 173.368C235.663 173.304 235.439 173.432 235.055 173.752C234.671 174.072 234.223 174.488 233.711 175C233.199 175.512 232.687 176.056 232.175 176.632C231.663 177.144 231.279 177.592 231.023 177.976C229.615 180.152 228.911 182.168 228.911 184.024C228.911 184.408 228.943 184.856 229.007 185.368C229.007 185.88 229.039 186.328 229.103 186.712C229.167 187.032 229.231 187.192 229.295 187.192C229.359 187.192 229.615 186.776 230.063 185.944C230.447 185.112 230.927 184.12 231.503 182.968ZM245.039 183.16V183.256C246.447 181.784 247.535 180.216 248.303 178.552C249.135 176.824 249.519 175.32 249.455 174.04C249.263 172.056 248.303 170.744 246.575 170.104C244.463 169.464 241.871 169.912 238.799 171.448C238.351 171.64 238.063 171.8 237.935 171.928C237.871 171.992 237.903 172.088 238.031 172.216C238.095 172.344 238.095 172.536 238.031 172.792C238.031 172.984 237.935 173.304 237.743 173.752C237.615 174.2 237.327 174.872 236.879 175.768C236.495 176.6 235.951 177.72 235.247 179.128C235.183 179.256 235.119 179.416 235.055 179.608C234.607 180.504 234.223 181.272 233.903 181.912C233.647 182.488 233.423 182.968 233.231 183.352C233.039 183.736 232.911 184.024 232.847 184.216C232.783 184.408 232.751 184.568 232.751 184.696C232.751 184.76 232.783 184.792 232.847 184.792C232.911 184.856 233.007 184.952 233.135 185.08C233.263 185.208 233.391 185.368 233.519 185.56C233.967 186.2 234.639 186.616 235.535 186.808C236.047 186.936 236.623 187 237.263 187C237.967 187 238.639 186.936 239.279 186.808C241.327 186.232 243.247 185.016 245.039 183.16Z" fill="#333333"/>
<path d="M292.512 176.632H292.608C293.056 176.44 293.44 176.472 293.76 176.728C294.144 176.92 294.336 177.272 294.336 177.784C294.336 178.232 294.048 178.616 293.472 178.936C293.152 179.128 292.8 179.288 292.416 179.416C288.896 180.888 286.144 182.008 284.16 182.776C282.24 183.544 280.768 184.088 279.744 184.408C278.784 184.728 277.952 184.952 277.248 185.08C275.072 185.464 273.472 185.08 272.448 183.928C271.488 182.84 271.2 181.304 271.584 179.32C271.712 178.68 271.872 177.944 272.064 177.112C272.32 176.28 272.608 175.544 272.928 174.904C272.992 174.712 273.024 174.552 273.024 174.424C273.088 174.296 273.12 174.232 273.12 174.232C273.12 174.232 272.992 174.328 272.736 174.52C272.544 174.712 272.288 174.936 271.968 175.192L270.816 176.248V177.016C270.432 179.576 269.6 180.856 268.32 180.856C268.064 180.856 267.808 180.76 267.552 180.568C267.296 180.376 267.104 180.12 266.976 179.8C266.976 179.736 266.944 179.704 266.88 179.704C266.88 179.64 266.848 179.64 266.784 179.704C266.72 179.768 266.592 179.864 266.4 179.992C266.208 180.12 265.952 180.312 265.632 180.568C265.312 180.824 264.896 181.144 264.384 181.528C262.336 183.128 260.672 184.408 259.392 185.368C258.112 186.328 256.928 187.096 255.84 187.672C252.064 189.784 249.632 189.624 248.544 187.192C248.16 186.232 248.096 185.08 248.352 183.736C249.44 179.448 252.704 175.192 258.144 170.968C262.368 167.832 265.728 167.224 268.224 169.144C268.992 169.72 269.536 170.52 269.856 171.544C269.984 171.864 270.08 172.152 270.144 172.408C270.272 172.6 270.368 172.696 270.432 172.696C270.56 172.696 270.912 172.472 271.488 172.024C272.064 171.512 272.704 170.936 273.408 170.296C274.112 169.592 274.784 168.952 275.424 168.376C276.064 167.8 276.48 167.384 276.672 167.128C277.312 166.296 277.952 165.88 278.592 165.88C279.552 165.88 280.032 166.52 280.032 167.8C279.968 168.056 279.84 168.344 279.648 168.664C279.52 168.92 279.328 169.272 279.072 169.72C278.56 170.616 277.984 171.704 277.344 172.984C276.704 174.264 276.192 175.384 275.808 176.344C275.488 177.112 275.2 177.976 274.944 178.936C274.688 179.832 274.496 180.536 274.368 181.048C274.304 182.264 275.328 182.648 277.44 182.2C278.528 182.008 280 181.592 281.856 180.952C283.712 180.248 286.432 179.128 290.016 177.592C290.912 177.336 291.744 177.016 292.512 176.632ZM264.96 177.304L265.056 177.4C265.632 176.952 266.08 176.6 266.4 176.344C266.72 176.088 266.944 175.896 267.072 175.768C267.2 175.576 267.264 175.448 267.264 175.384C267.328 175.256 267.36 175.16 267.36 175.096C267.36 174.904 267.328 174.744 267.264 174.616C267.264 174.488 267.136 174.328 266.88 174.136C265.536 173.112 263.456 173.56 260.64 175.48C259.744 176.12 258.656 177.08 257.376 178.36C256.16 179.64 255.168 180.76 254.4 181.72C253.888 182.488 253.376 183.256 252.864 184.024C252.416 184.792 252.192 185.272 252.192 185.464C252.192 185.656 252.864 185.432 254.208 184.792C256.192 183.832 259.776 181.336 264.96 177.304Z" fill="#333333"/>
<path d="M325.375 177.208V177.304C325.503 177.432 325.567 177.624 325.567 177.88C325.631 178.072 325.599 178.232 325.471 178.36C325.407 178.424 325.151 178.456 324.703 178.456C324.447 178.456 324.159 178.488 323.839 178.552C319.807 178.936 314.271 180.6 307.231 183.544L305.983 184.12L305.311 186.232C304.607 188.536 303.679 190.968 302.527 193.528C301.439 196.024 300.383 198.2 299.359 200.056C296.543 205.432 292.895 210.264 288.415 214.552C282.975 220.056 278.687 222.84 275.551 222.904C275.039 222.968 274.655 222.968 274.399 222.904C274.143 222.904 273.855 222.84 273.535 222.712C270.143 221.048 269.887 216.92 272.767 210.328C274.495 206.36 277.343 202.392 281.311 198.424C286.943 192.6 294.367 187.48 303.583 183.064L304.447 182.584L304.927 181.24C304.991 180.984 305.055 180.728 305.119 180.472C305.183 180.216 305.247 179.992 305.311 179.8C305.375 179.544 305.439 179.352 305.503 179.224C305.503 178.84 305.471 178.584 305.407 178.456C305.407 178.264 305.279 178.168 305.023 178.168C304.831 178.104 304.447 178.072 303.871 178.072C303.167 178.072 302.303 178.168 301.279 178.36C300.255 178.488 298.847 178.744 297.055 179.128C295.711 179.384 294.655 179.576 293.887 179.704C293.119 179.832 292.575 179.864 292.255 179.8C291.935 179.736 291.711 179.608 291.583 179.416C291.391 179.224 291.295 179.128 291.295 179.128C291.295 178.616 291.295 178.168 291.295 177.784C291.615 177.72 291.807 177.688 291.871 177.688C291.935 177.688 292.095 177.592 292.351 177.4C292.671 177.208 292.991 176.952 293.311 176.632C293.695 176.376 294.175 176.024 294.751 175.576C295.327 175.064 295.871 174.616 296.383 174.232C297.599 173.336 298.527 172.664 299.167 172.216C299.807 171.704 300.223 171.32 300.415 171.064C300.607 170.808 300.639 170.648 300.511 170.584C300.383 170.52 300.063 170.488 299.551 170.488C299.103 170.488 298.559 170.52 297.919 170.584C297.343 170.584 296.799 170.648 296.287 170.776C295.775 170.776 295.039 170.904 294.079 171.16C293.631 171.224 293.215 171.288 292.831 171.352C291.679 171.672 290.847 171.832 290.335 171.832C289.759 171.768 289.311 171.576 288.991 171.256C288.543 170.744 288.415 170.136 288.607 169.432C288.735 168.728 289.119 168.248 289.759 167.992C290.079 167.928 290.879 167.896 292.159 167.896C293.439 167.896 294.751 167.928 296.095 167.992C297.503 168.056 298.495 168.12 299.071 168.184C301.759 168.76 302.559 169.912 301.471 171.64C300.895 172.408 299.327 173.784 296.767 175.768C296.063 176.344 295.583 176.76 295.327 177.016C295.071 177.272 294.911 177.496 294.847 177.688C294.847 177.752 294.847 177.848 294.847 177.976C294.847 178.04 294.879 178.072 294.943 178.072C295.007 178.072 295.167 178.04 295.423 177.976C295.871 177.848 296.415 177.688 297.055 177.496C298.719 177.048 300.063 176.728 301.087 176.536C302.111 176.344 303.071 176.248 303.967 176.248C304.415 176.248 304.735 176.248 304.927 176.248C305.183 176.248 305.375 176.28 305.503 176.344C305.695 176.408 305.855 176.472 305.983 176.536C307.071 176.984 307.423 178.2 307.039 180.184C306.975 180.568 306.911 180.888 306.847 181.144C306.783 181.4 306.751 181.528 306.751 181.528C306.751 181.528 306.911 181.464 307.231 181.336C307.551 181.208 307.967 181.048 308.479 180.856C310.399 180.088 312.415 179.384 314.527 178.744C316.703 178.104 318.591 177.624 320.191 177.304C320.767 177.176 321.407 177.112 322.111 177.112C322.879 177.048 323.551 177.048 324.127 177.112C324.767 177.112 325.183 177.144 325.375 177.208ZM300.319 194.2L300.223 194.104C300.479 193.528 300.767 192.76 301.087 191.8C301.471 190.84 301.823 189.88 302.143 188.92C302.463 187.896 302.719 187.064 302.911 186.424C303.167 185.72 303.295 185.368 303.295 185.368C303.231 185.368 302.847 185.528 302.143 185.848C301.503 186.168 300.703 186.584 299.743 187.096C298.847 187.608 298.015 188.088 297.247 188.536C286.303 195 278.815 202.168 274.783 210.04C274.335 210.936 274.015 211.64 273.823 212.152C273.631 212.728 273.439 213.368 273.247 214.072C272.607 216.44 272.607 218.264 273.247 219.544C273.759 220.44 275.039 220.568 277.087 219.928C279.135 219.096 281.695 217.464 284.767 215.032C285.919 214.072 287.359 212.728 289.087 211C290.815 209.336 292.127 207.96 293.023 206.872C296.095 203.096 298.527 198.872 300.319 194.2Z" fill="#333333"/>
<path d="M345.601 175.096V175.288C345.793 175.352 345.921 175.48 345.985 175.672C346.049 175.864 346.049 176.056 345.985 176.248C345.921 176.376 345.793 176.408 345.601 176.344C342.913 176.344 338.945 176.984 333.697 178.264L330.913 178.936L330.433 179.8C329.729 181.272 328.705 182.776 327.361 184.312C326.017 185.848 324.673 187.128 323.329 188.152C320.705 190.136 319.041 190.232 318.337 188.44C318.209 188.248 318.113 188.056 318.049 187.864C317.985 187.672 317.953 187.448 317.953 187.192C317.953 186.936 317.953 186.584 317.953 186.136V184.504C317.953 184.504 318.017 184.376 318.145 184.12C318.209 183.8 318.305 183.48 318.433 183.16C318.561 182.776 318.689 182.424 318.817 182.104C318.945 181.784 319.041 181.56 319.105 181.432C319.233 181.176 319.393 180.92 319.585 180.664C319.777 180.408 319.937 180.216 320.065 180.088L320.641 179.608L320.257 179.224C318.977 177.624 319.681 175.48 322.369 172.792C324.609 170.808 326.721 169.976 328.705 170.296C330.433 170.68 331.521 171.576 331.969 172.984C332.097 173.432 332.129 174.008 332.065 174.712C332.065 175.352 331.969 175.992 331.777 176.632C331.649 176.952 331.553 177.208 331.489 177.4C331.489 177.592 331.521 177.688 331.585 177.688C331.649 177.688 331.937 177.624 332.449 177.496C332.961 177.368 333.601 177.208 334.369 177.016C337.633 176.056 340.001 175.512 341.473 175.384C342.817 175.192 344.193 175.096 345.601 175.096ZM328.321 179.992L328.609 179.512L328.321 179.608C328.065 179.672 327.617 179.736 326.977 179.8C326.401 179.928 325.857 180.024 325.345 180.088C324.833 180.152 324.417 180.216 324.097 180.28L323.137 180.376V180.856C323.137 180.984 323.073 181.176 322.945 181.432C322.881 181.624 322.785 181.816 322.657 182.008C322.401 182.456 322.113 183.064 321.793 183.832C321.473 184.6 321.185 185.368 320.929 186.136C320.673 186.84 320.545 187.32 320.545 187.576C320.545 187.768 320.961 187.576 321.793 187C322.753 186.36 323.905 185.304 325.249 183.832C326.593 182.36 327.617 181.08 328.321 179.992ZM330.049 177.016H329.953C331.361 174.264 331.137 172.696 329.281 172.312C328.769 172.184 328.161 172.152 327.457 172.216C326.753 172.28 326.177 172.408 325.729 172.6C324.385 173.176 323.233 174.04 322.273 175.192C321.313 176.344 320.929 177.304 321.121 178.072C321.505 179.032 323.393 179.256 326.785 178.744C326.913 178.744 327.073 178.712 327.265 178.648C327.969 178.584 328.481 178.52 328.801 178.456C329.121 178.328 329.345 178.168 329.473 177.976C329.665 177.784 329.857 177.496 330.049 177.112C330.049 177.048 330.049 177.016 330.049 177.016Z" fill="#333333"/>
<path d="M382.856 134.392L382.664 134.296C382.856 134.744 382.952 135.384 382.952 136.216C383.016 137.048 382.984 137.848 382.856 138.616C382.28 140.984 381.288 143.672 379.88 146.68C376.296 154.104 371.528 160.792 365.576 166.744C364.616 167.704 363.784 168.504 363.08 169.144C362.44 169.72 361.736 170.328 360.968 170.968C360.904 171.032 360.84 171.096 360.776 171.16L359.816 171.928L360.968 172.024C361.416 172.024 361.736 172.056 361.928 172.12C362.184 172.12 362.44 172.184 362.696 172.312C363.976 172.888 364.808 173.944 365.192 175.48C365.448 177.144 365.096 179.224 364.136 181.72C363.048 184.728 361.032 187.672 358.088 190.552C354.76 193.88 351.624 196.088 348.68 197.176C348.104 197.432 347.496 197.592 346.856 197.656C346.216 197.656 345.672 197.56 345.224 197.368C343.944 196.792 343.304 195.928 343.304 194.776C343.304 194.456 343.368 194.168 343.496 193.912C343.56 193.656 343.72 193.4 343.976 193.144C344.616 192.376 345.256 192.152 345.896 192.472C346.024 192.536 346.12 192.6 346.184 192.664C346.312 192.664 346.44 192.632 346.568 192.568C346.76 192.504 347.016 192.44 347.336 192.376C351.368 191.48 354.92 189.464 357.992 186.328C359.72 184.664 361.032 182.84 361.928 180.856C363.528 177.656 363.752 175.48 362.6 174.328C361.064 173.048 358.76 173.528 355.688 175.768C353.768 177.304 351.848 179.288 349.928 181.72C348.008 184.152 346.696 186.328 345.992 188.248L345.8 188.92L345.992 189.304C346.376 189.816 346.344 190.424 345.896 191.128C345.64 191.704 345.192 192.024 344.552 192.088C343.912 192.152 343.272 191.832 342.632 191.128C341.992 190.424 341.576 189.496 341.384 188.344C341.192 187.512 341.128 186.456 341.192 185.176C341.256 183.896 341.448 182.648 341.768 181.432C341.768 181.304 341.8 181.112 341.864 180.856C341.928 180.536 341.992 180.216 342.056 179.896C342.12 179.704 342.184 179.512 342.248 179.32C342.376 178.936 342.472 178.616 342.536 178.36C342.6 178.04 342.632 177.88 342.632 177.88C342.632 177.88 342.664 177.816 342.728 177.688C342.792 177.496 342.888 177.272 343.016 177.016C343.08 176.76 343.144 176.568 343.208 176.44C343.272 176.248 343.304 176.152 343.304 176.152L343.88 174.712C345.48 170.552 347.752 165.976 350.696 160.984C353.704 155.928 356.744 151.544 359.816 147.832C362.76 144.184 365.864 141.016 369.128 138.328C372.392 135.64 375.304 133.816 377.864 132.856C378.248 132.664 378.536 132.568 378.728 132.568C378.984 132.504 379.336 132.472 379.784 132.472C380.168 132.472 380.424 132.472 380.552 132.472C380.744 132.472 380.904 132.504 381.032 132.568C381.16 132.632 381.288 132.696 381.416 132.76C382.056 133.08 382.536 133.624 382.856 134.392ZM353.192 175.288L353.672 174.904L352.712 175.096C351.752 175.352 350.76 175.544 349.736 175.672C348.712 175.736 348.008 175.736 347.624 175.672C347.56 175.608 347.496 175.576 347.432 175.576C347.432 175.576 347.432 175.64 347.432 175.768C347.432 175.832 347.4 175.896 347.336 175.96C347.272 176.088 347.208 176.184 347.144 176.248C347.016 176.376 346.76 177.016 346.376 178.168C345.736 180.536 345.32 182.84 345.128 185.08L345.032 185.848L345.608 184.696C345.864 184.184 346.248 183.576 346.76 182.872C346.952 182.488 347.144 182.136 347.336 181.816C349.064 179.32 351.016 177.144 353.192 175.288ZM380.744 140.344H380.648C381.416 137.272 381.384 135.384 380.552 134.68C379.08 133.592 375.88 135 370.952 138.904C370.184 139.544 369.16 140.504 367.88 141.784C366.6 143.064 365.544 144.184 364.712 145.144C359.016 151.544 354.184 159.032 350.216 167.608C349.96 168.248 349.64 169.016 349.256 169.912C348.936 170.744 348.648 171.512 348.392 172.216C348.136 172.856 348.008 173.176 348.008 173.176C348.008 173.176 348.072 173.208 348.2 173.272C348.328 173.272 348.488 173.304 348.68 173.368C349 173.496 349.448 173.56 350.024 173.56C350.6 173.496 351.176 173.4 351.752 173.272C356.552 172.12 361.896 168.312 367.784 161.848C374.824 153.848 379.144 146.68 380.744 140.344Z" fill="#333333"/>
<path d="M410.637 176.632H410.733C411.181 176.44 411.565 176.472 411.885 176.728C412.269 176.92 412.461 177.272 412.461 177.784C412.461 178.232 412.173 178.616 411.597 178.936C411.277 179.128 410.925 179.288 410.541 179.416C407.021 180.888 404.269 182.008 402.285 182.776C400.365 183.544 398.893 184.088 397.869 184.408C396.909 184.728 396.077 184.952 395.373 185.08C393.197 185.464 391.597 185.08 390.573 183.928C389.613 182.84 389.325 181.304 389.709 179.32C389.837 178.68 389.997 177.944 390.189 177.112C390.445 176.28 390.733 175.544 391.053 174.904C391.117 174.712 391.149 174.552 391.149 174.424C391.213 174.296 391.245 174.232 391.245 174.232C391.245 174.232 391.117 174.328 390.861 174.52C390.669 174.712 390.413 174.936 390.093 175.192L388.941 176.248V177.016C388.557 179.576 387.725 180.856 386.445 180.856C386.189 180.856 385.933 180.76 385.677 180.568C385.421 180.376 385.229 180.12 385.101 179.8C385.101 179.736 385.069 179.704 385.005 179.704C385.005 179.64 384.973 179.64 384.909 179.704C384.845 179.768 384.717 179.864 384.525 179.992C384.333 180.12 384.077 180.312 383.757 180.568C383.437 180.824 383.021 181.144 382.509 181.528C380.461 183.128 378.797 184.408 377.517 185.368C376.237 186.328 375.053 187.096 373.965 187.672C370.189 189.784 367.757 189.624 366.669 187.192C366.285 186.232 366.221 185.08 366.477 183.736C367.565 179.448 370.829 175.192 376.269 170.968C380.493 167.832 383.853 167.224 386.349 169.144C387.117 169.72 387.661 170.52 387.981 171.544C388.109 171.864 388.205 172.152 388.269 172.408C388.397 172.6 388.493 172.696 388.557 172.696C388.685 172.696 389.037 172.472 389.613 172.024C390.189 171.512 390.829 170.936 391.533 170.296C392.237 169.592 392.909 168.952 393.549 168.376C394.189 167.8 394.605 167.384 394.797 167.128C395.437 166.296 396.077 165.88 396.717 165.88C397.677 165.88 398.157 166.52 398.157 167.8C398.093 168.056 397.965 168.344 397.773 168.664C397.645 168.92 397.453 169.272 397.197 169.72C396.685 170.616 396.109 171.704 395.469 172.984C394.829 174.264 394.317 175.384 393.933 176.344C393.613 177.112 393.325 177.976 393.069 178.936C392.813 179.832 392.621 180.536 392.493 181.048C392.429 182.264 393.453 182.648 395.565 182.2C396.653 182.008 398.125 181.592 399.981 180.952C401.837 180.248 404.557 179.128 408.141 177.592C409.037 177.336 409.869 177.016 410.637 176.632ZM383.085 177.304L383.181 177.4C383.757 176.952 384.205 176.6 384.525 176.344C384.845 176.088 385.069 175.896 385.197 175.768C385.325 175.576 385.389 175.448 385.389 175.384C385.453 175.256 385.485 175.16 385.485 175.096C385.485 174.904 385.453 174.744 385.389 174.616C385.389 174.488 385.261 174.328 385.005 174.136C383.661 173.112 381.581 173.56 378.765 175.48C377.869 176.12 376.781 177.08 375.501 178.36C374.285 179.64 373.293 180.76 372.525 181.72C372.013 182.488 371.501 183.256 370.989 184.024C370.541 184.792 370.317 185.272 370.317 185.464C370.317 185.656 370.989 185.432 372.333 184.792C374.317 183.832 377.901 181.336 383.085 177.304Z" fill="#333333"/>
<path d="M410.572 180.376C410.316 181.144 410.028 181.976 409.708 182.872C408.94 185.112 408.204 186.424 407.5 186.808C406.924 187.128 406.444 187.128 406.06 186.808C405.676 186.488 405.516 186.008 405.58 185.368C405.644 184.856 405.9 184.056 406.348 182.968C406.732 181.816 407.212 180.568 407.788 179.224C408.364 177.944 408.876 176.632 409.324 175.288C409.772 173.944 410.156 172.792 410.476 171.832C410.604 171.448 410.7 171.128 410.764 170.872C410.764 170.744 410.796 170.68 410.86 170.68V170.488L411.244 169.336C411.692 168.12 412.204 167.352 412.78 167.032C413.74 166.52 414.604 166.744 415.372 167.704C415.5 167.96 415.564 168.376 415.564 168.952C415.628 169.464 415.596 169.88 415.468 170.2C415.34 170.328 415.18 170.584 414.988 170.968C414.796 171.352 414.604 171.8 414.412 172.312C414.092 172.824 413.676 173.624 413.164 174.712C412.652 175.736 412.14 176.792 411.628 177.88L411.244 178.84C411.564 179.224 412.396 179.256 413.74 178.936C414.444 178.68 415.468 178.2 416.812 177.496C418.22 176.728 419.66 175.928 421.132 175.096C422.668 174.2 424.46 173.208 426.508 172.12C427.276 171.096 427.82 169.976 428.14 168.76C428.588 168.12 429.228 167.928 430.06 168.184C430.188 168.248 430.284 168.344 430.348 168.472C430.668 168.792 430.348 169.816 429.388 171.544C428.492 173.208 427.628 174.648 426.796 175.864C426.028 177.208 425.292 178.68 424.588 180.28C423.948 181.88 423.532 183.128 423.34 184.024C423.34 184.28 423.34 184.472 423.34 184.6C423.404 184.728 423.468 184.856 423.532 184.984C423.724 185.24 423.98 185.368 424.3 185.368C424.684 185.368 425.196 185.24 425.836 184.984C428.076 184.216 433.196 180.92 441.196 175.096C442.412 174.136 443.276 173.432 443.788 172.984V174.04C443.276 174.488 442.508 175.064 441.484 175.768C436.876 179.416 433.42 182.008 431.116 183.544C428.812 185.08 426.988 186.04 425.644 186.424C423.724 187.064 422.38 186.68 421.612 185.272C421.42 184.824 421.324 184.28 421.324 183.64C421.324 182.936 421.42 182.232 421.612 181.528C421.868 180.824 422.252 179.96 422.764 178.936C423.34 177.912 423.916 176.92 424.492 175.96C424.812 175.512 425.068 175.16 425.26 174.904C425.516 174.584 425.612 174.424 425.548 174.424C425.356 174.424 423.884 175.192 421.132 176.728C417.804 178.648 415.308 179.832 413.644 180.28C412.364 180.664 411.34 180.696 410.572 180.376Z" fill="#333333"/>
<path d="M468.044 179.128L468.14 179.32C468.332 179.192 468.524 179.064 468.716 178.936C469.932 177.976 470.796 177.272 471.308 176.824C471.308 177.08 471.308 177.272 471.308 177.4C471.308 177.528 471.308 177.688 471.308 177.88C470.796 178.328 470.028 178.904 469.004 179.608C464.396 183.256 460.94 185.848 458.636 187.384C456.332 188.92 454.508 189.88 453.164 190.264C451.244 190.904 449.9 190.52 449.132 189.112C448.94 188.664 448.844 188.12 448.844 187.48C448.844 186.776 448.94 186.072 449.132 185.368C449.388 184.664 449.772 183.8 450.284 182.776C450.86 181.752 451.436 180.76 452.012 179.8C452.332 179.352 452.588 179 452.78 178.744C453.036 178.424 453.132 178.264 453.068 178.264C452.876 178.264 451.404 179.032 448.652 180.568C445.324 182.488 442.828 183.704 441.164 184.216C439.5 184.664 438.316 184.568 437.612 183.928C436.78 183.16 436.524 181.944 436.844 180.28C436.908 180.088 437.036 179.704 437.228 179.128C437.42 178.552 437.644 177.976 437.9 177.4C438.22 176.76 438.476 176.152 438.668 175.576C438.86 174.936 439.02 174.456 439.148 174.136C439.724 172.408 440.524 171.544 441.548 171.544C442.636 171.544 443.18 172.248 443.18 173.656C443.18 173.848 443.148 174.072 443.084 174.328C443.02 174.52 442.828 174.776 442.508 175.096C442.252 175.416 441.868 175.896 441.356 176.536C440.972 176.984 440.556 177.592 440.108 178.36C439.724 179.128 439.372 179.896 439.052 180.664C438.732 181.368 438.572 181.88 438.572 182.2C438.572 183.032 439.468 183.224 441.26 182.776C441.964 182.52 442.988 182.04 444.332 181.336C445.74 180.568 447.18 179.768 448.652 178.936C450.188 178.04 451.5 177.304 452.588 176.728C453.74 176.152 454.476 175.8 454.796 175.672C454.988 175.608 455.148 175.608 455.276 175.672C455.404 175.672 455.5 175.736 455.564 175.864C455.884 176.184 455.948 176.6 455.756 177.112C455.628 177.624 455.148 178.488 454.316 179.704C453.548 181.048 452.812 182.52 452.108 184.12C451.468 185.72 451.052 186.968 450.86 187.864C450.86 188.12 450.86 188.312 450.86 188.44C450.924 188.568 450.988 188.696 451.052 188.824C451.244 189.08 451.5 189.208 451.82 189.208C452.204 189.208 452.716 189.08 453.356 188.824C455.596 188.056 460.492 184.824 468.044 179.128Z" fill="#333333"/>
<path d="M499.269 177.688L499.173 177.496C499.365 177.624 499.461 177.816 499.461 178.072C499.525 178.264 499.429 178.52 499.173 178.84L497.349 179.992C491.973 183.256 488.037 185.56 485.541 186.904C483.109 188.248 481.029 189.24 479.301 189.88C473.413 191.992 469.285 191.896 466.917 189.592C466.597 189.208 466.277 188.728 465.957 188.152C465.637 187.576 465.413 187.064 465.285 186.616C465.221 186.488 465.189 186.392 465.189 186.328C465.125 186.2 465.093 186.136 465.093 186.136C465.093 186.136 465.093 186.008 465.093 185.752C465.093 185.432 465.093 185.112 465.093 184.792C465.093 184.408 465.093 184.088 465.093 183.832C465.093 183.576 465.093 183.416 465.093 183.352C465.093 183.352 465.125 183.288 465.189 183.16C465.317 182.904 465.413 182.552 465.477 182.104C466.117 180.312 467.397 178.52 469.317 176.728C471.749 174.552 473.893 174.104 475.749 175.384C477.029 176.344 477.285 177.624 476.517 179.224C475.557 180.952 473.989 182.36 471.813 183.448C471.365 183.704 470.981 183.864 470.661 183.928C470.405 183.928 470.085 183.928 469.701 183.928C469.445 183.992 469.253 184.024 469.125 184.024C468.997 184.024 468.901 183.992 468.837 183.928C468.709 183.864 468.581 183.8 468.453 183.736C468.197 183.48 468.005 183.416 467.877 183.544C467.749 183.608 467.621 183.96 467.493 184.6C467.429 184.92 467.397 185.176 467.397 185.368C467.333 185.56 467.333 185.752 467.397 185.944C467.397 186.136 467.429 186.36 467.493 186.616C467.941 188.536 469.637 189.496 472.581 189.496C476.613 189.496 482.277 187.352 489.573 183.064C490.341 182.616 491.205 182.104 492.165 181.528C493.381 180.888 494.405 180.312 495.237 179.8C495.429 179.672 495.621 179.544 495.813 179.416C497.605 178.456 498.757 177.88 499.269 177.688ZM469.413 180.664L468.933 181.24L469.701 181.144C470.277 181.016 470.821 180.856 471.333 180.664C471.845 180.408 472.357 180.088 472.869 179.704C473.381 179.256 473.765 178.872 474.021 178.552C474.469 177.976 474.277 177.752 473.445 177.88C472.869 178.008 472.197 178.328 471.429 178.84C470.661 179.352 469.989 179.96 469.413 180.664Z" fill="#333333"/>
<path d="M279 49.6303C279 56.8847 277.363 64.2275 274.089 71.6588C270.903 79.0016 266.346 85.6366 260.418 91.564C254.489 97.4913 247.277 102.313 238.783 106.028C230.376 109.744 220.952 111.602 210.511 111.602C207.856 119.829 204.804 127.349 201.353 134.161C197.99 140.885 194.362 147.077 190.469 152.739C186.664 158.313 182.682 163.355 178.523 167.867C174.364 172.379 170.205 176.581 166.046 180.474C161.976 184.278 157.95 187.861 153.968 191.223C150.074 194.496 146.402 197.637 142.951 200.645C144.986 203.564 146.49 206.705 147.464 210.066C148.437 213.34 148.924 216.701 148.924 220.152C148.924 226.344 147.774 232.095 145.473 237.403C143.172 242.799 140.031 247.709 136.049 252.133C132.156 256.556 127.598 260.493 122.378 263.943C117.245 267.482 111.759 270.401 105.919 272.701C100.079 275.09 94.1061 276.904 88.0005 278.142C81.9833 279.381 76.1432 280 70.48 280C61.8968 280 53.402 278.585 44.9957 275.754C36.5894 272.923 29.0238 268.897 22.2988 263.678C15.6622 258.458 10.2645 252.088 6.10561 244.569C2.0352 237.137 0 228.777 0 219.488C0 213.207 1.28306 207.103 3.84919 201.175C6.50381 195.16 9.99905 189.409 14.3349 183.924C18.6708 178.439 23.6261 173.308 29.2008 168.531C34.7754 163.754 40.5271 159.374 46.4557 155.393C52.4729 151.412 58.4458 147.918 64.3744 144.91C70.303 141.814 75.745 139.336 80.7003 137.479C89.0181 126.951 97.3801 118.06 105.786 110.806C114.193 103.551 122.333 97.7125 130.209 93.2891C138.084 88.7772 145.473 85.5482 152.375 83.6019C159.365 81.5671 165.559 80.5498 170.957 80.5498C177.859 76.6572 184.142 74.7109 189.805 74.7109C193.167 74.7109 196.176 75.3744 198.831 76.7014C201.574 77.94 203.874 79.7535 205.733 82.1422C207.679 84.4423 209.139 87.2291 210.113 90.5024C211.175 93.7757 211.706 97.3586 211.706 101.251C211.706 102.49 211.617 103.773 211.44 105.1C211.352 106.338 211.219 107.621 211.042 108.948C216.528 108.948 221.926 108.152 227.235 106.559C232.633 104.967 237.765 102.799 242.632 100.057C247.499 97.2259 252.011 93.9084 256.17 90.1043C260.329 86.2117 263.913 82.0095 266.921 77.4976C269.93 72.8973 272.275 68.12 273.956 63.1659C275.726 58.1232 276.611 52.9921 276.611 47.7725C276.611 41.2259 275.239 35.2101 272.496 29.7251C269.753 24.1517 266.037 19.3744 261.347 15.3934C256.745 11.3238 251.436 8.18324 245.419 5.97156C239.402 3.6714 233.164 2.52132 226.704 2.52132C221.129 2.52132 215.422 3.36176 209.582 5.04265C203.742 6.72353 198.388 9.20062 193.521 12.4739C188.655 15.7472 184.673 19.8167 181.576 24.6825C178.479 29.4597 176.93 34.9889 176.93 41.2701C176.93 44.9858 177.505 48.5687 178.656 52.0189C179.894 55.4692 181.664 58.5656 183.965 61.3081C186.354 64.0505 189.23 66.2622 192.592 67.9431C195.955 69.5355 199.804 70.3317 204.14 70.3317C206.175 70.3317 208.254 70.1548 210.378 69.8009C212.59 69.4471 214.891 68.8278 217.28 67.9431C211.263 70.1548 205.821 71.2607 200.954 71.2607C196.353 71.2607 192.283 70.4202 188.743 68.7393C185.292 67.0584 182.372 64.8468 179.983 62.1043C177.594 59.3618 175.78 56.2212 174.541 52.6825C173.391 49.0553 172.815 45.3839 172.815 41.6682C172.815 37.3333 173.612 33.2638 175.205 29.4597C176.797 25.6556 178.921 22.2496 181.576 19.2417C184.23 16.1453 187.283 13.4028 190.734 11.0142C194.274 8.62559 197.902 6.63507 201.618 5.04265C205.423 3.36176 209.184 2.12322 212.9 1.32701C216.705 0.442337 220.245 0 223.519 0C231.748 0 239.269 1.19431 246.083 3.58293C252.896 5.88309 258.736 9.20063 263.603 13.5355C268.47 17.8705 272.231 23.09 274.885 29.1943C277.628 35.2986 279 42.1106 279 49.6303ZM177.461 87.5829C177.461 85.8136 176.93 84.4423 175.868 83.4692C174.895 82.496 173.745 82.0095 172.417 82.0095C171.709 82.0095 171.046 82.1422 170.426 82.4076C164.144 85.7693 157.109 90.812 149.322 97.5355C141.624 104.259 133.394 113.062 124.634 123.943C130.297 121.908 135.341 119.918 139.765 117.972C144.19 116.025 148.127 114.123 151.578 112.265C155.118 110.408 158.259 108.594 161.002 106.825C163.745 104.967 166.267 103.109 168.568 101.251C171.931 98.5971 174.231 96.12 175.47 93.8199C176.797 91.4313 177.461 89.3523 177.461 87.5829ZM207.591 96.6066C207.591 90.237 205.998 85.2828 202.813 81.7441C199.627 78.2054 195.291 76.436 189.805 76.436C184.938 76.436 179.629 77.8073 173.877 80.5498C175.735 81.169 177.107 82.1422 177.992 83.4692C178.877 84.7077 179.319 86.1675 179.319 87.8483C179.319 90.1485 178.567 92.7141 177.063 95.545C175.559 98.2875 173.214 100.853 170.028 103.242C165.781 106.427 161.755 109.169 157.95 111.469C154.233 113.769 150.472 115.848 146.667 117.706C142.863 119.564 138.969 121.245 134.987 122.749C131.094 124.253 126.846 125.801 122.245 127.393C120.387 129.782 118.617 132.348 116.936 135.09C115.343 137.744 113.927 140.487 112.688 143.318C111.538 146.06 110.609 148.803 109.901 151.545C109.282 154.288 108.972 156.853 108.972 159.242C108.972 162.957 109.99 166.054 112.025 168.531C114.06 170.919 117.467 172.114 122.245 172.114C128.351 172.114 134.102 170.964 139.5 168.663C144.898 166.363 149.853 163.355 154.366 159.64C158.967 155.836 163.082 151.545 166.71 146.768C170.338 141.902 173.479 136.948 176.134 131.905C178.877 126.863 181.089 121.908 182.77 117.043C184.54 112.088 185.735 107.621 186.354 103.64C185.381 102.047 184.717 100.676 184.363 99.5261C184.009 98.2875 183.832 97.3144 183.832 96.6066C183.832 95.2796 184.23 94.6161 185.027 94.6161C185.735 94.6161 186.442 95.2354 187.15 96.4739C187.947 97.624 188.345 99.3934 188.345 101.782C190.734 104.171 193.167 105.94 195.645 107.09C198.211 108.152 201.574 108.771 205.733 108.948C206.971 104.259 207.591 100.145 207.591 96.6066ZM166.046 82.4076C161.976 82.4076 156.888 83.5577 150.782 85.8578C144.676 88.0695 138.217 91.387 131.403 95.8104C124.59 100.145 117.688 105.542 110.697 112C103.707 118.458 97.2474 125.845 91.3187 134.161L117.865 125.403C121.935 120.095 125.917 115.318 129.811 111.071C133.793 106.736 137.73 102.844 141.624 99.3934C145.517 95.9431 149.455 92.8467 153.437 90.1043C157.507 87.2733 161.71 84.7077 166.046 82.4076ZM205.202 110.938C201.839 110.938 198.831 110.319 196.176 109.081C193.521 107.842 190.734 105.896 187.814 103.242C186.929 108.461 185.558 113.858 183.699 119.431C181.841 124.916 179.496 130.269 176.665 135.488C173.833 140.708 170.559 145.662 166.843 150.351C163.126 155.039 159.011 159.153 154.499 162.692C149.986 166.231 145.075 169.017 139.765 171.052C134.456 173.087 128.793 174.104 122.776 174.104C116.759 174.104 112.246 172.468 109.237 169.194C106.229 165.921 104.725 161.63 104.725 156.322C104.725 152.341 105.609 148.006 107.379 143.318C109.237 138.54 112.069 133.719 115.874 128.853L89.9914 136.55C86.9829 140.265 84.1955 144.291 81.6294 148.626C79.0633 152.872 76.8068 157.251 74.8601 161.763C72.9134 166.275 71.3206 170.875 70.0818 175.564C68.843 180.164 68.0466 184.676 67.6927 189.1C73.0019 186.445 78.2226 184.543 83.3549 183.393C88.4872 182.243 93.4867 181.668 98.3535 181.668C103.132 181.668 107.645 182.155 111.892 183.128C116.228 184.013 120.21 185.251 123.838 186.844C127.466 188.348 130.696 190.073 133.527 192.019C136.359 193.965 138.704 195.912 140.562 197.858C148.26 191.577 155.56 184.676 162.462 177.156C169.364 169.637 175.647 162.028 181.31 154.332C186.973 146.635 191.84 139.071 195.911 131.64C200.069 124.12 203.167 117.22 205.202 110.938ZM138.173 199.716C136.668 197.858 134.5 196.133 131.669 194.54C128.837 192.859 125.563 191.4 121.847 190.161C118.219 188.923 114.281 187.949 110.034 187.242C105.786 186.445 101.451 186.047 97.0262 186.047C91.8939 186.047 86.8501 186.622 81.8949 187.773C76.9396 188.923 72.3382 190.825 68.0909 193.479C68.0909 196.575 68.8872 199.362 70.48 201.839C72.0728 204.227 74.2407 206.262 76.9838 207.943C79.7269 209.624 82.9125 210.907 86.5404 211.791C90.2569 212.676 94.2388 213.118 98.4862 213.118C104.946 213.118 111.671 212.057 118.661 209.934C125.652 207.81 132.156 204.404 138.173 199.716ZM145.606 218.692C145.606 212.411 143.747 206.881 140.031 202.104C132.863 206.881 125.608 210.332 118.263 212.455C110.919 214.578 103.928 215.64 97.2916 215.64C92.7788 215.64 88.5314 215.197 84.5495 214.313C80.5676 213.428 76.9838 212.19 73.7983 210.597C70.6127 208.916 67.9139 206.926 65.7017 204.626C63.578 202.237 62.118 199.627 61.3216 196.796C56.5433 199.893 53.2693 203.21 51.4995 206.749C49.7298 210.287 48.8449 213.694 48.8449 216.967C48.8449 218.559 49.0219 220.107 49.3758 221.611C49.7298 223.115 50.1722 224.487 50.7031 225.725C48.8449 222.806 47.9158 219.577 47.9158 216.038C47.9158 211.703 49.1104 207.501 51.4995 203.431C53.9772 199.273 56.9415 195.956 60.3925 193.479C60.304 192.859 60.2597 192.284 60.2597 191.754C60.2597 191.134 60.2597 190.515 60.2597 189.896C60.2597 182.464 61.7198 174.768 64.6399 166.806C67.5599 158.844 72.2498 150.041 78.7093 140.398C73.0461 142.521 67.206 145.264 61.1889 148.626C55.2602 151.987 49.5086 155.791 43.9339 160.038C38.3592 164.284 33.0942 168.84 28.1389 173.706C23.1836 178.572 18.8478 183.57 15.1313 188.701C11.4148 193.833 8.45052 199.052 6.23834 204.36C4.11465 209.668 3.05281 214.799 3.05281 219.754C3.05281 228.6 4.86679 236.607 8.49477 243.773C12.2112 250.938 17.1223 257.043 23.2279 262.085C29.3335 267.128 36.3682 271.021 44.3321 273.763C52.3844 276.506 60.7907 277.877 69.5509 277.877C74.2407 277.877 79.373 277.302 84.9477 276.152C90.5223 275.09 96.097 273.453 101.672 271.242C107.335 269.03 112.777 266.287 117.998 263.014C123.307 259.741 127.997 255.893 132.067 251.469C136.137 247.134 139.412 242.224 141.889 236.739C144.367 231.254 145.606 225.239 145.606 218.692Z" fill="#333333"/>
</svg>
