<svg width="207" height="1537" viewBox="0 0 207 1537" fill="none" xmlns="http://www.w3.org/2000/svg">
<path fill-rule="evenodd" clip-rule="evenodd" d="M-308.675 44.6626C-308.586 44.6908 -308.505 44.7326 -308.431 44.7862C-308.358 44.8397 -308.292 44.9031 -308.234 44.9764C-308.176 45.0509 -308.126 45.1311 -308.085 45.2147C-308.043 45.2981 -308.01 45.3844 -307.987 45.4722C-307.962 45.5609 -307.947 45.6468 -307.941 45.7289C-307.932 45.8448 -307.937 45.9571 -307.954 46.0654C-307.97 46.1745 -307.998 46.2793 -308.036 46.3797C-308.074 46.4799 -308.121 46.5769 -308.178 46.6684C-308.235 46.7606 -308.299 46.8487 -308.37 46.931C-308.442 47.0142 -308.52 47.092 -308.604 47.1642C-308.688 47.2366 -308.777 47.304 -308.87 47.3651C-308.837 47.3517 -308.796 47.3395 -308.749 47.3297C-308.702 47.3208 -308.65 47.3118 -308.594 47.3038C-308.539 47.2966 -308.481 47.2903 -308.421 47.2843C-308.361 47.2783 -308.301 47.2728 -308.243 47.267C-308.185 47.2612 -308.131 47.2543 -308.078 47.2473C-308.026 47.2412 -307.98 47.2342 -307.941 47.2266C-308.118 47.3231 -308.287 47.4339 -308.447 47.5591C-308.608 47.6841 -308.757 47.8224 -308.893 47.9732C-309.03 48.125 -309.155 48.2906 -309.264 48.4679C-309.374 48.6459 -309.467 48.8366 -309.543 49.0381C-309.565 49.0964 -309.587 49.1606 -309.606 49.2282C-309.626 49.2955 -309.641 49.3662 -309.654 49.4385C-309.668 49.5115 -309.677 49.5854 -309.683 49.6602C-309.688 49.7354 -309.688 49.8108 -309.683 49.8845C-309.678 49.9502 -309.668 50.0148 -309.653 50.0766C-309.637 50.1388 -309.613 50.1974 -309.584 50.2531C-309.554 50.3091 -309.518 50.3622 -309.473 50.41C-309.428 50.4587 -309.374 50.5024 -309.31 50.5395C-309.305 50.5084 -309.294 50.4663 -309.277 50.4155C-309.261 50.3648 -309.239 50.3103 -309.212 50.2526C-309.185 50.195 -309.153 50.1353 -309.115 50.0753C-309.078 50.016 -309.034 49.9607 -308.986 49.9116C-308.939 49.8629 -308.887 49.8219 -308.831 49.7888C-308.775 49.7563 -308.714 49.737 -308.65 49.7323C-308.609 49.7294 -308.57 49.7344 -308.533 49.7442C-308.495 49.754 -308.461 49.7699 -308.431 49.792C-308.401 49.8149 -308.376 49.8443 -308.356 49.8796C-308.337 49.9159 -308.325 49.9587 -308.322 50.007C-308.318 50.0615 -308.321 50.1155 -308.334 50.1673C-308.347 50.2198 -308.367 50.2696 -308.392 50.3161C-308.419 50.3638 -308.451 50.4082 -308.489 50.448C-308.527 50.4877 -308.568 50.5237 -308.614 50.5538C-308.661 50.5838 -308.71 50.6078 -308.762 50.6265C-308.815 50.6452 -308.87 50.6574 -308.926 50.6615C-308.982 50.6656 -309.042 50.6616 -309.103 50.651C-309.163 50.6405 -309.225 50.6217 -309.288 50.5935C-309.3 50.6525 -309.308 50.7088 -309.311 50.7625C-309.315 50.8168 -309.315 50.8691 -309.311 50.919C-309.307 50.9769 -309.297 51.0353 -309.281 51.0924C-309.266 51.1494 -309.245 51.2044 -309.219 51.256C-309.194 51.3074 -309.163 51.355 -309.128 51.3978C-309.093 51.4417 -309.052 51.48 -309.008 51.5107C-308.964 51.542 -308.916 51.5637 -308.864 51.5787C-308.812 51.5946 -308.757 51.6019 -308.699 51.5977C-308.658 51.5947 -308.616 51.5859 -308.576 51.572C-308.537 51.5581 -308.499 51.538 -308.463 51.5119C-308.427 51.4865 -308.394 51.4533 -308.361 51.4149C-308.329 51.3764 -308.3 51.3315 -308.275 51.2802L-308.269 51.2848C-308.292 51.3337 -308.318 51.3789 -308.349 51.4182C-308.381 51.4576 -308.416 51.4916 -308.453 51.5195C-308.489 51.5471 -308.527 51.5684 -308.568 51.5839C-308.608 51.6003 -308.651 51.6093 -308.694 51.6125C-308.767 51.6177 -308.839 51.6069 -308.911 51.58C-308.983 51.5538 -309.049 51.5113 -309.108 51.4526C-309.168 51.3941 -309.218 51.3204 -309.258 51.2306C-309.299 51.1407 -309.323 51.0345 -309.332 50.913C-309.336 50.8623 -309.336 50.8092 -309.333 50.754C-309.331 50.6988 -309.325 50.6392 -309.316 50.5771C-309.382 50.5403 -309.44 50.4958 -309.488 50.4459C-309.536 50.3968 -309.577 50.3428 -309.609 50.2838C-309.641 50.2248 -309.666 50.1617 -309.684 50.0946C-309.701 50.0282 -309.712 49.9587 -309.717 49.8868C-309.722 49.8178 -309.723 49.746 -309.718 49.674C-309.713 49.6023 -309.704 49.5301 -309.691 49.4578C-309.679 49.3853 -309.661 49.3135 -309.641 49.242C-309.621 49.1715 -309.6 49.1024 -309.575 49.0362C-309.5 48.8354 -309.412 48.6508 -309.315 48.4838C-309.219 48.3168 -309.111 48.1638 -308.992 48.0251C-308.874 47.8866 -308.746 47.7594 -308.606 47.6452C-308.467 47.5318 -308.316 47.428 -308.155 47.3335C-308.251 47.3405 -308.347 47.3481 -308.441 47.3558C-308.534 47.3642 -308.625 47.3744 -308.709 47.3869C-308.793 47.4001 -308.87 47.4158 -308.939 47.435C-309.008 47.455 -309.067 47.4811 -309.114 47.5112C-309.097 47.4983 -309.083 47.4864 -309.071 47.4754C-309.059 47.4645 -309.049 47.4534 -309.04 47.4434C-309.031 47.4342 -309.023 47.4249 -309.016 47.4159C-309.01 47.4069 -309.004 47.3968 -308.998 47.3863C-308.979 47.3502 -308.966 47.3153 -308.958 47.2833C-308.951 47.2514 -308.948 47.221 -308.95 47.1936C-308.953 47.1485 -308.969 47.1082 -308.993 47.0717C-309.019 47.035 -309.05 47.0001 -309.088 46.969C-309.126 46.939 -309.169 46.9106 -309.216 46.8851C-309.264 46.8595 -309.313 46.8348 -309.361 46.81C-309.41 46.7861 -309.457 46.7612 -309.501 46.7369C-309.546 46.7135 -309.585 46.6878 -309.618 46.6619C-309.687 46.6079 -309.75 46.5472 -309.806 46.4789C-309.862 46.4108 -309.91 46.3376 -309.951 46.2613C-309.993 46.1849 -310.027 46.106 -310.052 46.0244C-310.078 45.9428 -310.094 45.8609 -310.1 45.7802C-310.105 45.7101 -310.1 45.6415 -310.086 45.5747C-310.072 45.5075 -310.048 45.4457 -310.014 45.392C-309.98 45.3394 -309.935 45.2964 -309.88 45.2618C-309.825 45.228 -309.76 45.2079 -309.683 45.2022C-309.646 45.1995 -309.608 45.2004 -309.569 45.2054C-309.555 45.1366 -309.53 45.0687 -309.494 45.0023C-309.458 44.9359 -309.415 44.875 -309.362 44.8215C-309.309 44.769 -309.248 44.7257 -309.18 44.6916C-309.112 44.6569 -309.04 44.6364 -308.963 44.6308C-308.86 44.6232 -308.764 44.6336 -308.675 44.6626ZM-308.638 49.7611C-308.697 49.7655 -308.753 49.7821 -308.804 49.8109C-308.857 49.8399 -308.905 49.8762 -308.949 49.9203C-308.994 49.9653 -309.035 50.0156 -309.072 50.071C-309.109 50.1263 -309.141 50.1833 -309.168 50.2403C-309.196 50.2974 -309.221 50.3524 -309.239 50.4056C-309.259 50.4598 -309.273 50.5084 -309.283 50.55C-309.227 50.5788 -309.171 50.5979 -309.115 50.608C-309.06 50.6181 -309.004 50.6216 -308.95 50.6177C-308.861 50.6064 -308.779 50.5829 -308.703 50.5467C-308.627 50.5112 -308.561 50.4656 -308.506 50.4112C-308.451 50.357 -308.409 50.2953 -308.38 50.2259C-308.352 50.1561 -308.34 50.0811 -308.346 50.0029C-308.348 49.9654 -308.357 49.9304 -308.371 49.8992C-308.385 49.868 -308.405 49.8409 -308.43 49.8191C-308.455 49.7977 -308.484 49.7808 -308.518 49.77C-308.554 49.76 -308.594 49.7579 -308.638 49.7611ZM-308.959 44.6699C-309.038 44.6758 -309.11 44.6952 -309.175 44.7274C-309.241 44.759 -309.298 44.7995 -309.347 44.8487C-309.396 44.898 -309.438 44.9537 -309.47 45.0168C-309.503 45.0796 -309.524 45.145 -309.538 45.212C-309.479 45.2226 -309.423 45.2419 -309.371 45.2686C-309.32 45.2955 -309.271 45.3285 -309.225 45.366C-309.18 45.4043 -309.138 45.4459 -309.101 45.4925C-309.064 45.5394 -309.031 45.5895 -309.001 45.6393C-308.972 45.6898 -308.947 45.741 -308.927 45.7922C-308.907 45.844 -308.891 45.8938 -308.88 45.9416C-308.895 45.8933 -308.916 45.8432 -308.94 45.7923C-308.965 45.7424 -308.993 45.6933 -309.024 45.6447C-309.055 45.5968 -309.089 45.5499 -309.127 45.5056C-309.165 45.4613 -309.207 45.4204 -309.251 45.385C-309.295 45.3506 -309.342 45.3206 -309.391 45.2967C-309.441 45.2737 -309.493 45.2583 -309.545 45.2504C-309.55 45.2702 -309.552 45.2939 -309.553 45.3204C-309.554 45.3472 -309.553 45.3774 -309.551 45.4095C-309.546 45.4659 -309.537 45.5239 -309.521 45.5817C-309.504 45.64 -309.482 45.6957 -309.456 45.7494C-309.429 45.8038 -309.397 45.8549 -309.359 45.9015C-309.322 45.9492 -309.278 45.9904 -309.231 46.024C-309.183 46.0581 -309.132 46.0848 -309.076 46.1019C-309.02 46.1197 -308.958 46.1262 -308.893 46.1215C-308.824 46.1164 -308.762 46.0975 -308.71 46.0654C-308.657 46.034 -308.613 45.9927 -308.578 45.9421C-308.543 45.8916 -308.518 45.8336 -308.502 45.7681C-308.487 45.7026 -308.481 45.6331 -308.487 45.5605C-308.491 45.5025 -308.503 45.4457 -308.524 45.3928C-308.546 45.3402 -308.576 45.2914 -308.613 45.2468C-308.65 45.2026 -308.693 45.1635 -308.743 45.1287C-308.793 45.0948 -308.849 45.0667 -308.911 45.0461C-308.849 45.0628 -308.791 45.0872 -308.738 45.1202C-308.686 45.1534 -308.64 45.1931 -308.602 45.2382C-308.563 45.2841 -308.532 45.3349 -308.509 45.3897C-308.485 45.4454 -308.47 45.5046 -308.465 45.5665C-308.46 45.6384 -308.466 45.708 -308.481 45.7752C-308.497 45.8433 -308.523 45.9056 -308.558 45.9594C-308.594 46.0126 -308.638 46.0562 -308.692 46.0907C-308.747 46.1253 -308.811 46.1459 -308.883 46.1513C-308.954 46.1564 -309.02 46.152 -309.081 46.1362C-309.141 46.1202 -309.198 46.0952 -309.248 46.0619C-309.298 46.0294 -309.343 45.9887 -309.381 45.9421C-309.421 45.8954 -309.455 45.8437 -309.483 45.7867C-309.512 45.7306 -309.534 45.6699 -309.55 45.6058C-309.568 45.5425 -309.58 45.4773 -309.585 45.4107C-309.587 45.3817 -309.588 45.3525 -309.587 45.3249C-309.587 45.2977 -309.584 45.2705 -309.579 45.2445C-309.6 45.2422 -309.62 45.2412 -309.638 45.2403C-309.657 45.2393 -309.677 45.2385 -309.695 45.2398C-309.762 45.2447 -309.821 45.2616 -309.871 45.2903C-309.922 45.3199 -309.963 45.3591 -309.995 45.4069C-310.028 45.455 -310.052 45.5124 -310.066 45.5757C-310.08 45.6395 -310.084 45.7078 -310.079 45.7803C-310.075 45.8383 -310.064 45.8993 -310.047 45.961C-310.03 46.0231 -310.007 46.0858 -309.976 46.1484C-309.946 46.2124 -309.908 46.2768 -309.864 46.3405C-309.821 46.4042 -309.771 46.4674 -309.714 46.5286C-309.669 46.577 -309.619 46.6178 -309.564 46.6514C-309.509 46.6859 -309.454 46.7172 -309.398 46.7453C-309.341 46.7734 -309.286 46.8008 -309.232 46.8275C-309.178 46.8541 -309.13 46.8854 -309.086 46.9191C-309.044 46.9529 -309.007 46.9933 -308.978 47.0392C-308.951 47.0852 -308.935 47.1418 -308.93 47.2075C-308.928 47.245 -308.931 47.2834 -308.944 47.322C-308.958 47.3615 -308.983 47.4005 -309.017 47.4392C-308.929 47.3854 -308.84 47.3231 -308.752 47.2521C-308.665 47.1811 -308.582 47.1022 -308.503 47.0169C-308.423 46.9323 -308.349 46.8407 -308.282 46.7429C-308.214 46.6458 -308.156 46.5435 -308.109 46.4361C-308.061 46.3297 -308.027 46.2185 -308.004 46.1036C-307.98 45.9893 -307.972 45.8714 -307.981 45.7524C-307.988 45.6603 -308.003 45.5684 -308.028 45.4768C-308.053 45.3856 -308.086 45.2974 -308.127 45.2145C-308.168 45.1328 -308.216 45.056 -308.272 44.9863C-308.329 44.9166 -308.394 44.8578 -308.464 44.8086C-308.534 44.7596 -308.611 44.7225 -308.694 44.6979C-308.777 44.6725 -308.866 44.6631 -308.959 44.6699Z" fill="#333333"/>
<path fill-rule="evenodd" clip-rule="evenodd" d="M-128.491 0.362209C-111.628 -0.910337 -94.6692 1.16812 -78.7527 6.63812C-63.13 11.7319 -48.174 19.2599 -34.6222 29.2929C-21.6829 39.0077 -9.86748 50.7544 0.227324 64.4407C9.46891 76.7246 17.4612 90.5836 23.0816 106.017C30.8895 103.846 39.041 102.32 47.4395 101.702C62.2335 100.609 78.0713 101.975 92.8763 108.368C96.7178 110.073 100.491 112.021 104.158 114.238C113.019 119.586 120.446 126.055 126.478 132.997C136.863 145.127 143.548 158.109 148.102 170.537C153.846 186.285 156.597 201.211 157.636 215.448C158.965 234.281 157.98 251.973 155.052 270.342C152.408 287.635 148.089 305.631 140.738 325.536C134.9 341.673 127.055 359.099 115.78 377.845C108.427 390.048 99.5211 402.763 88.4193 415.587C85.9112 418.483 83.3413 421.326 80.7118 424.111C73.566 431.55 65.606 438.14 57.3028 444.16C48.0022 451.204 38.5395 457.984 29.0006 464.526C19.1952 471.54 9.51587 478.614 -0.00297246 485.713C-9.18341 492.559 -17.7756 500.033 -25.4784 508.172C-32.4382 515.86 -38.398 524.329 -42.8978 533.389C-47.1671 542.214 -48.8371 552.052 -48.1059 561.526C-47.6178 568.169 -45.9034 574.604 -43.5894 580.681C-40.653 588.35 -36.3737 595.298 -31.6514 601.661C-30.1527 603.74 -28.5411 605.712 -26.8065 607.542C-24.9895 609.458 -23.019 611.205 -20.9721 612.825C-18.352 614.911 -15.6731 616.877 -12.9775 618.759C-9.52468 621.163 -6.05961 623.77 -2.46719 625.76C-16.0496 619.707 -30.2294 616.899 -43.3383 615.089C-62.5426 612.707 -80.0554 612.011 -95.261 611.85C-104.43 611.846 -112.772 611.983 -120.19 612.178C-133.511 612.533 -144.691 613.06 -154.676 613.618C-177.753 615.114 -194.478 616.233 -216.497 617.803C-196.895 625.897 -172.574 636.174 -136.253 655.708C-126.801 660.831 -117.835 665.946 -109.277 671.049C-70.6551 694.228 -40.4369 717.123 -12.3678 741.584C14.3466 765.029 38.9825 790.206 64.7378 821.534C67.2464 824.594 69.9541 827.947 72.8277 831.578C93.151 856.911 121.111 896.566 147.124 944.024C154.687 957.646 161.876 972.021 168.542 986.888C175.122 1001.7 181.081 1017.04 186.257 1032.64C191.364 1048.01 195.67 1063.66 199.074 1079.26C202.47 1094.81 204.752 1110.36 205.861 1125.55C207.047 1141.66 206.74 1157.36 205.091 1172.14C203.361 1188.12 199.74 1202.95 194.981 1216.02C189.157 1232.09 181.311 1245.28 173.831 1255.51C173.227 1256.35 172.621 1257.17 172.018 1257.97C163.183 1269.75 152.376 1280.36 140.365 1289.55C144.193 1301.94 147.481 1314.59 149.902 1327.4C152.259 1338.97 153.953 1350.67 154.801 1362.33C156.624 1387.13 155.134 1411.87 148.77 1434.15C143.003 1454.56 134.26 1473.08 123.106 1487.78C114.305 1499.48 104.29 1508.87 94.2441 1515.74C90.8132 1518.1 87.3914 1520.17 84.0197 1521.99C69.5581 1529.97 56.3287 1533.58 45.6675 1535.16C40.8163 1535.86 38.2056 1536 37.6041 1536.03C37.559 1536.03 37.514 1536.04 37.4689 1536.04L37.4619 1536.04L37.4566 1536.05C37.4529 1536.05 37.4486 1536.05 37.4423 1536.06C37.4101 1536.05 37.3419 1536.05 37.2387 1536.05C37.2175 1536.06 37.1962 1536.06 37.175 1536.06C35.3806 1536.16 25.301 1537.51 9.06168 1533.75C4.1756 1532.66 -1.22908 1531.06 -6.9571 1528.71C-10.9115 1527.1 -14.7239 1525.25 -18.3861 1523.23C-27.973 1517.93 -36.5128 1511.44 -44.0848 1504.46C-52.7813 1496.25 -58.6486 1485.72 -64.7543 1476.58C-57.6603 1486.86 -49.8942 1495.9 -41.6431 1503.34C-33.2875 1510.72 -24.6438 1516.68 -16.0689 1521.02C-6.73504 1525.84 2.40111 1528.89 10.7245 1530.51C11.2507 1530.61 11.7735 1530.7 12.2931 1530.79C21.3079 1532.38 29.8992 1532.72 37.9646 1532.11C51.1553 1531.12 63.002 1527.97 73.4981 1522.93C84.4118 1517.94 94.1246 1511.35 102.761 1503.04C111.078 1495.2 118.594 1485.94 125.18 1474.81C131.08 1465.02 136.41 1453.83 140.696 1440.83C144.321 1429.82 147.236 1417.5 148.865 1403.71C148.885 1403.54 148.905 1403.37 148.925 1403.2C150.699 1389.41 150.903 1376.48 150.029 1364.51C149.118 1352.11 147.224 1340.72 144.901 1330.18C142.145 1316.99 138.483 1305.18 134.523 1294.28C121.609 1302.49 108.892 1308.65 95.953 1312.93C83.4901 1317.04 70.9175 1319.76 57.763 1320.73C54.8527 1320.94 51.9146 1321.07 48.9468 1321.1C38.1791 1321.17 29.4558 1320.17 20.6554 1318.44C10.2578 1316.28 -0.414968 1313.33 -14.2059 1307.08C-23.2207 1302.86 -33.5929 1297.12 -45.168 1288.12C-53.3153 1281.64 -61.9929 1273.38 -70.3456 1262.47C-76.8038 1253.95 -82.9192 1243.71 -87.7993 1231.53C-91.9394 1221.35 -94.911 1209.66 -95.8483 1196.75C-96.5198 1187.52 -95.9379 1177.48 -92.4711 1167.64C-89.5425 1159.93 -85.1157 1152.33 -78.8312 1145.88C-73.1248 1140.17 -66.056 1135.39 -58.0509 1132.01C-50.2488 1128.69 -41.5945 1126.59 -32.5209 1125.93C-21.4421 1125.1 -9.69381 1126.23 1.85323 1129.85C4.22954 1130.59 6.56655 1131.42 8.86122 1132.33C22.8894 1138.01 35.7138 1145.6 47.1426 1154.39C59.6007 1163.96 70.6592 1174.65 80.3468 1185.98C90.3685 1197.63 99.4965 1209.52 107.553 1221.64C114.904 1232.71 121.514 1243.89 127.03 1255.27C131.195 1263.64 135.125 1271.97 137.907 1280.58C150.022 1270.8 160.461 1259.74 168.6 1247.67C177.011 1235.67 183.5 1222.95 187.985 1210.03C192.943 1196.3 195.898 1182.44 197.217 1168.95C198.702 1154.15 198.73 1139.82 197.726 1126.15C196.457 1108.88 193.893 1092.61 190.492 1077.37C186.672 1060.25 182.108 1044.35 177.065 1029.55C171.741 1013.53 165.907 998.768 159.712 985.145C154.717 974.163 149.674 963.831 144.551 954.095C143.141 951.414 141.666 948.667 140.122 945.861C122.09 913.517 95.9391 872.239 60.658 830.266C33.1972 797.654 0.518924 764.487 -36.17 734.201C-70.6138 705.851 -108.395 679.921 -147.227 657.981C-177.577 640.709 -208.479 625.74 -238.623 613.293C-248.014 609.413 -258.025 605.484 -268.603 601.598L-268.425 600.708C-258.553 601.137 -248.258 601.098 -237.622 600.798C-225.776 600.638 -213.505 600.255 -200.875 599.673C-188.12 599.084 -174.992 598.471 -161.56 597.837C-148.953 597.242 -136.069 596.799 -122.97 596.579C-111.507 596.537 -99.8854 596.684 -88.1519 597.165C-80.3617 597.624 -72.5125 598.411 -64.7575 599.993C-85.4141 590.136 -105.79 578.93 -125.48 566.528C-146.086 553.438 -165.78 538.799 -184.11 522.963C-202.564 507.036 -219.523 489.773 -234.678 471.744C-250.547 453.052 -264.129 433.249 -275.325 413.245C-287.584 391.038 -296.665 368.505 -303.209 347.001C-311.541 320.481 -315.369 295.371 -316.963 273.699C-317.477 266.698 -317.673 260.039 -317.66 253.775C-317.625 239.921 -316.604 227.383 -315.188 215.986C-312.267 191.579 -307.215 172.453 -302.013 156.403C-294.546 133.222 -286.501 116.336 -277.072 99.6481C-267.995 84.0897 -257.297 68.6469 -239.972 51.4303C-230.336 42.0608 -218.437 32.3653 -202.971 23.38C-198.828 20.9773 -194.631 18.7494 -190.394 16.6861C-170.581 6.83222 -149.43 1.89847 -128.491 0.362209ZM36.1817 1536.12C32.1245 1536.36 28.0798 1536.33 24.0464 1536.03C30.258 1536.58 34.2775 1536.3 36.1817 1536.12ZM-34.3415 1133.2C-25.2184 1132.37 -10.1664 1133.25 3.74309 1138.69C17.1398 1143.66 29.5252 1151.19 37.3136 1156.91C37.7957 1157.26 38.2778 1157.62 38.7628 1157.98C49.9654 1166.24 61.8212 1177.42 70.3159 1186.98C74.2593 1191.37 77.5928 1195.33 80.0554 1198.33C84.515 1203.77 89.988 1210.68 96.8259 1220.76C102.332 1228.75 108.88 1238.66 116.032 1251.65C116.603 1252.69 117.147 1253.7 117.668 1254.68C128.79 1275.55 130.128 1280.55 131.716 1284.42C130.966 1284.95 130.215 1285.47 129.304 1286.08C123.839 1289.7 119.514 1292.88 109.292 1297.64C104.026 1300.01 100.442 1301.31 97.0974 1302.48C93.9114 1303.58 90.938 1304.57 86.7458 1305.75C82.4423 1306.96 75.4709 1308.54 66.844 1309.54L65.7022 1309.66C63.2482 1309.92 61.8242 1310.07 61.6983 1310.1C61.6951 1310.1 61.6919 1310.1 61.6887 1310.1L61.6758 1310.1C61.6147 1310.09 61.3156 1310.08 60.7453 1310.09C59.2258 1310.09 57.2416 1310.1 54.7231 1310.05C46.6339 1309.95 33.2045 1308.78 21.6447 1306.46C17.8233 1305.73 11.8205 1304.38 5.2603 1302.35C-8.16126 1298.56 -23.42 1291.14 -29.4074 1287.41C-34.1832 1284.57 -38.0506 1281.97 -42.0166 1279.06C-45.5698 1276.43 -49.206 1273.54 -53.4086 1269.69C-62.1182 1261.37 -62.3803 1260.36 -67.7033 1253.78C-69.6836 1251.22 -72.4748 1247.32 -75.4006 1242.38C-80.169 1234.43 -84.91 1223.54 -87.5024 1212.06C-89.234 1204.41 -89.6864 1199.37 -89.9968 1195.02C-90.2836 1188.82 -90.4436 1183.84 -88.3286 1174.36C-88.1179 1173.48 -87.8925 1172.63 -87.6547 1171.8C-85.3636 1163.83 -81.9697 1157.75 -77.8105 1152.63C-74.3284 1148.52 -70.2987 1145.05 -65.3647 1142.05C-63.261 1140.78 -61.465 1139.86 -59.8926 1139.12C-52.5362 1136.25 -50.1398 1135.08 -36.4621 1133.38C-35.794 1133.32 -35.088 1133.25 -34.3415 1133.2ZM-128.07 9.68788C-113.993 8.64597 -96.8416 9.39302 -78.9443 15.2115C-65.1217 19.526 -50.7622 26.2917 -37.5538 36.1673C-25.6937 44.9897 -14.6766 56.0779 -5.45414 69.0057C3.17594 81.0523 10.4474 94.5551 15.6049 109.034C3.41767 113.161 -8.29926 119.088 -18.8685 126.661C-19.5702 127.17 -20.2696 127.684 -20.9637 128.203C-31.7405 136.269 -40.3985 144.577 -47.6032 152.599C-57.5781 163.953 -64.8327 174.635 -70.6674 184.638C-77.8555 197.025 -83.2933 208.203 -88.0428 219.643C-92.411 230.809 -96.1817 242.209 -99.3493 255.525C-101.664 265.576 -103.732 276.719 -104.706 289.703C-104.717 289.77 -104.729 289.836 -104.74 289.903L-104.723 289.903C-104.723 289.903 -104.854 289.883 -104.74 289.903C-102.686 266.671 -91.2481 241.543 -81.8353 220.449C-76.3326 208.338 -70.2481 197.181 -63.7492 186.763C-56.7411 175.798 -49.0857 165.769 -40.731 156.619C-32.2934 147.738 -23.0859 139.81 -13.0554 132.911C-3.40881 126.548 7.17014 121.404 18.5987 117.882C20.436 122.552 21.6045 127.535 22.4351 132.638C22.7739 134.406 23.0781 136.192 23.3497 137.991C24.0975 142.959 24.5574 147.626 24.8742 152.012C25.9529 167.721 25.0168 179.795 23.7075 190.415C21.9429 204.12 19.4715 215.532 15.0199 229.35C11.6418 239.74 7.01492 251.553 -1.35387 265.713C-6.09654 274.007 -12.2667 283.055 -20.9582 292.185C-22.273 293.564 -23.6597 294.956 -25.1235 296.356C-33.1174 304.186 -43.6018 312.081 -56.5583 318.184C-67.839 323.723 -81.2271 327.306 -95.6037 328.331C-109.142 329.351 -123.773 327.865 -137.389 322.042C-149.423 317.127 -160.734 309.45 -169.972 299.477C-179.449 289.335 -186.85 277.055 -192.089 263.892C-197.808 249.62 -201.039 234.33 -202.145 219.052C-203.086 206.388 -202.069 193.673 -199.163 181.623C-196.021 169.203 -191.055 157.495 -184.782 146.992C-177.742 135.463 -169.237 125.376 -160.176 116.806C-149.25 106.826 -137.39 99.2266 -125.943 93.4562C-131.595 95.8889 -137.244 97.7366 -142.086 100.563C-148.974 104.58 -155.655 109.278 -161.935 114.642C-171.839 123.212 -180.804 133.379 -188.032 144.866C-194.957 156.014 -200.314 168.31 -203.732 181.138C-207.192 194.228 -208.352 207.906 -207.36 221.262C-206.226 237.053 -202.795 252.492 -197.24 266.642C-191.753 280.879 -183.997 293.795 -174.559 304.332C-164.614 315.539 -152.689 323.811 -140.715 329.169C-125.042 336.145 -109.297 337.129 -96.5964 336.187C-95.836 336.131 -95.0885 336.072 -94.347 336.007C-81.6359 334.88 -67.8538 332.199 -53.7984 326.222C-42.2951 321.321 -30.5194 314.394 -19.7237 304.573C-10.3584 296.379 -1.54726 286.249 5.82685 274.118C12.6815 263.128 18.5809 250.612 22.9827 236.71C27.2779 223.902 30.3756 209.907 31.9527 194.944C33.6095 181.132 34.0459 166.467 32.9159 151.162C32.4638 145.029 31.7673 138.79 30.7548 132.476C29.8411 126.778 28.514 121.04 26.7033 115.345C30.7649 114.257 34.9053 113.267 39.1266 112.42C43.1626 111.61 47.2956 111.036 51.4965 110.727C63.4311 109.841 76.0214 110.78 88.1377 114.899C89.2581 115.279 90.3628 115.682 91.4461 116.105C104.096 121.181 114.425 128.882 122.168 137.522C132.266 148.513 138.6 160.541 142.911 171.681C149.312 188.586 151.466 203.587 152.419 216.091C153.62 233.493 152.379 246.351 151.173 256.35C148.33 277.209 145.674 286.015 141.606 299.505L141.509 299.826C141.156 301 140.782 302.211 140.386 303.464C135.752 318.01 130.449 331.027 123.485 345.267C116.922 358.882 108.774 373.625 96.8735 391.101C92.1253 397.983 86.4755 405.088 79.556 412.156C75.6225 416.171 71.7151 419.728 67.8766 422.919C55.2384 433.774 44.4936 441.856 34.5214 448.838C22.8127 457.017 12.5141 464.216 1.00328 472.255C-6.69411 477.647 -14.6538 483.863 -23.0482 491.984C-24.6411 493.529 -26.2919 495.188 -27.9849 496.967C-34.8468 504.306 -42.0652 514.138 -47.4939 526.676C-52.1296 537.621 -53.8603 550.953 -52.7865 565.004C-52.1977 573.239 -49.7733 581.667 -45.7349 589.605C-45.346 590.354 -44.9393 591.098 -44.516 591.836C-38.6996 601.515 -32.7895 607.247 -29.3347 610.267C-30.2307 609.44 -31.3023 608.399 -32.5322 607.115C-30.8299 608.824 -29.0153 610.513 -27.0867 612.179C-27.6126 611.731 -28.3795 611.103 -29.3347 610.267C-28.0309 611.471 -27.1003 612.223 -26.5944 612.611C-26.6924 612.52 -26.8141 612.414 -26.9555 612.292C-26.7994 612.427 -26.641 612.559 -26.4834 612.693C-26.5174 612.668 -26.5552 612.641 -26.5944 612.611C-26.5304 612.671 -26.4761 612.725 -26.4316 612.772C-26.3785 612.804 -26.3325 612.831 -26.2949 612.854C-26.255 612.888 -26.2158 612.923 -26.1758 612.956L-26.24 612.929C-26.5514 612.783 -28.0365 612.142 -30.8491 610.909C-38.3879 607.597 -48.1554 603.108 -60.2865 596.852C-69.1193 592.296 -79.1511 586.796 -89.8861 580.424C-109.363 568.789 -130.994 553.979 -152.033 537.111C-170.547 522.468 -188.443 506.066 -204.401 489.431C-205.919 487.85 -207.518 486.164 -209.19 484.377C-222.702 470.101 -240.536 448.867 -256.816 422.854C-270.012 402.067 -281.862 378.076 -290.611 353.505C-300.164 327.685 -305.2 300.978 -306.835 277.661C-308.543 254.297 -307.294 234.376 -305.915 221.082C-305.727 219.26 -305.525 217.459 -305.311 215.675C-302.608 193.626 -298.213 174.352 -292.17 155.476C-286.11 137.418 -278.436 119.7 -267.448 100.952C-261.851 91.5966 -255.297 82.0553 -247.29 72.4796C-241.766 65.8812 -236.518 60.4289 -231.64 55.785C-211.664 37.5207 -198.955 31.1168 -184.864 24.2842C-175.727 20.0322 -165.535 16.0105 -150.268 12.7662C-143.994 11.4597 -136.539 10.3099 -128.07 9.68788Z" fill="#333333"/>
</svg>
