<svg width="388" height="417" viewBox="0 0 388 417" fill="none" xmlns="http://www.w3.org/2000/svg">
<path d="M347.599 416.6C335.333 416.6 323.599 413.267 312.399 406.6C301.199 400.2 291.333 391.667 282.799 381C274.533 370.6 267.866 358.733 262.799 345.4C257.733 332.333 255.199 319.133 255.199 305.8C255.199 293.8 256.933 282.2 260.399 271C264.133 259.8 270.266 250.467 278.799 243C261.999 225.4 248.132 204.2 237.199 179.4C226.266 154.6 219.199 128.6 215.999 101.4C198.932 92.8667 181.733 83.5333 164.399 73.4C147.066 63.5333 130.399 52.6 114.399 40.6C98.3992 28.6 83.4658 15.5333 69.5992 1.40001C55.7325 -12.7333 43.5991 -28.3333 33.1991 -45.3999C22.7992 -62.4666 14.6659 -81 8.79918 -101C2.93252 -121 -0.000801243 -142.867 -0.000800206 -166.6C-0.000799483 -183.133 1.73248 -200.467 5.19915 -218.6C8.93249 -236.733 14.6658 -253.4 22.3992 -268.6C30.1325 -283.8 39.9992 -296.333 51.9992 -306.2C64.2659 -316.067 79.0658 -321 96.3992 -321C108.932 -321 120.933 -317.8 132.399 -311.4C144.133 -305 154.533 -296.2 163.599 -285C172.666 -273.533 179.866 -260.067 185.199 -244.6C190.533 -229.133 193.199 -212.333 193.199 -194.2C193.199 -182.2 191.733 -170.467 188.799 -159C186.133 -147.267 181.999 -136.867 176.399 -127.8C170.799 -118.467 163.866 -111 155.599 -105.4C147.333 -99.8 137.866 -97 127.199 -97C117.599 -97 109.333 -99.8 102.399 -105.4C95.7325 -110.733 90.1325 -117.4 85.5992 -125.4C81.0658 -133.4 77.7325 -141.933 75.5992 -151C73.4658 -160.067 72.3992 -168.2 72.3992 -175.4C72.3992 -182.333 72.9326 -188.867 73.9992 -195C75.0659 -201.133 76.3992 -206.867 77.9992 -212.2C75.3325 -203.4 73.9992 -194.067 73.9992 -184.2C73.9992 -175.133 75.1992 -166.067 77.5992 -157C80.2658 -147.933 83.9992 -139.8 88.7992 -132.6C93.5992 -125.133 99.5992 -119.133 106.799 -114.6C113.999 -110.067 122.266 -107.8 131.599 -107.8C141.733 -107.8 150.399 -110.467 157.599 -115.8C164.799 -121.133 170.666 -128.067 175.199 -136.6C179.733 -144.867 183.066 -154.067 185.199 -164.2C187.333 -174.067 188.399 -183.8 188.399 -193.4C188.399 -207 186.266 -221 181.999 -235.4C177.733 -249.533 171.466 -262.467 163.199 -274.2C155.199 -285.933 145.199 -295.533 133.199 -303C121.466 -310.467 108.133 -314.2 93.1992 -314.2C80.1325 -314.2 68.1325 -310.067 57.1992 -301.8C46.2658 -293.533 36.7992 -282.733 28.7992 -269.4C21.0659 -256.067 14.9325 -241 10.3992 -224.2C6.1325 -207.133 3.9992 -189.933 3.9992 -172.6C3.9992 -151.8 6.66585 -132.6 11.9992 -115C17.3325 -97.4 24.6659 -81.2667 33.9992 -66.6C43.3325 -51.6667 54.5325 -37.9334 67.5992 -25.4C80.6658 -12.6 94.9325 -0.59993 110.399 10.6001C125.866 21.8001 142.266 32.3334 159.599 42.2001C177.199 52.0667 195.066 61.8 213.199 71.4C212.933 69.2667 212.799 67.0001 212.799 64.6001C212.799 62.4668 212.799 60.3334 212.799 58.2001C212.799 47.2667 213.599 35.6667 215.199 23.4C217.066 11.4 219.866 -0.599985 223.599 -12.6C227.599 -24.6 232.533 -36.0667 238.399 -47C244.532 -57.9334 251.866 -67.6666 260.399 -76.2C268.933 -84.7333 278.799 -91.5333 289.999 -96.6C301.199 -101.4 313.866 -103.8 327.999 -103.8C344.799 -103.8 360.266 -99.7999 374.399 -91.7999C388.533 -83.5333 400.666 -73.1333 410.799 -60.6C421.199 -47.8 429.199 -33.6666 434.799 -18.2C440.399 -2.46661 443.199 12.8667 443.199 27.8C443.199 37.9334 441.733 47.9334 438.799 57.8C436.133 67.9334 431.999 77 426.399 85C421.066 93 414.266 99.4001 405.999 104.2C397.733 109.267 388.266 111.8 377.599 111.8C367.999 111.8 358.933 109.533 350.399 105C342.133 100.733 334.933 94.8667 328.799 87.4C322.666 80.2 317.599 71.8001 313.599 62.2001C309.599 52.8667 307.199 43.2667 306.399 33.4C307.466 42.2 309.866 51 313.599 59.8C317.599 68.8667 322.533 77.0001 328.399 84.2001C334.533 91.4001 341.733 97.1334 349.999 101.4C358.266 105.933 367.333 108.2 377.199 108.2C387.333 108.2 396.266 105.933 403.999 101.4C411.733 97.1334 418.266 91.2667 423.599 83.8C428.933 76.3334 432.933 67.8001 435.599 58.2001C438.533 48.6001 439.999 38.6001 439.999 28.2001C439.999 14.8668 437.199 0.733398 431.599 -14.2C425.999 -29.1333 418.266 -42.8667 408.399 -55.4C398.799 -67.6667 387.199 -77.9333 373.599 -86.2C359.999 -94.2 345.199 -98.2 329.199 -98.2C309.466 -98.2 292.666 -93.5333 278.799 -84.2C264.933 -74.6 253.599 -62.6 244.799 -48.2C235.999 -33.8 229.599 -18.0667 225.599 -1.00001C221.599 16.0667 219.599 32.3334 219.599 47.8C219.599 52.3334 219.599 56.7333 219.599 61C219.866 65.2667 220.133 69.6667 220.399 74.2001C248.133 89.6667 273.999 106.867 297.999 125.8C322.266 144.733 343.332 164.467 361.199 185C379.333 205.8 393.599 227 403.999 248.6C414.399 270.467 419.599 291.933 419.599 313C419.599 330.067 417.599 345.133 413.599 358.2C409.599 371.267 404.266 382.067 397.599 390.6C391.199 399.133 383.599 405.534 374.799 409.8C366.266 414.333 357.199 416.6 347.599 416.6ZM344.399 408.6C353.999 408.6 363.066 406.467 371.599 402.2C380.133 398.2 387.599 392.2 393.999 384.2C400.666 376.2 405.866 366.333 409.599 354.6C413.599 342.867 415.599 329.4 415.599 314.2C415.599 294.467 410.533 275.267 400.399 256.6C390.266 237.933 376.399 219.8 358.799 202.2C341.466 184.867 321.199 168.067 297.999 151.8C274.799 135.533 249.999 119.933 223.599 105C224.932 119.133 227.599 133 231.599 146.6C235.866 160.467 240.666 173.4 245.999 185.4C251.333 197.667 257.066 208.6 263.199 218.2C269.599 227.8 275.733 235.533 281.599 241.4C284.533 238.467 288.933 237 294.799 237C299.599 237 304.133 238.333 308.399 241C312.933 243.667 315.599 248.2 316.399 254.6C315.599 259.667 312.933 262.2 308.399 262.2C304.399 262.2 299.866 260.6 294.799 257.4C289.999 254.2 286.132 250.867 283.199 247.4C274.932 253.533 268.933 261.933 265.199 272.6C261.732 283.267 259.999 294.6 259.999 306.6C259.999 319.133 261.999 331.4 265.999 343.4C270.266 355.667 276.132 366.6 283.599 376.2C291.066 385.8 299.999 393.533 310.399 399.4C320.799 405.267 332.132 408.333 344.399 408.6ZM308.399 259.4C311.333 259.4 313.066 257.8 313.599 254.6C313.066 251.133 311.333 248.2 308.399 245.8C305.466 243.4 301.866 242.2 297.599 242.2C293.866 242.2 289.999 243.4 285.999 245.8C288.132 248.733 291.466 251.667 295.999 254.6C300.799 257.8 304.933 259.4 308.399 259.4Z" fill="#333333"/>
</svg>
