<svg width="1305" height="547" viewBox="0 0 1305 547" fill="none" xmlns="http://www.w3.org/2000/svg">
<path d="M848.37 168.65C849.77 176.494 848.195 182.595 843.647 186.953C839.099 191.311 834.113 194.535 828.69 196.627C823.442 198.719 817.756 200.201 811.633 201.072C805.51 201.944 800.087 202.38 795.364 202.38C789.941 202.38 784.255 202.118 778.307 201.595C772.359 201.072 765.886 199.939 758.889 198.196C751.716 195.93 745.068 193.577 738.945 191.136C738.771 191.311 738.508 191.572 738.158 191.921C726.087 200.985 714.716 210.398 704.045 220.16C693.374 229.747 683.752 239.334 675.18 248.922C666.608 258.509 658.648 268.532 651.301 278.991C643.778 288.23 635.994 298.863 627.946 310.891C619.899 322.918 612.552 335.207 605.904 347.758C599.256 360.134 593.746 371.988 589.372 383.318C585.173 394.649 583.074 404.149 583.074 411.819C583.074 416.525 584.211 420.622 586.485 424.108C588.76 427.594 591.646 430.471 595.145 432.737C598.644 435.003 602.493 436.659 606.691 437.705C610.89 438.925 614.913 439.535 618.762 439.535C625.934 439.535 632.932 437.966 639.755 434.828C646.752 431.865 653.4 427.856 659.698 422.801C665.996 417.571 671.944 411.557 677.542 404.759C682.615 398.832 687.338 392.557 691.712 385.933C687.163 393.254 682.527 400.227 677.804 406.851C672.556 414.172 666.783 420.622 660.485 426.2C654.362 431.952 647.539 436.484 640.017 439.796C632.495 443.108 623.923 444.764 614.301 444.764C608.703 444.764 603.367 443.98 598.294 442.411C593.221 440.842 588.76 438.489 584.911 435.351C581.062 432.388 578.001 428.64 575.727 424.108C573.452 419.402 572.315 413.998 572.315 407.897C572.315 399.355 574.24 389.507 578.088 378.35C581.937 367.02 586.748 355.515 592.521 343.836C598.469 332.157 605.029 320.914 612.202 310.106C619.374 299.124 626.284 289.624 632.932 281.606C642.904 270.275 652.788 259.729 662.584 249.967C672.556 240.032 683.14 230.008 694.336 219.898C705.532 209.788 717.34 200.026 729.761 190.613C730.811 189.916 731.773 189.132 732.648 188.26C724.251 184.599 716.903 180.765 710.605 176.755C698.359 169.085 686.988 160.893 676.492 152.177C665.996 143.287 656.112 134.31 646.84 125.245C637.743 116.007 628.646 107.291 619.549 99.098C588.585 68.07 555.346 44.5374 519.833 28.5005C484.321 12.2892 447.758 4.18357 410.146 4.18357C392.302 4.18357 374.721 5.92671 357.402 9.413C340.083 12.725 323.551 17.6058 307.807 24.0555C292.237 30.5051 277.804 38.5236 264.509 48.1109C251.214 57.6982 239.667 68.6801 229.871 81.0564C220.249 93.4328 212.727 107.204 207.304 122.369C201.88 137.534 199.169 153.92 199.169 171.526C199.169 185.122 201.443 197.934 205.992 209.962C210.54 221.816 216.663 232.797 224.36 242.908C230.658 250.926 237.831 258.335 245.878 265.133C249.901 262.692 253.925 260.514 257.949 258.596C267.046 254.413 276.142 251.188 285.239 248.922C294.511 246.655 303.258 245.522 311.48 245.522C324.076 245.522 336.322 247.44 348.218 251.275C360.288 254.935 370.96 260.165 380.232 266.963C389.503 273.587 396.938 281.606 402.536 291.019C404.111 293.808 405.51 296.597 406.735 299.386C412.508 297.643 418.106 295.638 423.529 293.372C434.026 289.014 443.997 283.697 453.444 277.422C462.891 270.972 471.2 263.651 478.373 255.458C485.545 247.266 491.231 238.201 495.429 228.265C499.628 218.329 501.727 207.522 501.727 195.843C501.727 183.815 499.54 172.746 495.167 162.636C490.793 152.526 484.583 143.81 476.536 136.489C468.664 129.167 459.217 123.502 448.196 119.493C437.174 115.309 425.016 113.218 411.721 113.218C403.498 113.218 395.364 114.525 387.317 117.14C379.444 119.58 371.834 122.979 364.487 127.337C357.139 131.695 350.229 136.837 343.757 142.764C337.284 148.691 331.598 155.053 326.7 161.851C331.948 153.31 337.809 145.727 344.281 139.103C350.754 132.305 357.664 126.64 365.012 122.108C372.359 117.575 379.969 114.089 387.841 111.649C395.714 109.208 403.586 107.988 411.458 107.988C427.553 107.988 442.073 110.428 455.018 115.309C467.964 120.19 478.898 126.814 487.819 135.181C496.916 143.374 503.914 152.961 508.812 163.943C513.711 174.925 516.16 186.604 516.16 198.98C516.16 212.403 513.886 224.518 509.337 235.325C504.789 245.958 498.578 255.458 490.706 263.826C483.009 272.018 473.999 279.078 463.678 285.005C453.531 290.757 442.685 295.551 431.139 299.386C423.792 301.826 416.357 303.831 408.834 305.4C410.409 310.629 411.196 316.12 411.196 321.872C411.196 333.726 406.822 344.272 398.075 353.51C389.328 362.575 377.345 370.768 362.125 378.089C374.196 383.667 383.555 390.988 390.203 400.053C397.026 408.943 400.699 418.356 401.224 428.292C408.397 424.805 415.744 420.186 423.267 414.434C430.789 408.681 438.312 402.232 445.834 395.085C453.356 387.763 460.704 380.006 467.876 371.814C475.049 363.621 481.872 355.428 488.344 347.235C494.817 338.868 500.765 330.762 506.188 322.918C511.611 314.9 517.647 305.661 524.294 295.202C526.919 291.019 529.368 286.922 531.642 282.913C534.091 278.904 536.453 274.895 538.727 270.885C541.176 266.702 543.625 262.431 546.074 258.073C548.699 253.715 551.585 249.009 554.734 243.954C559.982 234.715 564.706 226.522 568.904 219.375C573.278 212.054 577.739 204.994 582.287 198.196C587.01 191.223 591.646 184.948 596.195 179.37C600.918 173.792 605.292 169.957 609.315 167.865H614.039C610.015 171.177 606.079 175.535 602.23 180.939C598.381 186.168 594.533 192.182 590.684 198.98C587.01 205.604 583.162 212.838 579.138 220.683C575.114 228.527 569.866 238.463 563.393 250.49C559.02 257.114 554.734 264.436 550.535 272.454C546.512 280.473 541.876 289.014 536.628 298.078C528.231 311.675 519.309 324.487 509.862 336.515C500.415 348.543 489.919 360.57 478.373 372.598C466.827 384.451 454.493 395.782 441.373 406.589C428.253 417.223 415.045 426.113 401.749 433.26C401.749 451.737 397.988 468.035 390.465 482.155C383.118 496.274 373.409 508.128 361.338 517.715C349.267 527.302 335.534 534.536 320.14 539.417C304.745 544.472 289 547 272.906 547C261.01 547 249.027 545.257 236.956 541.771C224.885 538.284 213.776 533.055 203.63 526.082C193.658 519.11 185.174 510.394 178.176 499.935C171.353 489.65 167.155 477.536 165.58 463.59C163.481 463.765 161.294 463.852 159.02 463.852H152.722C141.176 463.852 129.368 462.806 117.297 460.714C105.226 458.797 93.5053 455.746 82.1342 451.563C70.9381 447.379 60.3542 442.062 50.3826 435.613C40.4111 429.337 31.6641 421.842 24.1417 413.126C16.7942 404.41 10.9337 394.562 6.56021 383.58C2.18672 372.424 0 359.96 0 346.189C0 335.207 2.09928 324.923 6.29783 315.336C10.4964 305.748 16.1819 297.381 23.3544 290.234C30.527 282.913 38.8366 277.161 48.2834 272.977C57.7301 268.793 67.7891 266.702 78.4604 266.702C87.0325 266.702 95.7795 268.096 104.701 270.885C113.623 273.674 121.758 277.684 129.105 282.913C136.453 288.142 142.488 294.505 147.212 302C151.935 309.322 154.297 317.689 154.297 327.102C154.297 333.203 153.247 339.304 151.148 345.405C149.224 351.332 146.25 356.648 142.226 361.355C138.377 366.061 133.479 369.896 127.531 372.859C121.583 375.649 114.76 377.043 107.063 377.043C104.089 377.043 101.028 376.869 97.8788 376.52C99.4533 376.52 100.94 376.52 102.34 376.52C109.337 376.52 115.81 375.213 121.758 372.598C127.706 369.809 132.867 366.235 137.24 361.878C141.614 357.345 145.025 352.203 147.474 346.451C150.098 340.524 151.41 334.336 151.41 327.886C151.41 318.996 149.224 310.978 144.85 303.831C140.652 296.51 135.053 290.321 128.056 285.266C121.058 280.037 113.186 276.028 104.439 273.239C95.6921 270.449 86.8576 269.055 77.9356 269.055C68.3139 269.055 59.0422 271.06 50.1202 275.069C41.3733 279.078 33.5884 284.569 26.7658 291.542C19.9431 298.514 14.52 306.62 10.4964 315.858C6.47274 324.923 4.46095 334.684 4.46095 345.143C4.46095 358.391 6.56023 370.419 10.7588 381.227C14.9573 392.034 20.6429 401.709 27.8154 410.25C34.9879 418.617 43.3851 425.938 53.0067 432.214C62.8034 438.489 73.2997 443.631 84.4959 447.641C95.692 451.824 107.238 454.875 119.134 456.792C131.03 458.884 142.838 459.93 154.559 459.93H159.283C160.857 459.93 162.606 459.843 164.531 459.668C164.531 426.025 174.065 396.915 193.134 372.337C192.084 369.548 191.122 366.148 190.247 362.139C189.547 358.13 189.197 353.598 189.197 348.543C189.197 338.258 191.034 328.584 194.708 319.519C198.557 310.455 203.63 302.175 209.928 294.679C216.4 287.009 223.748 280.124 231.97 274.023C235.119 271.757 238.18 269.665 241.154 267.748L240.892 267.486C226.372 254.413 215.001 239.334 206.779 222.251C198.732 205.169 194.708 187.301 194.708 168.65C194.708 140.062 200.393 115.222 211.765 94.13C223.311 73.0379 238.88 55.5193 258.473 41.5741C278.242 27.6289 301.159 17.2572 327.225 10.4589C353.291 3.48629 380.931 0 410.146 0C431.139 0 451.694 2.61472 471.813 7.84416C492.106 13.0736 511.436 20.0462 529.805 28.7619C548.174 37.3034 565.318 47.065 581.237 58.0468C597.157 68.8544 611.24 80.0105 623.485 91.5153C633.807 101.277 644.128 111.126 654.45 121.062C664.946 130.998 675.617 140.498 686.464 149.562C697.31 158.452 708.419 166.558 719.79 173.879C725.388 177.54 731.598 180.939 738.421 184.076C748.042 177.278 757.839 171.09 767.811 165.512C780.931 158.191 796.588 153.833 814.782 152.438C833.15 150.87 844.347 156.273 848.37 168.65ZM400.962 317.166C400.787 313.68 400.437 310.368 399.912 307.23C398.513 307.404 397.026 307.579 395.451 307.753C383.38 309.496 371.659 310.368 360.288 310.368C335.972 310.368 313.667 306.533 293.374 298.863C274.48 291.716 258.124 282.216 244.303 270.362C240.98 272.454 237.743 274.633 234.594 276.899C226.722 282.477 219.724 288.84 213.601 295.987C207.479 303.134 202.58 310.978 198.907 319.519C195.233 328.061 193.396 337.038 193.396 346.451C193.396 350.809 193.746 354.818 194.446 358.479C195.145 362.139 196.02 365.451 197.07 368.414C203.193 363.185 209.49 358.217 215.963 353.51C222.436 348.63 229.171 344.359 236.169 340.698C243.166 337.038 250.251 334.162 257.424 332.07C264.771 329.804 272.294 328.671 279.991 328.671C289.263 328.671 296.348 330.937 301.246 335.469C306.32 340.001 308.856 346.451 308.856 354.818C308.856 356.561 308.681 358.304 308.331 360.047C308.156 361.79 307.894 363.621 307.544 365.538C306.319 370.593 304.395 376.171 301.771 382.272C299.147 388.373 295.736 394.474 291.537 400.576C287.339 406.677 282.353 412.69 276.58 418.617C270.982 424.37 264.509 429.512 257.161 434.044C267.658 438.925 277.979 442.324 288.126 444.241C298.447 446.333 308.594 447.379 318.565 447.379C333.26 447.379 347.255 445.897 360.551 442.934C374.021 439.971 386.267 435.787 397.288 430.383C396.588 420.447 393.177 410.947 387.054 401.883C380.931 392.819 371.659 385.149 359.239 378.873C354.865 380.616 350.842 381.924 347.168 382.795C343.494 383.493 340.258 383.841 337.459 383.841C330.286 383.841 326.7 381.924 326.7 378.089C327.05 375.648 328.362 373.905 330.636 372.859C332.91 371.814 335.622 371.291 338.771 371.291C342.27 371.291 345.856 371.814 349.53 372.859C353.203 373.731 356.44 374.777 359.239 375.997C365.012 373.731 370.435 370.681 375.508 366.846C380.581 362.836 384.955 358.304 388.629 353.249C392.477 348.02 395.451 342.354 397.551 336.253C399.825 330.152 400.962 323.79 400.962 317.166ZM397.288 435.09C386.092 440.319 374.109 444.416 361.338 447.379C348.567 450.342 335.359 451.824 321.714 451.824C310.168 451.824 298.622 450.604 287.076 448.163C275.705 445.897 264.421 442.15 253.225 436.92C249.027 439.884 244.128 442.76 238.53 445.549C233.107 448.338 226.897 450.953 219.899 453.393C212.902 455.833 205.204 457.925 196.807 459.668C188.41 461.586 179.226 462.893 169.254 463.59C171.703 478.058 176.427 490.261 183.424 500.196C190.422 510.132 198.819 518.151 208.616 524.252C218.587 530.527 229.521 535.059 241.417 537.848C253.488 540.637 265.821 542.032 278.417 542.032C293.811 542.032 308.594 539.417 322.764 534.188C337.109 529.133 349.792 521.899 360.813 512.486C371.834 503.073 380.669 491.829 387.317 478.756C393.964 465.682 397.288 451.127 397.288 435.09ZM299.409 353.249C299.409 346.974 297.835 341.744 294.686 337.561C291.537 333.203 286.026 331.024 278.154 331.024C270.632 331.024 263.547 332.07 256.899 334.162C250.251 336.253 243.691 339.13 237.218 342.79C230.92 346.451 224.535 350.809 218.062 355.864C211.59 360.919 204.854 366.41 197.857 372.337C203.63 388.025 211.065 400.488 220.162 409.727C229.259 418.966 240.017 426.461 252.438 432.214C259.611 426.81 265.733 420.97 270.807 414.695C276.055 408.245 280.516 401.97 284.19 395.869C287.863 389.768 290.75 384.016 292.849 378.612C295.123 373.208 296.873 368.589 298.097 364.754C298.972 360.396 299.409 356.561 299.409 353.249ZM259.786 262.257C256.287 264 252.788 265.83 249.289 267.748C250.164 268.445 251.039 269.055 251.913 269.578C262.41 277.422 273.606 284.133 285.502 289.711C297.572 295.115 309.906 299.299 322.501 302.262C335.272 305.051 347.868 306.445 360.288 306.445C370.26 306.445 380.669 305.312 391.515 303.046C393.964 302.523 396.326 302 398.6 301.478C397.201 296.945 395.364 292.675 393.09 288.665C388.191 280.298 381.631 273.239 373.409 267.486C365.362 261.734 356.002 257.376 345.331 254.413C334.835 251.449 323.813 249.967 312.267 249.967C304.22 249.967 295.648 251.013 286.551 253.105C277.629 255.197 268.707 258.247 259.786 262.257ZM248.502 435.09C243.779 432.649 238.618 429.599 233.02 425.938C227.597 422.278 222.348 418.007 217.275 413.126C212.202 408.071 207.566 402.493 203.367 396.392C199.344 390.117 196.282 383.318 194.183 375.997C186.311 386.456 179.926 397.961 175.027 410.511C170.304 422.888 167.942 435.961 167.942 449.732C167.942 451.475 167.942 453.044 167.942 454.439C168.117 456.008 168.292 457.751 168.467 459.668C186.136 458.274 201.268 455.485 213.864 451.301C226.459 447.118 238.006 441.714 248.502 435.09ZM774.896 167.604C764.574 173.356 754.428 179.806 744.456 186.953C750.054 189.393 756.002 191.659 762.3 193.751C767.373 194.971 772.709 195.843 778.307 196.366C783.905 196.714 788.716 196.889 792.74 196.889C797.988 196.889 803.498 196.453 809.271 195.581C815.219 194.535 820.642 193.054 825.541 191.136C830.614 189.219 835.425 186.255 839.973 182.246C844.697 178.237 845.659 172.659 842.86 165.512C840.236 158.365 831.314 155.14 816.094 155.837C801.049 156.535 787.316 160.457 774.896 167.604ZM355.303 378.089C353.728 377.043 351.279 376.084 347.955 375.213C344.806 374.341 341.745 373.905 338.771 373.905C336.497 373.905 334.572 374.254 332.998 374.951C331.423 375.648 330.636 376.694 330.636 378.089C330.636 380.529 332.648 381.75 336.672 381.75C339.296 381.75 342.357 381.401 345.856 380.704C349.355 379.832 352.504 378.96 355.303 378.089ZM91.3185 375.474C87.4699 374.603 83.5337 373.208 79.5101 371.291C85.9829 373.905 92.1058 375.649 97.8788 376.52C95.7795 376.171 93.5928 375.823 91.3185 375.474Z" fill="#333333"/>
<path fill-rule="evenodd" clip-rule="evenodd" d="M1206.72 387.54L1208.04 385.234C1208.3 384.209 1208.99 381.955 1209.62 381.135C1209.8 380.623 1210.07 379.94 1210.42 379.086C1210.95 377.378 1211.21 375.67 1211.21 373.962C1211.39 372.084 1211.3 370.547 1210.95 369.351C1209.71 365.594 1206.72 363.203 1201.96 362.178C1196.49 361.324 1190.67 363.544 1184.5 368.839C1177.1 376.012 1175.16 381.733 1178.68 386.003L1179.74 387.027L1178.15 388.308C1177.8 388.65 1177.36 389.162 1176.83 389.845C1176.3 390.529 1175.86 391.212 1175.51 391.895C1175.33 392.236 1175.07 392.834 1174.72 393.688C1174.36 394.542 1174.01 395.481 1173.66 396.506C1173.31 397.36 1173.04 398.214 1172.87 399.068L1172.34 400.093V404.448V407.266C1172.34 407.949 1172.43 408.547 1172.6 409.059C1172.78 409.571 1173.04 410.084 1173.39 410.596C1175.33 415.378 1179.92 415.122 1187.15 409.827C1190.85 407.095 1194.55 403.679 1198.25 399.58C1201.96 395.481 1204.78 391.468 1206.72 387.54ZM1201.69 386.771L1200.9 388.052C1198.96 390.956 1196.14 394.371 1192.44 398.299C1188.73 402.227 1185.56 405.045 1182.92 406.753C1180.62 408.29 1179.48 408.803 1179.48 408.29C1179.48 407.607 1179.83 406.326 1180.53 404.448C1181.24 402.398 1182.03 400.349 1182.92 398.299C1183.8 396.25 1184.59 394.627 1185.3 393.432C1185.65 392.92 1185.91 392.407 1186.09 391.895C1186.44 391.212 1186.62 390.699 1186.62 390.358V389.077L1189.26 388.821C1190.14 388.65 1191.29 388.479 1192.7 388.308C1194.11 388.138 1195.61 387.881 1197.2 387.54C1198.96 387.369 1200.19 387.198 1200.9 387.027L1201.69 386.771ZM1205.39 380.111H1205.66V380.367C1205.13 381.392 1204.6 382.16 1204.07 382.672C1203.72 383.185 1203.1 383.612 1202.22 383.953C1201.34 384.124 1199.93 384.295 1197.99 384.466C1197.46 384.636 1197.02 384.722 1196.67 384.722C1187.32 386.088 1182.12 385.49 1181.06 382.929C1180.54 380.879 1181.59 378.317 1184.24 375.243C1186.88 372.169 1190.06 369.863 1193.76 368.326C1194.99 367.814 1196.58 367.472 1198.52 367.302C1200.46 367.131 1202.13 367.216 1203.54 367.558C1208.65 368.583 1209.27 372.767 1205.39 380.111Z" fill="#333333"/>
<path d="M1174.57 385.336L1174.83 385.851C1175.35 385.507 1175.87 385.164 1176.39 384.821C1179.67 382.247 1179.49 382.199 1180.88 380.998C1180.88 381.684 1180.88 382.199 1180.88 382.542C1180.88 382.885 1180.88 383.314 1180.88 383.829C1179.49 385.03 1179.93 384.735 1177.17 386.623C1164.72 396.405 1155.39 403.355 1149.17 407.473C1142.95 411.592 1138.02 414.166 1134.39 415.196C1129.21 416.912 1125.58 415.882 1123.5 412.107C1122.99 410.905 1122.73 409.447 1122.73 407.731C1122.73 405.843 1122.99 403.955 1123.5 402.068C1124.2 400.18 1125.23 397.863 1126.61 395.117C1128.17 392.372 1129.73 389.712 1131.28 387.138C1132.15 385.936 1132.84 384.993 1133.35 384.306C1134.05 383.448 1134.31 383.019 1134.13 383.019C1133.61 383.019 1129.64 385.078 1122.21 389.197C1113.22 394.345 1106.48 397.606 1101.99 398.979C1097.49 400.18 1094.3 399.923 1092.4 398.206C1090.15 396.147 1089.46 392.887 1090.32 388.425C1090.49 387.91 1090.84 386.88 1091.36 385.336C1091.88 383.791 1092.48 382.247 1093.17 380.702C1094.04 378.986 1094.73 377.356 1095.25 375.811C1095.77 374.095 1096.2 372.808 1096.54 371.95C1098.1 367.317 1100.26 365 1103.02 365C1105.96 365 1107.43 366.888 1107.43 370.663C1107.43 371.178 1107.35 371.779 1107.17 372.465C1107 372.98 1106.48 373.666 1105.62 374.524C1104.93 375.382 1103.89 376.67 1102.51 378.386C1101.47 379.587 1100.35 381.217 1099.14 383.276C1098.1 385.336 1097.15 387.395 1096.28 389.454C1095.42 391.342 1094.99 392.715 1094.99 393.573C1094.99 395.804 1097.41 396.319 1102.25 395.117C1104.15 394.431 1106.91 393.144 1110.54 391.256C1114.34 389.197 1118.23 387.052 1122.21 384.821C1126.36 382.418 1129.9 380.445 1132.84 378.9C1135.95 377.356 1137.93 376.412 1138.8 376.069C1139.32 375.897 1139.75 375.897 1140.09 376.069C1140.44 376.069 1140.7 376.24 1140.87 376.584C1141.74 377.442 1141.91 378.557 1141.39 379.93C1141.05 381.303 1139.75 383.62 1137.5 386.88C1135.43 390.484 1133.44 394.431 1131.54 398.721C1129.81 403.011 1128.69 406.358 1128.17 408.76C1128.17 409.447 1128.17 409.962 1128.17 410.305C1128.34 410.648 1128.52 410.991 1128.69 411.335C1129.21 412.021 1129.9 412.364 1130.76 412.364C1131.8 412.364 1133.18 412.021 1134.91 411.335C1140.96 409.275 1154.18 400.609 1174.57 385.336Z" fill="#333333"/>
<path d="M1049.2 402.327C1045.36 402.327 1042.39 401.285 1040.3 399.203C1038.38 396.946 1037.42 394.17 1037.42 390.872C1037.42 387.575 1037.94 384.364 1038.99 381.24C1040.04 377.942 1040.91 375.686 1041.61 374.471C1041.96 373.777 1042.13 373.17 1042.13 372.649C1041.96 372.649 1041.87 372.736 1041.87 372.909L1021.7 389.831C1017.34 393.302 1011.67 397.641 1004.68 402.847C995.428 409.616 988.183 413 982.945 413C979.279 413 976.66 411.265 975.089 407.794C972.644 403.108 971.422 398.075 971.422 392.694C971.422 388.703 972.121 384.451 973.517 379.938C975.263 376.294 977.009 374.471 978.755 374.471C979.279 374.471 979.715 374.558 980.064 374.732C982.159 375.773 983.207 377.075 983.207 378.637C983.207 380.372 982.858 381.674 982.159 382.541C980.414 387.748 979.541 392 979.541 395.298C979.541 401.025 982.159 404.062 987.397 404.409C998.571 400.591 1017.08 386.36 1042.92 361.715C1044.84 359.979 1046.67 358.331 1048.42 356.769C1050.16 355.207 1051.3 354.079 1051.82 353.384C1053.57 351.128 1055.31 350 1057.06 350C1058.63 350 1059.42 350.608 1059.42 351.822C1059.42 353.211 1058.19 356.075 1055.75 360.413C1054.35 362.496 1052.96 365.36 1051.56 369.004C1050.16 372.649 1048.94 375.686 1047.89 378.116C1047.02 380.372 1046.15 382.889 1045.27 385.665C1044.58 388.269 1044.4 390.612 1044.75 392.694C1045.27 394.603 1047.63 395.558 1051.82 395.558C1057.76 394.864 1062.82 393.475 1067.01 391.393C1071.37 389.137 1078.45 385.926 1088.22 381.76C1090.67 381.066 1093.02 380.198 1095.29 379.157L1097.13 378.637C1099.05 378.637 1100.01 379.851 1100.01 382.281C1100.01 384.017 1098.26 385.492 1094.77 386.707C1077.31 393.996 1065.7 398.595 1059.94 400.504L1058.11 401.025C1054.61 401.893 1051.65 402.327 1049.2 402.327Z" fill="#333333"/>
<path d="M979.289 374.987V375.499C979.811 375.67 980.159 376.012 980.333 376.524C980.507 377.036 980.507 377.549 980.333 378.061C980.159 378.403 979.811 378.488 979.289 378.317C971.98 378.317 961.192 380.025 946.923 383.441L939.353 385.234L938.048 387.54C936.134 391.468 933.35 395.481 929.695 399.58C926.041 403.679 922.387 407.095 918.733 409.827C911.598 415.122 907.074 415.378 905.16 410.596C904.812 410.084 904.551 409.571 904.377 409.059C904.203 408.547 904.116 407.949 904.116 407.266C904.116 406.582 904.116 405.643 904.116 404.448V400.093C904.116 400.093 904.29 399.751 904.638 399.068C904.812 398.214 905.073 397.36 905.421 396.506C905.769 395.481 906.117 394.542 906.465 393.688C906.813 392.834 907.074 392.236 907.248 391.895C907.596 391.212 908.031 390.529 908.553 389.845C909.075 389.162 909.51 388.65 909.858 388.308L911.424 387.027L910.38 386.003C906.9 381.733 908.814 376.012 916.123 368.839C922.213 363.544 927.955 361.324 933.35 362.178C938.048 363.203 941.006 365.594 942.224 369.351C942.572 370.547 942.659 372.084 942.485 373.962C942.485 375.67 942.224 377.378 941.702 379.086C941.354 379.94 941.093 380.623 940.919 381.135C940.919 381.648 941.006 381.904 941.18 381.904C941.354 381.904 942.137 381.733 943.53 381.392C944.922 381.05 946.662 380.623 948.75 380.111C957.624 377.549 964.063 376.097 968.065 375.756C971.719 375.243 975.461 374.987 979.289 374.987ZM932.306 388.052L933.089 386.771L932.306 387.027C931.61 387.198 930.392 387.369 928.651 387.54C927.085 387.881 925.606 388.138 924.214 388.308C922.822 388.479 921.691 388.65 920.821 388.821L918.211 389.077V390.358C918.211 390.699 918.037 391.212 917.689 391.895C917.515 392.407 917.254 392.92 916.906 393.432C916.21 394.627 915.427 396.25 914.557 398.299C913.687 400.349 912.903 402.398 912.207 404.448C911.511 406.326 911.163 407.607 911.163 408.29C911.163 408.803 912.294 408.29 914.557 406.753C917.167 405.045 920.299 402.227 923.953 398.299C927.607 394.371 930.392 390.956 932.306 388.052ZM937.004 380.111H936.743C940.571 372.767 939.962 368.583 934.916 367.558C933.524 367.216 931.871 367.131 929.957 367.302C928.043 367.472 926.476 367.814 925.258 368.326C921.604 369.863 918.472 372.169 915.862 375.243C913.251 378.317 912.207 380.879 912.729 382.929C913.774 385.49 918.907 386.088 928.13 384.722C928.478 384.722 928.912 384.636 929.435 384.466C931.349 384.295 932.741 384.124 933.611 383.953C934.481 383.612 935.09 383.185 935.438 382.672C935.96 382.16 936.482 381.392 937.004 380.367C937.004 380.196 937.004 380.111 937.004 380.111Z" fill="#333333"/>
<path d="M854.019 397.144C855.253 396.092 856.486 394.952 857.719 393.724V393.988C860.361 391.357 861.683 389.866 861.683 389.515C861.154 382.5 859.304 378.467 856.133 377.415C853.139 376.187 848.47 379.607 842.128 387.674C839.133 392.058 837.9 396.092 838.429 399.775C838.957 403.282 839.662 405.299 840.543 405.825C841.423 406.351 842.568 406.176 843.978 405.299C845.035 404.598 846.532 403.458 848.47 401.879V398.723C848.47 397.144 849.263 396.355 850.848 396.355C851.377 396.355 852.082 396.443 852.962 396.618L854.019 397.144ZM863.532 396.881C864.413 396.355 865.911 395.654 868.025 394.777C873.134 392.497 879.035 389.603 885.729 386.096C885.729 385.043 885.553 383.991 885.201 382.939C883.792 379.256 882.558 377.502 881.501 377.678C880.621 377.853 879.564 378.467 878.331 379.519C877.274 380.571 875.6 382.325 873.31 384.78C871.02 387.236 868.729 389.954 866.439 392.935L866.175 392.672C864.766 394.601 863.885 396.004 863.532 396.881ZM885.201 390.042C875.864 394.777 868.641 397.846 863.532 399.249H863.268C865.03 407.491 867.496 411.087 870.667 410.034C874.014 408.982 877.626 405.124 881.501 398.46C883.439 395.303 884.672 392.497 885.201 390.042ZM865.911 383.991C869.082 379.431 871.812 375.222 874.102 371.364L874.631 370.312L874.367 370.575L879.916 359C880.444 359 881.237 359.614 882.294 360.842C883.527 361.894 884.144 363.034 884.144 364.261C884.144 365.138 881.59 369.084 876.481 376.099L874.631 378.73C877.978 375.222 880.268 373.381 881.501 373.206C883.792 372.855 886.346 375.222 889.165 380.308C889.693 381.36 890.046 382.5 890.222 383.728L897.092 380.045C903.61 376.538 909.776 372.855 915.59 368.997C915.766 369.172 916.03 369.347 916.383 369.523C916.735 369.523 916.999 369.873 917.175 370.575C917.175 371.627 916.735 372.416 915.854 372.942C906.341 378.554 897.973 383.29 890.75 387.148C890.75 391.006 889.605 395.303 887.315 400.038C883.439 408.281 877.273 413.717 868.817 416.348C864.061 417.049 860.978 413.893 859.569 406.878V402.406C859.392 402.406 859.216 402.581 859.04 402.932C859.04 403.107 858.688 403.545 857.983 404.247C857.455 404.948 856.486 406.264 855.076 408.193C854.548 408.719 854.107 409.245 853.755 409.771V410.034L852.17 412.139C851.465 413.016 850.76 413.98 850.056 415.033L847.677 417.926C844.33 423.012 841.423 428.098 838.957 433.184C826.625 458.263 814.029 479.395 801.169 496.582C797.117 502.194 794.299 505 792.713 505C791.304 505 790.599 503.948 790.599 501.843C790.599 499.037 792.449 494.127 796.148 487.112C806.366 468.171 819.931 446.863 836.843 423.188C838.429 421.083 839.574 419.417 840.278 418.189C841.159 416.786 841.864 415.646 842.392 414.77C842.921 413.893 844.418 411.788 846.885 408.456C847.237 407.93 847.677 407.404 848.206 406.878V406.088C843.978 409.421 841.247 411.087 840.014 411.087C837.548 411.087 835.169 409.333 832.879 405.825C829.884 398.81 831.206 390.918 836.843 382.15C845.123 372.679 852.346 368.733 858.512 370.312C863.268 370.312 865.911 373.819 866.439 380.834L865.911 383.991Z" fill="#333333"/>
<path fill-rule="evenodd" clip-rule="evenodd" d="M813.408 335.81C824.497 332.318 831.601 332.318 834.72 335.81C837.846 337.644 842.639 344.454 836.799 357.026C837.666 356.851 838.134 355.367 839 353.621C839.866 350.303 840.698 347.771 840.698 344.978C840.871 343.231 840.871 341.922 840.698 341.049C840.698 340.001 840.611 339.128 840.438 338.429C839.398 334.239 836.626 331.357 832.121 329.786C831.601 329.611 831.082 329.524 830.562 329.524C830.215 329.349 829.609 329.262 828.742 329.262C828.049 329.087 826.923 329 825.364 329C822.591 329 820.079 329.175 817.826 329.524C815.747 329.873 813.235 330.659 810.289 331.881C807.864 332.754 804.918 334.064 801.453 335.81C798.161 337.382 795.562 338.866 793.656 340.263C786.725 345.327 782.047 350.74 779.621 356.502C779.448 357.026 779.274 357.724 779.101 358.598C778.928 359.296 778.755 360.082 778.581 360.955V361.479C778.408 363.923 778.841 366.281 779.881 368.551C780.747 370.646 782.393 373.178 784.819 376.146C786.032 377.718 787.245 379.377 788.458 381.123C789.497 382.869 790.19 384.266 790.537 385.314C790.71 385.663 790.797 386.012 790.797 386.362C790.797 386.711 790.623 387.147 790.277 387.671C790.104 388.195 789.844 388.893 789.497 389.767C787.418 394.132 785.599 398.497 784.039 402.863C782.307 407.228 781.18 410.633 780.661 413.078C780.141 416.396 780.661 418.84 782.22 420.412L783 421.197C783.173 421.372 783.346 421.459 783.519 421.459C783.866 421.459 784.126 421.721 784.299 422.245C784.992 423.467 786.119 423.206 787.678 421.459C791.317 417.443 793.656 413.34 794.695 409.149C794.869 408.276 795.042 407.141 795.215 405.744C795.388 404.172 795.562 402.514 795.735 400.767V395.005L797.554 391.862C800.5 386.798 803.878 381.56 807.69 376.146C811.676 370.733 814.794 366.979 817.047 364.884C820.339 362.264 821.205 359.471 819.646 356.502C818.779 354.931 817.567 353.97 816.007 353.621C814.621 353.272 813.235 353.708 811.849 354.931C811.156 355.629 809.77 357.375 807.69 360.169C805.784 362.788 803.705 365.844 801.453 369.336C799.2 372.654 797.294 375.71 795.735 378.504L793.136 382.695L791.836 380.337C791.49 379.464 790.883 378.329 790.017 376.932L787.418 372.741C785.165 369.424 783.779 366.805 783.26 364.884C782.74 362.788 782.826 360.78 783.519 358.859C785.079 354.494 788.544 350.216 793.916 346.025C799.287 341.834 805.784 338.429 813.408 335.81ZM792.876 402.339L792.616 402.077C792.616 402.252 792.529 402.775 792.356 403.649C792.356 404.522 792.269 405.395 792.096 406.268C791.923 408.712 791.576 410.633 791.057 412.03C790.537 413.427 789.93 414.737 789.237 415.959C788.891 416.483 788.631 416.919 788.458 417.269L787.678 418.054L787.418 418.316V418.054V417.531C787.245 417.356 787.158 417.094 787.158 416.745C786.985 415.872 787.158 414.649 787.678 413.078C788.198 411.332 789.151 408.887 790.537 405.744C792.443 401.553 793.222 400.418 792.876 402.339Z" fill="#333333"/>
<path d="M771.982 355.348L771.459 355.869C779.308 357.781 783.668 362.908 784.54 371.25C784.889 378.202 782.36 386.023 776.953 394.713C767.186 408.791 756.285 414.787 744.25 412.701C739.192 411.658 735.704 409.399 733.786 405.923L732.739 404.098L729.6 409.834L726.722 415.83V418.958C726.722 427.474 724.28 437.12 719.396 447.895C717.827 451.545 715.646 455.803 712.856 460.67C709.891 465.362 706.838 469.968 703.699 474.487C702.827 475.877 701.519 477.528 699.775 479.44C697.856 481.352 696.112 483.09 694.542 484.654C692.798 486.218 691.752 487 691.403 487C691.229 487 690.967 486.826 690.618 486.479C690.269 486.305 689.92 486.044 689.572 485.697C689.397 485.523 689.31 485.436 689.31 485.436C688.787 485.088 688.438 484.741 688.263 484.393C688.089 484.219 688.089 483.785 688.263 483.09C688.263 482.916 688.351 482.655 688.525 482.308C688.874 481.091 689.31 479.787 689.833 478.397C690.356 477.181 691.577 474.574 693.496 470.576C695.414 466.579 697.595 462.234 700.036 457.541C702.304 452.849 704.397 448.764 706.315 445.288C707.362 443.203 708.844 440.422 710.763 436.946C712.681 433.296 714.426 429.734 715.995 426.258C716.344 425.389 716.78 424.606 717.303 423.911C719.048 420.783 720.268 418.437 720.966 416.872C721.664 415.134 722.1 413.744 722.274 412.701C722.274 411.658 722.187 410.268 722.013 408.53C721.838 408.009 721.751 407.487 721.751 406.966C721.402 404.011 721.315 401.057 721.489 398.102C721.489 394.974 721.751 392.541 722.274 390.803C724.193 383.503 728.117 376.899 734.047 370.99L737.187 367.861C737.187 367.861 737.448 367.687 737.971 367.34C738.495 366.818 739.105 366.297 739.803 365.776C740.675 365.254 741.46 364.733 742.157 364.211C747.215 360.388 752.622 357.607 758.378 355.869C760.296 355.348 762.564 355.087 765.18 355.087C767.971 354.913 770.238 355 771.982 355.348ZM722.274 427.04L722.797 425.215L719.658 431.471C718.786 433.209 717.739 435.469 716.519 438.25C715.123 440.857 713.902 443.377 712.856 445.81C710.065 451.371 707.275 457.02 704.484 462.755C701.693 468.317 699.513 472.488 697.943 475.269C697.246 476.311 696.723 477.267 696.374 478.136C695.85 479.005 695.589 479.44 695.589 479.44C695.589 479.44 695.676 479.353 695.85 479.179C696.025 479.179 696.286 478.918 696.635 478.397C696.984 478.049 697.42 477.441 697.943 476.572C703.873 469.099 709.368 459.974 714.426 449.199C719.135 439.814 721.751 432.427 722.274 427.04ZM732.216 396.017L732.739 396.538C734.309 393.236 735.791 390.107 737.187 387.153C738.756 384.024 739.89 381.678 740.588 380.114C741.634 377.507 742.419 375.248 742.942 373.336C743.64 371.424 743.902 370.294 743.727 369.947C743.553 369.773 742.942 370.121 741.896 370.99C740.849 371.859 739.628 372.988 738.233 374.379C736.838 375.769 735.442 377.246 734.047 378.811C732.652 380.201 731.605 381.418 730.908 382.46C727.071 388.369 725.152 393.844 725.152 398.884C725.152 399.927 725.239 401.144 725.414 402.534C725.414 403.924 725.501 405.141 725.675 406.184C725.85 407.053 726.024 407.487 726.199 407.487C726.373 407.487 727.071 406.358 728.291 404.098C729.338 401.839 730.646 399.145 732.216 396.017ZM769.104 396.538V396.799C772.941 392.801 775.906 388.543 777.999 384.024C780.267 379.332 781.313 375.248 781.139 371.772C780.616 366.384 777.999 362.821 773.29 361.083C767.535 359.345 760.471 360.562 752.099 364.733C750.878 365.254 750.093 365.689 749.744 366.036C749.57 366.21 749.657 366.471 750.006 366.818C750.18 367.166 750.18 367.687 750.006 368.383C750.006 368.904 749.744 369.773 749.221 370.99C748.872 372.206 748.087 374.031 746.867 376.464C745.82 378.724 744.338 381.765 742.419 385.589C742.245 385.936 742.07 386.371 741.896 386.892C740.675 389.325 739.628 391.411 738.756 393.149C738.059 394.713 737.448 396.017 736.925 397.059C736.402 398.102 736.053 398.884 735.878 399.406C735.704 399.927 735.617 400.362 735.617 400.709C735.617 400.883 735.704 400.97 735.878 400.97C736.053 401.144 736.315 401.404 736.663 401.752C737.012 402.1 737.361 402.534 737.71 403.055C738.931 404.793 740.762 405.923 743.204 406.444C744.599 406.792 746.169 406.966 747.913 406.966C749.832 406.966 751.663 406.792 753.407 406.444C758.988 404.88 764.221 401.578 769.104 396.538Z" fill="#333333"/>
<path d="M734.158 374.987V375.499C734.686 375.67 735.039 376.012 735.215 376.524C735.392 377.037 735.392 377.549 735.215 378.061C735.039 378.403 734.686 378.488 734.158 378.317C726.753 378.317 715.822 380.025 701.366 383.441L693.696 385.234L692.374 387.54C690.435 391.468 687.614 395.481 683.912 399.58C680.209 403.679 676.507 407.095 672.805 409.828C665.576 415.122 660.993 415.378 659.053 410.596C658.701 410.084 658.436 409.571 658.26 409.059C658.084 408.547 657.995 407.949 657.995 407.266C657.995 406.583 657.995 405.643 657.995 404.448V400.093C657.995 400.093 658.172 399.751 658.524 399.068C658.701 398.214 658.965 397.36 659.318 396.506C659.67 395.481 660.023 394.542 660.376 393.688C660.728 392.834 660.993 392.237 661.169 391.895C661.521 391.212 661.962 390.529 662.491 389.846C663.02 389.162 663.461 388.65 663.813 388.308L665.4 387.028L664.342 386.003C660.816 381.733 662.756 376.012 670.16 368.839C676.331 363.544 682.149 361.324 687.614 362.178C692.374 363.203 695.371 365.594 696.605 369.351C696.958 370.547 697.046 372.084 696.87 373.962C696.87 375.67 696.605 377.378 696.076 379.086C695.724 379.94 695.459 380.623 695.283 381.135C695.283 381.648 695.371 381.904 695.548 381.904C695.724 381.904 696.517 381.733 697.928 381.392C699.338 381.05 701.101 380.623 703.217 380.111C712.208 377.549 718.731 376.097 722.786 375.756C726.488 375.243 730.279 374.987 734.158 374.987ZM686.556 388.052L687.35 386.771L686.556 387.028C685.851 387.198 684.617 387.369 682.854 387.54C681.267 387.881 679.769 388.138 678.358 388.308C676.948 388.479 675.802 388.65 674.92 388.821L672.276 389.077V390.358C672.276 390.699 672.099 391.212 671.747 391.895C671.571 392.407 671.306 392.92 670.954 393.432C670.248 394.628 669.455 396.25 668.573 398.299C667.692 400.349 666.899 402.398 666.193 404.448C665.488 406.326 665.136 407.607 665.136 408.29C665.136 408.803 666.282 408.29 668.573 406.753C671.218 405.045 674.391 402.228 678.094 398.299C681.796 394.371 684.617 390.956 686.556 388.052ZM691.316 380.111H691.052C694.931 372.767 694.313 368.583 689.201 367.558C687.79 367.216 686.115 367.131 684.176 367.302C682.237 367.472 680.65 367.814 679.416 368.326C675.714 369.864 672.54 372.169 669.896 375.243C667.251 378.317 666.193 380.879 666.722 382.929C667.78 385.49 672.981 386.088 682.325 384.722C682.678 384.722 683.118 384.637 683.647 384.466C685.587 384.295 686.997 384.124 687.878 383.953C688.76 383.612 689.377 383.185 689.73 382.672C690.259 382.16 690.788 381.392 691.316 380.367C691.316 380.196 691.316 380.111 691.316 380.111Z" fill="#333333"/>
<path d="M1176.41 386.851C1176.9 386.668 1176.76 386.82 1176.79 386.852C1176.75 386.949 1175.82 387.552 1174.35 388.498C1170.19 391.194 1166.62 393.989 1164.61 395.739C1160.68 399.227 1159.11 400.628 1153.65 404.278C1148.23 407.961 1146.44 410.614 1143.5 413.006C1140.75 415.564 1139.66 414.488 1127.12 429.039C1114.97 444.012 1113.28 454.973 1114.55 461.45C1115.11 466.217 1119.36 474.04 1126.99 479.158C1129.98 481.284 1133.14 483.069 1136.19 484.419C1146.59 490.29 1171.06 491.221 1180.23 487.908C1189.43 485.261 1189.6 485.641 1196.85 482.768C1203.97 479.559 1208.61 475.12 1214.91 468.596C1220.5 461.662 1223 460.473 1223.06 450.261C1222.39 442.668 1216.63 436.538 1212.23 433.33C1210.57 432.096 1209.19 431.21 1208.07 430.596C1203.76 428.383 1203.87 427.164 1197.37 424.815C1190.81 422.763 1186.7 422.071 1180.73 421.958C1177.74 421.908 1171.5 422.66 1165.88 425.442C1160.19 428.096 1155.55 432.635 1153.7 435.427C1149.75 440.745 1147.09 448.426 1149.15 452.792C1149.67 454.107 1150.32 455.044 1150.86 455.729C1151.09 456.02 1151.18 456.182 1151.14 456.225C1151.09 456.277 1150.83 456.14 1150.5 455.78C1148.86 454.112 1147.12 450.672 1147.42 446.354C1148.68 438.579 1149.64 437.52 1156.81 429.884C1164.72 423.066 1171.25 419.53 1183.89 419.77C1196.01 421.285 1200.09 420.727 1214.01 430.942C1214.14 431.049 1214.28 431.157 1214.41 431.267C1221.27 437.072 1223.89 441.559 1225.58 446.355C1227.06 451.114 1227.69 457.094 1223.2 465.246C1213.8 481.756 1191.24 489.613 1181.17 491.711C1170.96 494.18 1156.13 495.425 1141.69 490.513C1136.15 488.652 1130.31 485.924 1124.88 482.154C1116.05 476.524 1108.7 465.538 1110.59 454.713C1112.94 437.029 1131.06 420.652 1138.86 413.89C1147.02 407.077 1149.13 405.545 1157.19 399.34C1161.86 395.82 1168.65 390.738 1174.78 387.578C1174.97 387.483 1175.13 387.404 1175.27 387.338C1175.4 387.28 1175.64 387.159 1175.77 387.1C1176.08 386.96 1176.21 386.921 1176.41 386.851ZM1250.11 294.036C1265.1 290.313 1267.12 288.371 1282.73 292.202C1291.34 294.899 1299.41 303.1 1301.89 311.806C1304.12 318.559 1304.41 324.953 1304.04 329.186C1303.66 338.791 1296.98 351.261 1285.67 358.558C1275.92 364.971 1262.06 371.219 1248.04 368.263C1246.37 367.805 1244.77 367.29 1243.2 366.674C1241.67 366.046 1240.08 365.379 1238.53 364.388C1238.49 364.445 1238.45 364.502 1238.42 364.558C1236.87 366.868 1235.07 368.844 1233.24 370.561C1229.58 373.975 1225.8 376.277 1223.01 377.719C1219.17 379.674 1216.48 380.591 1213.97 381.411C1210.93 382.319 1208.23 383.399 1203.27 384.079C1201.74 384.157 1199.69 384.542 1197.93 382.888C1196.36 380.788 1197.74 378.571 1198.61 376.956C1198.83 376.522 1199.41 376.224 1199.84 376.248C1200.28 376.249 1200.63 376.374 1200.96 376.508C1201.6 376.786 1202.14 377.155 1202.66 377.54C1203.69 378.314 1204.59 379.177 1205.42 380.043C1206.29 381.012 1206.67 381.499 1206.64 381.586C1207.05 381.517 1207.48 381.445 1207.94 381.362C1210.22 380.943 1211.91 380.341 1213.4 379.733C1215.5 378.857 1216.99 377.947 1218.76 377.19C1220.25 376.532 1221.05 376.328 1223.23 375.157C1225.31 373.899 1229.28 371.959 1234.42 365.512C1235.13 364.577 1235.76 363.63 1236.3 362.693C1236.24 362.634 1236.17 362.577 1236.11 362.516C1235.08 361.462 1233.67 359.822 1234.23 357.438C1234.85 355.103 1237.75 353.968 1239.78 355.286C1241.21 356.299 1241.07 357.667 1241.02 358.461C1240.93 359.333 1240.71 360.052 1240.44 360.766C1240.37 360.933 1240.31 361.098 1240.24 361.26C1240.62 361.483 1241 361.69 1241.38 361.877C1244.18 363.223 1246.79 363.93 1249.04 364.5C1249.37 364.582 1249.72 364.655 1250.06 364.717C1255.76 366.14 1269.36 364.067 1278.22 358.807C1282.68 356.359 1289.18 351.855 1293.6 345.897C1298.17 340.024 1299.99 332.933 1300.11 328.9C1300.11 320.838 1300.33 320.734 1298.91 314.146C1298.8 313.745 1298.68 313.347 1298.55 312.954C1296.51 307.089 1292.68 303.394 1286.66 299.31C1279.89 295.464 1278.61 294.237 1269.23 293.712C1259.76 293.526 1250.44 296.509 1246.97 298.854C1243.57 301.223 1242.47 300.502 1238.39 304.864C1234.69 309.424 1233.26 312.798 1232.94 317.889C1232.72 320.463 1233.94 325.982 1237.23 330.583C1240.2 335.14 1244.5 338.646 1247.17 339.697C1252.41 342.287 1259.42 341.967 1263.09 340.035C1264.24 339.493 1265.1 338.976 1265.75 338.559C1266.02 338.379 1266.17 338.331 1266.21 338.376C1266.26 338.431 1266.13 338.635 1265.79 338.908C1264.17 340.183 1261.46 341.867 1257.79 342.732C1250.94 343.625 1249.4 343.235 1241.83 337.893C1239.33 335.829 1237.47 333.709 1235.83 331.54C1232.89 327.466 1229.92 322.508 1230.92 314.982C1233.88 304.429 1235.7 300.101 1250.11 294.036ZM1201.65 377.907C1200.77 377.343 1199.57 377.019 1199.53 377.455C1198.89 378.669 1198.52 379.811 1198.59 380.624C1198.69 381.619 1199.13 381.858 1199.68 382.029C1200.26 382.194 1201.01 382.207 1201.77 382.172C1203.06 382.102 1204.54 381.93 1206.58 381.594C1206.38 381.533 1205.64 380.958 1204.52 379.992C1203.54 379.192 1202.58 378.46 1201.65 377.907ZM1237.98 357.892C1237.79 357.879 1237.52 358.003 1237.46 358.158C1237.42 358.249 1237.4 358.331 1237.43 358.508C1237.46 358.68 1237.57 358.935 1237.75 359.195C1237.77 359.221 1237.79 359.245 1237.81 359.27C1237.87 359.033 1237.92 358.805 1237.95 358.588C1238 358.306 1238 358.059 1237.98 357.892Z" fill="#333333"/>
</svg>
