<svg width="749" height="363" viewBox="0 0 749 363" fill="none" xmlns="http://www.w3.org/2000/svg">
<path d="M631.135 255.544C632.286 252.684 632.861 250.396 632.861 248.68C633.321 245.934 632.861 243.99 631.481 242.846C629.41 240.558 624.693 240.558 617.33 242.846C612.269 244.562 607.954 246.792 604.388 249.538C600.822 252.283 598.521 255.086 597.486 257.946C597.025 259.204 596.968 260.52 597.313 261.893C597.658 263.151 598.578 264.867 600.074 267.04C600.649 267.956 601.224 268.871 601.8 269.786C602.375 270.701 602.777 271.445 603.008 272.017L603.87 273.561L605.596 270.816C606.632 268.985 607.897 266.983 609.393 264.81C610.888 262.522 612.269 260.52 613.534 258.804C614.915 256.974 615.835 255.83 616.295 255.372C617.215 254.571 618.136 254.285 619.056 254.514C620.091 254.743 620.897 255.372 621.472 256.402C622.507 258.346 621.932 260.177 619.746 261.893C618.251 263.265 616.18 265.725 613.534 269.271C611.003 272.817 608.76 276.249 606.804 279.567L605.596 281.626V285.401C605.481 286.545 605.366 287.632 605.251 288.661C605.136 289.577 605.021 290.32 604.906 290.892C604.216 293.638 602.662 296.326 600.247 298.957C599.211 300.101 598.463 300.273 598.003 299.472C597.888 299.129 597.716 298.957 597.486 298.957C597.371 298.957 597.255 298.9 597.14 298.785C597.025 298.671 596.853 298.499 596.623 298.271C595.587 297.241 595.242 295.639 595.587 293.466C595.933 291.864 596.68 289.634 597.831 286.774C598.866 283.914 600.074 281.054 601.455 278.194C601.685 277.622 601.857 277.165 601.972 276.821C602.202 276.478 602.317 276.192 602.317 275.963C602.317 275.735 602.26 275.506 602.145 275.277C601.915 274.591 601.455 273.675 600.764 272.531C599.959 271.388 599.154 270.301 598.348 269.271C596.738 267.326 595.645 265.668 595.07 264.295C594.379 262.808 594.092 261.263 594.207 259.662V259.319C594.322 258.747 594.437 258.232 594.552 257.774C594.667 257.202 594.782 256.745 594.897 256.402C596.508 252.627 599.614 249.08 604.216 245.763C605.481 244.848 607.207 243.875 609.393 242.846C611.693 241.702 613.649 240.844 615.26 240.272C617.215 239.471 618.883 238.956 620.264 238.727C621.76 238.499 623.428 238.384 625.268 238.384C626.304 238.384 627.051 238.441 627.512 238.556C628.087 238.556 628.49 238.613 628.72 238.727C629.065 238.727 629.41 238.785 629.755 238.899C632.746 239.929 634.587 241.816 635.277 244.562C635.392 245.019 635.45 245.591 635.45 246.278C635.565 246.85 635.565 247.708 635.45 248.851C635.45 250.682 635.162 252.684 634.587 254.857C633.436 257.145 632.286 257.374 631.135 255.544ZM603.525 286.259L603.698 286.431C603.928 285.172 603.41 285.916 602.145 288.661C601.224 290.72 600.592 292.322 600.247 293.466C599.901 294.496 599.786 295.296 599.901 295.868C599.901 296.097 599.959 296.269 600.074 296.383C600.074 296.497 600.074 296.612 600.074 296.726C600.074 296.841 600.074 296.898 600.074 296.898C600.074 296.898 600.132 296.841 600.247 296.726C600.362 296.612 600.534 296.44 600.764 296.211C600.879 295.983 601.052 295.697 601.282 295.354C601.742 294.553 602.145 293.695 602.49 292.78C602.835 291.864 603.065 290.606 603.18 289.005C603.295 288.433 603.353 287.861 603.353 287.289C603.468 286.717 603.525 286.373 603.525 286.259Z" fill="black"/>
<path d="M607.183 253.141C606.838 253.027 606.665 252.512 606.665 251.597C606.78 250.567 607.01 249.709 607.355 249.023C607.585 248.451 607.643 248.108 607.528 247.993C607.528 247.879 607.298 247.936 606.838 248.165C606.493 248.279 606.032 248.508 605.457 248.851C602.466 250.339 598.9 253.027 594.758 256.916C590.732 260.691 586.993 264.81 583.542 269.271C583.081 269.958 582.679 270.53 582.334 270.987L581.989 271.33C579.343 275.22 577.502 277.851 576.466 279.224C577.387 281.74 578.135 284.2 578.71 286.602C579.285 288.89 579.918 291.807 580.608 295.354C582.334 303.59 583.829 309.653 585.095 313.543C586.475 317.432 588.201 320.807 590.272 323.667C592.802 327.327 595.794 329.672 599.245 330.702C600.855 331.159 602.869 331.331 605.285 331.217C607.7 330.988 609.829 330.473 611.669 329.672C612.705 329.215 613.395 328.986 613.74 328.986C614.2 328.986 614.43 329.215 614.43 329.672L613.74 329.158C613.97 329.615 613.913 330.016 613.568 330.359C613.338 330.702 612.762 331.102 611.842 331.56C609.311 332.818 606.608 333.505 603.732 333.619C600.971 333.848 598.44 333.562 596.139 332.761C592.572 331.388 589.294 328.528 586.303 324.181C584.462 321.436 582.966 318.462 581.816 315.258C580.666 312.055 579.343 307.079 577.847 300.33C576.466 294.953 575.431 291.178 574.741 289.005C574.166 286.717 573.59 285.401 573.015 285.058C572.9 284.943 572.785 284.886 572.67 284.886C572.555 284.886 572.44 284.943 572.325 285.058C572.095 285.287 571.577 286.087 570.772 287.46C569.967 288.833 569.104 290.377 568.183 292.093C567.148 293.695 566.285 295.068 565.595 296.211C564.445 298.271 563.639 299.987 563.179 301.359C562.604 302.618 562.201 303.819 561.971 304.963C561.396 307.136 560.706 307.765 559.9 306.85C559.785 306.736 559.728 306.679 559.728 306.679C559.613 306.564 559.498 306.564 559.383 306.679C559.268 306.793 559.153 306.908 559.038 307.022C558.808 307.022 558.577 307.022 558.347 307.022C557.887 307.022 557.485 306.85 557.139 306.507C556.679 306.05 556.449 305.592 556.449 305.134C556.449 304.105 557.254 301.703 558.865 297.927C560.361 294.152 562.316 289.691 564.732 284.543L565.422 283.17C566.113 282.026 567.436 279.567 569.391 275.792C571.347 272.017 574.626 265.553 579.228 256.402C581.298 252.512 583.369 248.508 585.44 244.39C587.971 239.471 589.926 235.696 591.307 233.065C591.537 232.722 591.71 232.321 591.825 231.864C592.975 229.69 594.068 227.631 595.103 225.686C596.254 223.627 597.117 222.083 597.692 221.053C601.143 214.761 602.984 209.842 603.214 206.296C603.329 205.724 603.444 205.209 603.559 204.752C603.674 204.18 603.789 203.779 603.904 203.551C604.594 202.292 605.515 201.663 606.665 201.663C607.816 201.549 608.793 202.063 609.599 203.207V203.894C609.714 204.237 609.771 204.637 609.771 205.095C609.771 205.438 609.771 205.724 609.771 205.953C609.771 206.182 609.656 206.468 609.426 206.811C609.311 207.154 609.081 207.669 608.736 208.355C608.391 208.927 607.931 209.728 607.355 210.758C606.09 213.045 604.077 216.821 601.316 222.083C598.555 227.345 595.679 232.95 592.687 238.899C589.696 244.848 587.165 249.938 585.095 254.171L580.608 263.78C578.882 267.441 577.444 270.587 576.294 273.218C575.143 275.735 574.568 277.05 574.568 277.165C574.798 277.622 576.179 275.963 578.71 272.188C583.772 265.096 588.776 259.262 593.723 254.686C600.625 248.279 605.457 245.076 608.218 245.076C608.793 245.076 609.196 245.134 609.426 245.248C609.656 245.362 609.886 245.534 610.116 245.763H610.289C611.669 247.364 611.037 249.652 608.391 252.627C608.161 252.97 607.758 253.141 607.183 253.141Z" fill="black"/>
<path d="M574.742 273.389L574.57 273.046C574.915 273.275 575.087 273.618 575.087 274.076C575.202 274.419 575.03 274.877 574.57 275.449L571.291 277.508C561.627 283.342 554.552 287.46 550.066 289.862C545.694 292.265 541.955 294.038 538.849 295.182C528.265 298.957 520.845 298.785 516.588 294.667C516.013 293.981 515.438 293.123 514.863 292.093C514.287 291.064 513.885 290.148 513.655 289.348C513.54 289.119 513.482 288.947 513.482 288.833C513.367 288.604 513.31 288.49 513.31 288.49C513.31 288.49 513.31 288.261 513.31 287.803C513.31 287.231 513.31 286.659 513.31 286.087C513.31 285.401 513.31 284.829 513.31 284.371C513.31 283.914 513.31 283.628 513.31 283.514C513.31 283.514 513.367 283.399 513.482 283.17C513.712 282.713 513.885 282.084 514 281.283C515.15 278.08 517.451 274.877 520.902 271.674C525.274 267.784 529.128 266.983 532.464 269.271C534.765 270.987 535.225 273.275 533.845 276.135C532.119 279.224 529.301 281.74 525.389 283.685C524.584 284.143 523.894 284.429 523.318 284.543C522.858 284.543 522.283 284.543 521.593 284.543C521.133 284.657 520.787 284.715 520.557 284.715C520.327 284.715 520.155 284.657 520.04 284.543C519.81 284.429 519.579 284.314 519.349 284.2C518.889 283.742 518.544 283.628 518.314 283.857C518.084 283.971 517.854 284.6 517.624 285.744C517.509 286.316 517.451 286.774 517.451 287.117C517.336 287.46 517.336 287.803 517.451 288.147C517.451 288.49 517.509 288.89 517.624 289.348C518.429 292.78 521.478 294.496 526.77 294.496C534.017 294.496 544.198 290.663 557.313 282.999C558.694 282.198 560.247 281.283 561.973 280.253C564.158 279.109 565.999 278.08 567.495 277.165C567.84 276.936 568.185 276.707 568.53 276.478C571.751 274.762 573.822 273.733 574.742 273.389ZM521.075 278.709L520.212 279.738L521.593 279.567C522.628 279.338 523.606 279.052 524.526 278.709C525.447 278.251 526.367 277.679 527.287 276.993C528.208 276.192 528.898 275.506 529.358 274.934C530.163 273.904 529.818 273.504 528.323 273.733C527.287 273.961 526.079 274.533 524.699 275.449C523.318 276.364 522.11 277.451 521.075 278.709Z" fill="black"/>
<path d="M523.996 268.756V269.1C524.342 269.214 524.572 269.443 524.687 269.786C524.802 270.129 524.802 270.472 524.687 270.816C524.572 271.044 524.342 271.102 523.996 270.987C519.165 270.987 512.032 272.131 502.599 274.419L497.594 275.62L496.731 277.165C495.466 279.796 493.625 282.484 491.209 285.229C488.793 287.975 486.378 290.263 483.962 292.093C479.245 295.64 476.254 295.811 474.988 292.608C474.758 292.265 474.586 291.922 474.471 291.578C474.356 291.235 474.298 290.835 474.298 290.377C474.298 289.92 474.298 289.291 474.298 288.49V285.573C474.298 285.573 474.413 285.344 474.643 284.886C474.758 284.314 474.931 283.742 475.161 283.17C475.391 282.484 475.621 281.855 475.851 281.283C476.081 280.711 476.254 280.31 476.369 280.082C476.599 279.624 476.887 279.166 477.232 278.709C477.577 278.251 477.864 277.908 478.095 277.679L479.13 276.821L478.44 276.135C476.139 273.275 477.404 269.443 482.236 264.638C486.263 261.092 490.059 259.605 493.625 260.177C496.731 260.863 498.687 262.465 499.492 264.981C499.722 265.782 499.78 266.812 499.665 268.07C499.665 269.214 499.492 270.358 499.147 271.502C498.917 272.074 498.745 272.532 498.63 272.875C498.63 273.218 498.687 273.389 498.802 273.389C498.917 273.389 499.435 273.275 500.355 273.046C501.276 272.818 502.426 272.531 503.806 272.188C509.674 270.472 513.93 269.5 516.576 269.271C518.992 268.928 521.466 268.756 523.996 268.756ZM492.935 277.508L493.453 276.65L492.935 276.821C492.475 276.936 491.67 277.05 490.519 277.165C489.484 277.393 488.506 277.565 487.586 277.679C486.665 277.794 485.917 277.908 485.342 278.023L483.617 278.194V279.052C483.617 279.281 483.502 279.624 483.271 280.082C483.156 280.425 482.984 280.768 482.754 281.111C482.294 281.912 481.776 282.999 481.201 284.371C480.625 285.744 480.108 287.117 479.648 288.49C479.187 289.748 478.957 290.606 478.957 291.064C478.957 291.407 479.705 291.064 481.201 290.034C482.926 288.89 484.997 287.003 487.413 284.371C489.829 281.74 491.67 279.452 492.935 277.508ZM496.041 272.188H495.869C498.399 267.269 497.997 264.467 494.661 263.78C493.74 263.551 492.647 263.494 491.382 263.609C490.116 263.723 489.081 263.952 488.276 264.295C485.86 265.325 483.789 266.869 482.064 268.928C480.338 270.987 479.648 272.703 479.993 274.076C480.683 275.792 484.077 276.192 490.174 275.277C490.404 275.277 490.692 275.22 491.037 275.105C492.302 274.991 493.223 274.877 493.798 274.762C494.373 274.533 494.776 274.247 495.006 273.904C495.351 273.561 495.696 273.046 496.041 272.36C496.041 272.245 496.041 272.188 496.041 272.188Z" fill="black"/>
<path d="M467.307 256.058L466.961 256.402C472.138 257.66 475.014 261.035 475.59 266.526C475.82 271.102 474.152 276.249 470.585 281.969C464.143 291.235 456.953 295.182 449.015 293.809C445.679 293.123 443.378 291.636 442.112 289.348L441.422 288.147L439.351 291.922L437.453 295.868V297.927C437.453 303.533 435.843 309.882 432.621 316.974C431.586 319.377 430.148 322.179 428.307 325.383C426.352 328.471 424.338 331.503 422.268 334.477C421.692 335.392 420.83 336.479 419.679 337.737C418.414 338.996 417.263 340.14 416.228 341.169C415.077 342.199 414.387 342.714 414.157 342.714C414.042 342.714 413.869 342.599 413.639 342.37C413.409 342.256 413.179 342.084 412.949 341.856C412.834 341.741 412.777 341.684 412.777 341.684C412.431 341.455 412.201 341.226 412.086 340.998C411.971 340.883 411.971 340.597 412.086 340.14C412.086 340.025 412.144 339.854 412.259 339.625C412.489 338.824 412.777 337.966 413.122 337.051C413.467 336.25 414.272 334.534 415.538 331.903C416.803 329.272 418.241 326.412 419.852 323.323C421.347 320.235 422.728 317.546 423.993 315.258C424.683 313.886 425.661 312.055 426.927 309.767C428.192 307.365 429.343 305.02 430.378 302.732C430.608 302.16 430.896 301.645 431.241 301.188C432.391 299.129 433.197 297.584 433.657 296.555C434.117 295.411 434.405 294.496 434.52 293.809C434.52 293.123 434.462 292.208 434.347 291.064C434.232 290.72 434.174 290.377 434.174 290.034C433.944 288.089 433.887 286.145 434.002 284.2C434.002 282.141 434.174 280.539 434.52 279.395C435.785 274.591 438.373 270.244 442.285 266.354L444.356 264.295C444.356 264.295 444.528 264.181 444.873 263.952C445.218 263.609 445.621 263.265 446.081 262.922C446.657 262.579 447.174 262.236 447.634 261.893C450.971 259.376 454.537 257.546 458.333 256.402C459.599 256.058 461.094 255.887 462.82 255.887C464.661 255.772 466.156 255.83 467.307 256.058ZM434.52 303.247L434.865 302.046L432.794 306.164C432.219 307.308 431.528 308.795 430.723 310.625C429.803 312.341 428.998 314 428.307 315.602C426.467 319.262 424.626 322.98 422.785 326.755C420.945 330.416 419.507 333.161 418.471 334.992C418.011 335.678 417.666 336.307 417.436 336.879C417.091 337.451 416.918 337.737 416.918 337.737C416.918 337.737 416.976 337.68 417.091 337.566C417.206 337.566 417.378 337.394 417.608 337.051C417.838 336.822 418.126 336.422 418.471 335.85C422.383 330.931 426.006 324.925 429.343 317.832C432.449 311.655 434.174 306.793 434.52 303.247ZM441.077 282.827L441.422 283.17C442.457 280.997 443.435 278.938 444.356 276.993C445.391 274.934 446.139 273.389 446.599 272.36C447.289 270.644 447.807 269.157 448.152 267.898C448.612 266.64 448.785 265.897 448.67 265.668C448.555 265.553 448.152 265.782 447.462 266.354C446.772 266.926 445.966 267.67 445.046 268.585C444.126 269.5 443.205 270.472 442.285 271.502C441.365 272.417 440.674 273.218 440.214 273.904C437.683 277.794 436.418 281.397 436.418 284.715C436.418 285.401 436.475 286.202 436.59 287.117C436.59 288.032 436.648 288.833 436.763 289.519C436.878 290.091 436.993 290.377 437.108 290.377C437.223 290.377 437.683 289.634 438.489 288.147C439.179 286.659 440.042 284.886 441.077 282.827ZM465.408 283.17V283.342C467.939 280.711 469.895 277.908 471.276 274.934C472.771 271.845 473.461 269.157 473.346 266.869C473.001 263.323 471.276 260.977 468.169 259.834C464.373 258.69 459.714 259.49 454.192 262.236C453.387 262.579 452.869 262.865 452.639 263.094C452.524 263.208 452.581 263.38 452.811 263.609C452.926 263.837 452.926 264.181 452.811 264.638C452.811 264.981 452.639 265.553 452.294 266.354C452.064 267.155 451.546 268.356 450.741 269.958C450.05 271.445 449.072 273.447 447.807 275.963C447.692 276.192 447.577 276.478 447.462 276.821C446.657 278.423 445.966 279.796 445.391 280.94C444.931 281.969 444.528 282.827 444.183 283.514C443.838 284.2 443.608 284.715 443.493 285.058C443.378 285.401 443.32 285.687 443.32 285.916C443.32 286.03 443.378 286.087 443.493 286.087C443.608 286.202 443.78 286.373 444.011 286.602C444.241 286.831 444.471 287.117 444.701 287.46C445.506 288.604 446.714 289.348 448.325 289.691C449.245 289.92 450.28 290.034 451.431 290.034C452.696 290.034 453.904 289.92 455.055 289.691C458.736 288.661 462.187 286.488 465.408 283.17Z" fill="black"/>
<path d="M559.5 111.623C560.423 116.815 559.384 120.853 556.385 123.737C553.385 126.622 550.097 128.756 546.52 130.14C543.059 131.525 539.31 132.506 535.271 133.082C531.233 133.659 527.657 133.948 524.542 133.948C520.965 133.948 517.216 133.775 513.293 133.428C509.37 133.082 505.101 132.332 500.487 131.179C495.756 129.679 491.372 128.121 487.334 126.506C487.219 126.622 487.046 126.795 486.815 127.025C478.854 133.025 471.355 139.255 464.317 145.716C457.28 152.061 450.934 158.407 445.281 164.752C439.627 171.098 434.378 177.732 429.532 184.654C424.571 190.769 419.437 197.806 414.13 205.767C408.823 213.728 403.977 221.862 399.593 230.168C395.209 238.36 391.575 246.205 388.691 253.704C385.922 261.204 384.537 267.492 384.537 272.568C384.537 275.683 385.287 278.394 386.787 280.702C388.287 283.009 390.19 284.913 392.498 286.413C394.805 287.913 397.343 289.009 400.112 289.701C402.881 290.508 405.535 290.912 408.073 290.912C412.803 290.912 417.418 289.874 421.918 287.797C426.533 285.836 430.917 283.182 435.07 279.836C439.224 276.375 443.146 272.395 446.838 267.895C450.184 263.973 453.299 259.819 456.183 255.435C453.184 260.281 450.126 264.896 447.011 269.28C443.55 274.125 439.743 278.394 435.589 282.086C431.551 285.894 427.052 288.893 422.091 291.085C417.13 293.277 411.477 294.373 405.131 294.373C401.439 294.373 397.92 293.854 394.574 292.816C391.229 291.777 388.287 290.22 385.749 288.143C383.21 286.182 381.191 283.701 379.691 280.702C378.192 277.587 377.442 274.01 377.442 269.972C377.442 264.319 378.711 257.8 381.249 250.416C383.787 242.917 386.96 235.303 390.767 227.573C394.69 219.843 399.016 212.401 403.747 205.248C408.477 197.98 413.034 191.692 417.418 186.385C423.995 178.885 430.513 171.905 436.974 165.444C443.55 158.868 450.53 152.234 457.914 145.543C465.298 138.851 473.086 132.39 481.277 126.16C481.969 125.699 482.604 125.179 483.181 124.602C477.643 122.18 472.797 119.641 468.644 116.988C460.568 111.911 453.068 106.489 446.146 100.72C439.224 94.8363 432.705 88.8946 426.59 82.8953C420.591 76.7805 414.592 71.0119 408.592 65.5894C388.171 45.053 366.25 29.4777 342.83 18.8634C319.409 8.13378 295.296 2.76895 270.491 2.76895C258.723 2.76895 247.128 3.92267 235.706 6.23013C224.284 8.42221 213.382 11.6526 202.998 15.9214C192.73 20.1902 183.212 25.4974 174.443 31.8429C165.675 38.1884 158.061 45.4568 151.6 53.6483C145.254 61.8398 140.293 70.9542 136.717 80.9916C133.14 91.029 131.352 101.874 131.352 113.527C131.352 122.526 132.852 131.006 135.851 138.966C138.851 146.812 142.889 154.08 147.965 160.772C152.119 166.079 156.849 170.982 162.156 175.482C164.81 173.867 167.463 172.424 170.117 171.155C176.116 168.386 182.116 166.252 188.115 164.752C194.23 163.252 199.998 162.502 205.421 162.502C213.728 162.502 221.804 163.772 229.649 166.31C237.61 168.733 244.648 172.194 250.762 176.693C256.877 181.077 261.781 186.385 265.473 192.615C266.511 194.461 267.434 196.307 268.241 198.153C272.049 196.999 275.741 195.672 279.317 194.172C286.24 191.288 292.816 187.769 299.046 183.616C305.276 179.347 310.756 174.501 315.487 169.079C320.217 163.656 323.966 157.657 326.735 151.081C329.504 144.504 330.889 137.351 330.889 129.621C330.889 121.66 329.447 114.334 326.562 107.643C323.678 100.951 319.582 95.1825 314.275 90.3368C309.083 85.4912 302.853 81.7415 295.585 79.088C288.316 76.319 280.298 74.9346 271.53 74.9346C266.107 74.9346 260.742 75.7999 255.435 77.5304C250.243 79.1457 245.225 81.3954 240.379 84.2797C235.533 87.1641 230.976 90.5676 226.707 94.4902C222.438 98.4129 218.689 102.624 215.458 107.124C218.92 101.47 222.785 96.4516 227.053 92.0674C231.322 87.5679 235.879 83.8182 240.725 80.8186C245.571 77.8189 250.589 75.5114 255.781 73.8962C260.973 72.281 266.165 71.4734 271.356 71.4734C281.971 71.4734 291.547 73.0886 300.084 76.319C308.622 79.5495 315.833 83.9336 321.717 89.4715C327.716 94.894 332.331 101.24 335.561 108.508C338.792 115.776 340.407 123.506 340.407 131.698C340.407 140.582 338.907 148.6 335.908 155.753C332.908 162.791 328.812 169.079 323.62 174.617C318.544 180.039 312.602 184.712 305.795 188.634C299.104 192.442 291.951 195.614 284.336 198.153C279.49 199.768 274.587 201.095 269.626 202.133C270.664 205.594 271.183 209.228 271.183 213.036C271.183 220.881 268.299 227.861 262.53 233.976C256.762 239.975 248.859 245.398 238.821 250.243C246.782 253.935 252.955 258.781 257.339 264.78C261.838 270.664 264.261 276.894 264.607 283.471C269.337 281.163 274.183 278.106 279.144 274.299C284.105 270.491 289.066 266.222 294.027 261.492C298.988 256.647 303.834 251.512 308.564 246.09C313.294 240.667 317.794 235.245 322.063 229.822C326.332 224.284 330.254 218.92 333.831 213.728C337.407 208.421 341.388 202.306 345.772 195.384C347.502 192.615 349.118 189.903 350.618 187.25C352.233 184.596 353.79 181.943 355.29 179.289C356.905 176.52 358.521 173.694 360.136 170.809C361.866 167.925 363.77 164.81 365.847 161.464C369.308 155.349 372.423 149.927 375.192 145.197C378.076 140.351 381.018 135.678 384.018 131.179C387.133 126.564 390.19 122.41 393.19 118.718C396.305 115.027 399.189 112.488 401.843 111.104H404.958C402.304 113.296 399.709 116.18 397.17 119.757C394.632 123.218 392.094 127.198 389.556 131.698C387.133 136.082 384.595 140.87 381.941 146.062C379.288 151.254 375.826 157.83 371.558 165.791C368.673 170.175 365.847 175.02 363.078 180.327C360.424 185.635 357.367 191.288 353.906 197.287C348.368 206.286 342.484 214.766 336.254 222.727C330.023 230.688 323.101 238.648 315.487 246.609C307.872 254.454 299.738 261.954 291.085 269.107C282.432 276.145 273.722 282.029 264.953 286.759C264.953 298.988 262.473 309.776 257.512 319.121C252.666 328.466 246.263 336.311 238.302 342.657C230.342 349.002 221.285 353.79 211.132 357.021C200.979 360.367 190.596 362.039 179.981 362.039C172.136 362.039 164.233 360.886 156.272 358.578C148.312 356.271 140.985 352.81 134.294 348.195C127.718 343.58 122.122 337.811 117.507 330.889C113.008 324.082 110.239 316.063 109.2 306.834C107.816 306.949 106.374 307.007 104.874 307.007H100.72C93.1058 307.007 85.3181 306.314 77.3574 304.93C69.3966 303.661 61.6667 301.642 54.1675 298.873C46.7836 296.104 39.8036 292.585 33.2273 288.316C26.6511 284.163 20.8824 279.202 15.9214 273.433C11.0758 267.665 7.21077 261.146 4.32646 253.878C1.44214 246.494 0 238.245 0 229.13C0 221.862 1.38447 215.055 4.15341 208.709C6.92236 202.364 10.672 196.826 15.4022 192.095C20.1325 187.25 25.6127 183.443 31.8428 180.674C38.073 177.905 44.7069 176.52 51.7446 176.52C57.3979 176.52 63.1665 177.443 69.0505 179.289C74.9345 181.135 80.2994 183.789 85.145 187.25C89.9907 190.711 93.971 194.922 97.0861 199.883C100.201 204.729 101.759 210.267 101.759 216.497C101.759 220.535 101.066 224.573 99.682 228.611C98.4129 232.534 96.4515 236.052 93.798 239.168C91.2598 242.283 88.0293 244.821 84.1067 246.782C80.184 248.628 75.6844 249.551 70.608 249.551C68.6467 249.551 66.6277 249.436 64.551 249.205C65.5894 249.205 66.57 249.205 67.493 249.205C72.1079 249.205 76.3767 248.34 80.2994 246.609C84.2221 244.763 87.6255 242.398 90.5099 239.514C93.3942 236.514 95.6439 233.11 97.2591 229.303C98.9897 225.381 99.855 221.285 99.855 217.016C99.855 211.132 98.4129 205.825 95.5286 201.095C92.7596 196.249 89.0677 192.153 84.4528 188.807C79.8379 185.346 74.6461 182.693 68.8775 180.847C63.1089 179.001 57.2825 178.078 51.3985 178.078C45.053 178.078 38.9383 179.405 33.0543 182.058C27.2856 184.712 22.1515 188.346 17.652 192.961C13.1525 197.576 9.57591 202.941 6.92234 209.055C4.26877 215.055 2.942 221.516 2.942 228.438C2.942 237.206 4.32647 245.167 7.09541 252.32C9.86435 259.473 13.614 265.876 18.3442 271.53C23.0745 277.067 28.6124 281.913 34.9579 286.067C41.4188 290.22 48.3411 293.623 55.725 296.277C63.1088 299.046 70.7234 301.065 78.5688 302.334C86.4141 303.719 94.2018 304.411 101.932 304.411H105.047C106.085 304.411 107.239 304.353 108.508 304.238C108.508 281.971 114.796 262.704 127.371 246.436C126.679 244.59 126.045 242.34 125.468 239.687C125.006 237.033 124.776 234.033 124.776 230.688C124.776 223.881 125.987 217.477 128.41 211.478C130.948 205.479 134.294 199.999 138.447 195.038C142.716 189.961 147.562 185.404 152.984 181.366C155.061 179.866 157.08 178.482 159.041 177.212L158.868 177.039C149.292 168.386 141.793 158.407 136.37 147.1C131.063 135.794 128.41 123.968 128.41 111.623C128.41 92.7019 132.159 76.2613 139.659 62.3012C147.273 48.3412 157.541 36.7462 170.463 27.5164C183.5 18.2866 198.614 11.4219 215.805 6.92235C232.995 2.30745 251.224 0 270.491 0C284.336 0 297.892 1.73059 311.16 5.19177C324.543 8.65296 337.292 13.2679 349.406 19.0365C361.52 24.6898 372.827 31.1506 383.326 38.4191C393.825 45.5722 403.112 52.9561 411.188 60.5707C417.995 67.0315 424.802 73.5501 431.609 80.1263C438.531 86.7026 445.569 92.9904 452.722 98.9898C459.875 104.874 467.202 110.239 474.701 115.084C478.393 117.507 482.488 119.757 486.988 121.834C493.333 117.334 499.794 113.238 506.371 109.546C515.024 104.701 525.349 101.816 537.348 100.893C549.462 99.855 556.846 103.432 559.5 111.623ZM264.434 209.921C264.319 207.613 264.088 205.421 263.742 203.344C262.819 203.46 261.838 203.575 260.8 203.69C252.839 204.844 245.109 205.421 237.61 205.421C221.573 205.421 206.863 202.883 193.48 197.806C181.02 193.076 170.232 186.788 161.118 178.943C158.926 180.327 156.791 181.77 154.715 183.269C149.523 186.961 144.908 191.173 140.87 195.903C136.832 200.633 133.602 205.825 131.179 211.478C128.756 217.131 127.544 223.073 127.544 229.303C127.544 232.188 127.775 234.841 128.237 237.264C128.698 239.687 129.275 241.879 129.967 243.84C134.005 240.379 138.159 237.091 142.428 233.976C146.696 230.745 151.138 227.919 155.753 225.496C160.368 223.073 165.041 221.169 169.771 219.785C174.617 218.285 179.578 217.535 184.654 217.535C190.769 217.535 195.441 219.035 198.672 222.035C202.018 225.034 203.69 229.303 203.69 234.841C203.69 235.995 203.575 237.149 203.344 238.302C203.229 239.456 203.056 240.667 202.825 241.936C202.018 245.282 200.748 248.974 199.018 253.012C197.287 257.05 195.038 261.088 192.269 265.126C189.5 269.164 186.211 273.145 182.404 277.067C178.712 280.875 174.443 284.278 169.598 287.278C176.52 290.508 183.327 292.758 190.019 294.027C196.826 295.412 203.517 296.104 210.094 296.104C219.785 296.104 229.015 295.123 237.783 293.162C246.667 291.201 254.743 288.432 262.011 284.855C261.55 278.279 259.3 271.991 255.262 265.992C251.224 259.992 245.109 254.916 236.918 250.763C234.033 251.916 231.38 252.782 228.957 253.358C226.534 253.82 224.4 254.051 222.554 254.051C217.824 254.051 215.458 252.782 215.458 250.243C215.689 248.628 216.554 247.474 218.054 246.782C219.554 246.09 221.342 245.744 223.419 245.744C225.727 245.744 228.092 246.09 230.515 246.782C232.937 247.359 235.072 248.051 236.918 248.859C240.725 247.359 244.302 245.34 247.647 242.802C250.993 240.148 253.878 237.149 256.3 233.803C258.839 230.342 260.8 226.592 262.184 222.554C263.684 218.516 264.434 214.305 264.434 209.921ZM262.011 287.97C254.627 291.431 246.724 294.143 238.302 296.104C229.88 298.065 221.169 299.046 212.17 299.046C204.556 299.046 196.941 298.238 189.327 296.623C181.827 295.123 174.386 292.643 167.002 289.182C164.233 291.143 161.003 293.047 157.311 294.893C153.734 296.739 149.638 298.469 145.023 300.084C140.408 301.7 135.332 303.084 129.794 304.238C124.256 305.507 118.199 306.372 111.623 306.834C113.238 316.41 116.353 324.486 120.968 331.062C125.583 337.638 131.121 342.945 137.582 346.983C144.158 351.137 151.369 354.136 159.214 355.982C167.175 357.828 175.309 358.751 183.616 358.751C193.768 358.751 203.517 357.021 212.863 353.56C222.323 350.214 230.688 345.426 237.956 339.196C245.225 332.966 251.051 325.524 255.435 316.871C259.819 308.218 262.011 298.584 262.011 287.97ZM197.46 233.803C197.46 229.649 196.422 226.188 194.345 223.419C192.269 220.535 188.634 219.093 183.443 219.093C178.482 219.093 173.809 219.785 169.425 221.169C165.041 222.554 160.714 224.458 156.445 226.88C152.292 229.303 148.081 232.187 143.812 235.533C139.543 238.879 135.101 242.513 130.486 246.436C134.294 256.82 139.197 265.069 145.197 271.183C151.196 277.298 158.291 282.259 166.483 286.067C171.213 282.49 175.251 278.625 178.597 274.472C182.058 270.203 185 266.049 187.423 262.011C189.846 257.973 191.749 254.166 193.134 250.589C194.634 247.013 195.787 243.956 196.595 241.417C197.172 238.533 197.46 235.995 197.46 233.803ZM171.328 173.578C169.021 174.732 166.713 175.943 164.406 177.212C164.983 177.674 165.56 178.078 166.137 178.424C173.059 183.616 180.443 188.057 188.288 191.749C196.249 195.326 204.383 198.095 212.689 200.056C221.112 201.902 229.419 202.825 237.61 202.825C244.186 202.825 251.051 202.075 258.204 200.575C259.819 200.229 261.377 199.883 262.877 199.537C261.954 196.537 260.742 193.711 259.242 191.057C256.012 185.519 251.685 180.847 246.263 177.039C240.956 173.232 234.783 170.348 227.746 168.386C220.823 166.425 213.555 165.444 205.94 165.444C200.633 165.444 194.98 166.137 188.98 167.521C183.096 168.906 177.212 170.925 171.328 173.578ZM163.887 287.97C160.772 286.355 157.368 284.336 153.676 281.913C150.1 279.49 146.639 276.664 143.293 273.433C139.947 270.087 136.89 266.396 134.121 262.357C131.467 258.204 129.448 253.705 128.064 248.859C122.872 255.781 118.661 263.396 115.43 271.703C112.315 279.894 110.758 288.547 110.758 297.661C110.758 298.815 110.758 299.854 110.758 300.777C110.873 301.815 110.988 302.969 111.104 304.238C122.756 303.315 132.736 301.469 141.043 298.7C149.35 295.931 156.964 292.354 163.887 287.97ZM511.043 110.931C504.236 114.738 497.545 119.007 490.968 123.737C494.66 125.352 498.583 126.852 502.736 128.237C506.082 129.044 509.601 129.621 513.293 129.967C516.985 130.198 520.158 130.313 522.811 130.313C526.272 130.313 529.907 130.025 533.714 129.448C537.637 128.756 541.213 127.775 544.444 126.506C547.789 125.237 550.962 123.276 553.962 120.622C557.077 117.969 557.711 114.277 555.865 109.546C554.135 104.816 548.251 102.682 538.213 103.143C528.291 103.605 519.235 106.201 511.043 110.931ZM234.322 250.243C233.284 249.551 231.668 248.917 229.476 248.34C227.4 247.763 225.381 247.474 223.419 247.474C221.919 247.474 220.65 247.705 219.612 248.167C218.574 248.628 218.054 249.32 218.054 250.243C218.054 251.859 219.381 252.666 222.035 252.666C223.765 252.666 225.784 252.435 228.092 251.974C230.399 251.397 232.476 250.82 234.322 250.243ZM60.2245 248.513C57.6863 247.936 55.0904 247.013 52.4369 245.744C56.7057 247.474 60.7437 248.628 64.551 249.205C63.1665 248.974 61.7244 248.743 60.2245 248.513Z" fill="black"/>
<path d="M680.541 266.669C681.363 266.669 682.235 266.721 683.159 266.823C684.083 266.823 684.956 266.875 685.777 266.977C692.553 254.144 699.74 240.797 707.337 226.937C714.934 213.077 722.173 199.628 729.051 186.589C729.975 184.947 730.745 183.509 731.361 182.277C731.977 181.045 732.388 180.327 732.593 180.121C733.312 178.684 734.082 177.914 734.903 177.811C735.725 177.709 736.443 177.965 737.059 178.581C737.573 179.095 737.727 179.916 737.521 181.045C737.419 182.072 737.059 182.945 736.443 183.663C735.725 184.382 735.108 184.741 734.595 184.741C731.72 190.491 728.435 197.061 724.739 204.453C721.043 211.743 717.245 219.237 713.343 226.937C709.545 234.535 705.797 241.927 702.101 249.113C698.508 256.3 695.376 262.563 692.707 267.901C694.452 268.312 696.249 268.723 698.097 269.133C700.048 269.544 701.947 270.006 703.795 270.519C706.567 271.238 709.339 271.905 712.111 272.521C714.883 273.137 717.655 273.651 720.427 274.061C720.838 273.24 721.351 272.213 721.967 270.981C722.583 269.749 723.097 268.723 723.507 267.901C723.815 267.285 724.38 267.08 725.201 267.285C725.92 267.491 726.125 268.107 725.817 269.133L723.199 274.369C724.02 274.575 724.945 274.729 725.971 274.831C727.101 274.934 728.179 274.985 729.205 274.985C730.643 274.985 731.977 274.934 733.209 274.831C734.544 274.729 735.879 274.421 737.213 273.907C738.035 273.702 738.907 273.343 739.831 272.829C740.755 272.213 741.525 271.597 742.141 270.981C742.552 270.673 742.654 270.057 742.449 269.133C742.346 268.107 742.398 267.388 742.603 266.977C743.014 266.053 743.784 265.386 744.913 264.975C746.043 264.565 746.915 264.616 747.531 265.129C748.147 265.643 748.507 266.31 748.609 267.131C748.712 267.85 748.147 268.825 746.915 270.057C745.991 270.981 745.067 271.803 744.143 272.521C743.322 273.24 742.655 273.753 742.141 274.061C737.932 276.936 732.953 278.373 727.203 278.373C726.177 278.373 725.201 278.322 724.277 278.219C723.353 278.117 722.378 278.014 721.351 277.911C718.682 283.147 716.115 288.537 713.651 294.081C711.187 299.523 708.621 304.861 705.951 310.097C705.849 310.303 705.643 310.508 705.335 310.713C705.13 310.919 704.771 310.919 704.257 310.713C703.641 310.611 703.487 309.995 703.795 308.865L718.887 277.603C718.169 277.501 717.193 277.347 715.961 277.141C714.729 276.833 713.241 276.474 711.495 276.063C708.21 275.345 704.822 274.472 701.331 273.445C699.586 272.932 697.892 272.47 696.249 272.059C694.607 271.649 692.964 271.238 691.321 270.827C691.116 271.341 690.859 271.854 690.551 272.367C690.243 272.881 689.987 273.343 689.781 273.753C689.268 274.78 688.857 275.55 688.549 276.063C688.241 276.577 687.985 277.039 687.779 277.449C686.445 279.297 684.597 280.837 682.235 282.069C679.874 283.301 676.743 283.661 672.841 283.147C671.301 282.942 670.018 282.172 668.991 280.837C668.067 279.503 667.605 278.065 667.605 276.525C667.605 275.396 667.862 274.267 668.375 273.137C668.889 271.905 669.864 270.673 671.301 269.441C672.431 268.62 673.663 268.004 674.997 267.593C676.332 267.08 677.718 266.772 679.155 266.669H680.541ZM681.003 275.293C681.414 274.575 681.825 273.805 682.235 272.983C682.749 272.059 683.416 270.879 684.237 269.441C683.108 269.236 682.132 269.133 681.311 269.133C680.592 269.133 679.977 269.133 679.463 269.133C676.999 269.133 674.895 269.852 673.149 271.289C672.225 272.008 671.455 272.881 670.839 273.907C670.223 274.934 669.915 275.807 669.915 276.525C669.915 278.579 671.25 279.759 673.919 280.067C675.049 280.17 676.229 279.913 677.461 279.297C678.693 278.579 679.669 277.655 680.387 276.525L681.003 275.293Z" fill="black"/>
</svg>
