<svg width="492" height="280" viewBox="0 0 492 280" fill="none" xmlns="http://www.w3.org/2000/svg">
<path d="M364.032 187.992L363.84 188.184C366.72 188.888 368.32 190.776 368.64 193.848C368.768 196.408 367.84 199.288 365.856 202.488C362.272 207.672 358.272 209.88 353.856 209.112C352 208.728 350.72 207.896 350.016 206.616L349.632 205.944L348.48 208.056L347.424 210.264V211.416C347.424 214.552 346.528 218.104 344.736 222.072C344.16 223.416 343.36 224.984 342.336 226.776C341.248 228.504 340.128 230.2 338.976 231.864C338.656 232.376 338.176 232.984 337.536 233.688C336.832 234.392 336.192 235.032 335.616 235.608C334.976 236.184 334.592 236.472 334.464 236.472C334.4 236.472 334.304 236.408 334.176 236.28C334.048 236.216 333.92 236.12 333.792 235.992C333.728 235.928 333.696 235.896 333.696 235.896C333.504 235.768 333.376 235.64 333.312 235.512C333.248 235.448 333.248 235.288 333.312 235.032C333.312 234.968 333.344 234.872 333.408 234.744C333.536 234.296 333.696 233.816 333.888 233.304C334.08 232.856 334.528 231.896 335.232 230.424C335.936 228.952 336.736 227.352 337.632 225.624C338.464 223.896 339.232 222.392 339.936 221.112C340.32 220.344 340.864 219.32 341.568 218.04C342.272 216.696 342.912 215.384 343.488 214.104C343.616 213.784 343.776 213.496 343.968 213.24C344.608 212.088 345.056 211.224 345.312 210.648C345.568 210.008 345.728 209.496 345.792 209.112C345.792 208.728 345.76 208.216 345.696 207.576C345.632 207.384 345.6 207.192 345.6 207C345.472 205.912 345.44 204.824 345.504 203.736C345.504 202.584 345.6 201.688 345.792 201.048C346.496 198.36 347.936 195.928 350.112 193.752L351.264 192.6C351.264 192.6 351.36 192.536 351.552 192.408C351.744 192.216 351.968 192.024 352.224 191.832C352.544 191.64 352.832 191.448 353.088 191.256C354.944 189.848 356.928 188.824 359.04 188.184C359.744 187.992 360.576 187.896 361.536 187.896C362.56 187.832 363.392 187.864 364.032 187.992ZM345.792 214.392L345.984 213.72L344.832 216.024C344.512 216.664 344.128 217.496 343.68 218.52C343.168 219.48 342.72 220.408 342.336 221.304C341.312 223.352 340.288 225.432 339.264 227.544C338.24 229.592 337.44 231.128 336.864 232.152C336.608 232.536 336.416 232.888 336.288 233.208C336.096 233.528 336 233.688 336 233.688C336 233.688 336.032 233.656 336.096 233.592C336.16 233.592 336.256 233.496 336.384 233.304C336.512 233.176 336.672 232.952 336.864 232.632C339.04 229.88 341.056 226.52 342.912 222.552C344.64 219.096 345.6 216.376 345.792 214.392ZM349.44 202.968L349.632 203.16C350.208 201.944 350.752 200.792 351.264 199.704C351.84 198.552 352.256 197.688 352.512 197.112C352.896 196.152 353.184 195.32 353.376 194.616C353.632 193.912 353.728 193.496 353.664 193.368C353.6 193.304 353.376 193.432 352.992 193.752C352.608 194.072 352.16 194.488 351.648 195C351.136 195.512 350.624 196.056 350.112 196.632C349.6 197.144 349.216 197.592 348.96 197.976C347.552 200.152 346.848 202.168 346.848 204.024C346.848 204.408 346.88 204.856 346.944 205.368C346.944 205.88 346.976 206.328 347.04 206.712C347.104 207.032 347.168 207.192 347.232 207.192C347.296 207.192 347.552 206.776 348 205.944C348.384 205.112 348.864 204.12 349.44 202.968ZM362.976 203.16V203.256C364.384 201.784 365.472 200.216 366.24 198.552C367.072 196.824 367.456 195.32 367.392 194.04C367.2 192.056 366.24 190.744 364.512 190.104C362.4 189.464 359.808 189.912 356.736 191.448C356.288 191.64 356 191.8 355.872 191.928C355.808 191.992 355.84 192.088 355.968 192.216C356.032 192.344 356.032 192.536 355.968 192.792C355.968 192.984 355.872 193.304 355.68 193.752C355.552 194.2 355.264 194.872 354.816 195.768C354.432 196.6 353.888 197.72 353.184 199.128C353.12 199.256 353.056 199.416 352.992 199.608C352.544 200.504 352.16 201.272 351.84 201.912C351.584 202.488 351.36 202.968 351.168 203.352C350.976 203.736 350.848 204.024 350.784 204.216C350.72 204.408 350.688 204.568 350.688 204.696C350.688 204.76 350.72 204.792 350.784 204.792C350.848 204.856 350.944 204.952 351.072 205.08C351.2 205.208 351.328 205.368 351.456 205.56C351.904 206.2 352.576 206.616 353.472 206.808C353.984 206.936 354.56 207 355.2 207C355.904 207 356.576 206.936 357.216 206.808C359.264 206.232 361.184 205.016 362.976 203.16Z" fill="#333333"/>
<path d="M395.569 195.096V195.288C395.761 195.352 395.889 195.48 395.953 195.672C396.017 195.864 396.017 196.056 395.953 196.248C395.889 196.376 395.761 196.408 395.569 196.344C392.881 196.344 388.913 196.984 383.665 198.264L380.881 198.936L380.401 199.8C379.697 201.272 378.673 202.776 377.329 204.312C375.985 205.848 374.641 207.128 373.297 208.152C370.673 210.136 369.009 210.232 368.305 208.44C368.177 208.248 368.081 208.056 368.017 207.864C367.953 207.672 367.921 207.448 367.921 207.192C367.921 206.936 367.921 206.584 367.921 206.136V204.504C367.921 204.504 367.985 204.376 368.113 204.12C368.177 203.8 368.273 203.48 368.401 203.16C368.529 202.776 368.657 202.424 368.785 202.104C368.913 201.784 369.009 201.56 369.073 201.432C369.201 201.176 369.361 200.92 369.553 200.664C369.745 200.408 369.905 200.216 370.033 200.088L370.609 199.608L370.225 199.224C368.945 197.624 369.649 195.48 372.337 192.792C374.577 190.808 376.689 189.976 378.673 190.296C380.401 190.68 381.489 191.576 381.937 192.984C382.065 193.432 382.097 194.008 382.033 194.712C382.033 195.352 381.937 195.992 381.745 196.632C381.617 196.952 381.521 197.208 381.457 197.4C381.457 197.592 381.489 197.688 381.553 197.688C381.617 197.688 381.905 197.624 382.417 197.496C382.929 197.368 383.569 197.208 384.337 197.016C387.601 196.056 389.969 195.512 391.441 195.384C392.785 195.192 394.161 195.096 395.569 195.096ZM378.289 199.992L378.577 199.512L378.289 199.608C378.033 199.672 377.585 199.736 376.945 199.8C376.369 199.928 375.825 200.024 375.313 200.088C374.801 200.152 374.385 200.216 374.065 200.28L373.105 200.376V200.856C373.105 200.984 373.041 201.176 372.913 201.432C372.849 201.624 372.753 201.816 372.625 202.008C372.369 202.456 372.081 203.064 371.761 203.832C371.441 204.6 371.153 205.368 370.897 206.136C370.641 206.84 370.513 207.32 370.513 207.576C370.513 207.768 370.929 207.576 371.761 207C372.721 206.36 373.873 205.304 375.217 203.832C376.561 202.36 377.585 201.08 378.289 199.992ZM380.017 197.016H379.921C381.329 194.264 381.105 192.696 379.249 192.312C378.737 192.184 378.129 192.152 377.425 192.216C376.721 192.28 376.145 192.408 375.697 192.6C374.353 193.176 373.201 194.04 372.241 195.192C371.281 196.344 370.897 197.304 371.089 198.072C371.473 199.032 373.361 199.256 376.753 198.744C376.881 198.744 377.041 198.712 377.233 198.648C377.937 198.584 378.449 198.52 378.769 198.456C379.089 198.328 379.313 198.168 379.441 197.976C379.633 197.784 379.825 197.496 380.017 197.112C380.017 197.048 380.017 197.016 380.017 197.016Z" fill="#333333"/>
<path d="M423.8 197.688L423.704 197.496C423.896 197.624 423.992 197.816 423.992 198.072C424.056 198.264 423.96 198.52 423.704 198.84L421.88 199.992C416.504 203.256 412.568 205.56 410.072 206.904C407.64 208.248 405.56 209.24 403.832 209.88C397.944 211.992 393.816 211.896 391.448 209.592C391.128 209.208 390.808 208.728 390.488 208.152C390.168 207.576 389.944 207.064 389.816 206.616C389.752 206.488 389.72 206.392 389.72 206.328C389.656 206.2 389.624 206.136 389.624 206.136C389.624 206.136 389.624 206.008 389.624 205.752C389.624 205.432 389.624 205.112 389.624 204.792C389.624 204.408 389.624 204.088 389.624 203.832C389.624 203.576 389.624 203.416 389.624 203.352C389.624 203.352 389.656 203.288 389.72 203.16C389.848 202.904 389.944 202.552 390.008 202.104C390.648 200.312 391.928 198.52 393.848 196.728C396.28 194.552 398.424 194.104 400.28 195.384C401.56 196.344 401.816 197.624 401.048 199.224C400.088 200.952 398.52 202.36 396.344 203.448C395.896 203.704 395.512 203.864 395.192 203.928C394.936 203.928 394.616 203.928 394.232 203.928C393.976 203.992 393.784 204.024 393.656 204.024C393.528 204.024 393.432 203.992 393.368 203.928C393.24 203.864 393.112 203.8 392.984 203.736C392.728 203.48 392.536 203.416 392.408 203.544C392.28 203.608 392.152 203.96 392.024 204.6C391.96 204.92 391.928 205.176 391.928 205.368C391.864 205.56 391.864 205.752 391.928 205.944C391.928 206.136 391.96 206.36 392.024 206.616C392.472 208.536 394.168 209.496 397.112 209.496C401.144 209.496 406.808 207.352 414.104 203.064C414.872 202.616 415.736 202.104 416.696 201.528C417.912 200.888 418.936 200.312 419.768 199.8C419.96 199.672 420.152 199.544 420.344 199.416C422.136 198.456 423.288 197.88 423.8 197.688ZM393.944 200.664L393.464 201.24L394.232 201.144C394.808 201.016 395.352 200.856 395.864 200.664C396.376 200.408 396.888 200.088 397.4 199.704C397.912 199.256 398.296 198.872 398.552 198.552C399 197.976 398.808 197.752 397.976 197.88C397.4 198.008 396.728 198.328 395.96 198.84C395.192 199.352 394.52 199.96 393.944 200.664Z" fill="#333333"/>
<path d="M441.847 186.36C441.655 186.296 441.559 186.008 441.559 185.496C441.623 184.92 441.751 184.44 441.943 184.056C442.071 183.736 442.103 183.544 442.039 183.48C442.039 183.416 441.911 183.448 441.655 183.576C441.463 183.64 441.207 183.768 440.887 183.96C439.223 184.792 437.239 186.296 434.935 188.472C432.695 190.584 430.615 192.888 428.695 195.384C428.439 195.768 428.215 196.088 428.023 196.344L427.831 196.536C426.359 198.712 425.335 200.184 424.759 200.952C425.271 202.36 425.687 203.736 426.007 205.08C426.327 206.36 426.679 207.992 427.063 209.976C428.023 214.584 428.855 217.976 429.559 220.152C430.327 222.328 431.287 224.216 432.439 225.816C433.847 227.864 435.511 229.176 437.431 229.752C438.327 230.008 439.447 230.104 440.791 230.04C442.135 229.912 443.319 229.624 444.343 229.176C444.919 228.92 445.303 228.792 445.495 228.792C445.751 228.792 445.879 228.92 445.879 229.176L445.495 228.888C445.623 229.144 445.591 229.368 445.399 229.56C445.271 229.752 444.951 229.976 444.439 230.232C443.031 230.936 441.527 231.32 439.927 231.384C438.391 231.512 436.983 231.352 435.703 230.904C433.719 230.136 431.895 228.536 430.231 226.104C429.207 224.568 428.375 222.904 427.735 221.112C427.095 219.32 426.359 216.536 425.527 212.76C424.759 209.752 424.183 207.64 423.799 206.424C423.479 205.144 423.159 204.408 422.839 204.216C422.775 204.152 422.711 204.12 422.647 204.12C422.583 204.12 422.519 204.152 422.455 204.216C422.327 204.344 422.039 204.792 421.591 205.56C421.143 206.328 420.663 207.192 420.151 208.152C419.575 209.048 419.095 209.816 418.711 210.456C418.071 211.608 417.623 212.568 417.367 213.336C417.047 214.04 416.823 214.712 416.695 215.352C416.375 216.568 415.991 216.92 415.543 216.408C415.479 216.344 415.447 216.312 415.447 216.312C415.383 216.248 415.319 216.248 415.255 216.312C415.191 216.376 415.127 216.44 415.063 216.504C414.935 216.504 414.807 216.504 414.679 216.504C414.423 216.504 414.199 216.408 414.007 216.216C413.751 215.96 413.623 215.704 413.623 215.448C413.623 214.872 414.071 213.528 414.967 211.416C415.799 209.304 416.887 206.808 418.231 203.928L418.615 203.16C418.999 202.52 419.735 201.144 420.823 199.032C421.911 196.92 423.735 193.304 426.295 188.184C427.447 186.008 428.599 183.768 429.751 181.464C431.159 178.712 432.247 176.6 433.015 175.128C433.143 174.936 433.239 174.712 433.303 174.456C433.943 173.24 434.551 172.088 435.127 171C435.767 169.848 436.247 168.984 436.567 168.408C438.487 164.888 439.511 162.136 439.639 160.152C439.703 159.832 439.767 159.544 439.831 159.288C439.895 158.968 439.959 158.744 440.023 158.616C440.407 157.912 440.919 157.56 441.559 157.56C442.199 157.496 442.743 157.784 443.191 158.424V158.808C443.255 159 443.287 159.224 443.287 159.48C443.287 159.672 443.287 159.832 443.287 159.96C443.287 160.088 443.223 160.248 443.095 160.44C443.031 160.632 442.903 160.92 442.711 161.304C442.519 161.624 442.263 162.072 441.943 162.648C441.239 163.928 440.119 166.04 438.583 168.984C437.047 171.928 435.447 175.064 433.783 178.392C432.119 181.72 430.711 184.568 429.559 186.936L427.063 192.312C426.103 194.36 425.303 196.12 424.663 197.592C424.023 199 423.703 199.736 423.703 199.8C423.831 200.056 424.599 199.128 426.007 197.016C428.823 193.048 431.607 189.784 434.359 187.224C438.199 183.64 440.887 181.848 442.423 181.848C442.743 181.848 442.967 181.88 443.095 181.944C443.223 182.008 443.351 182.104 443.479 182.232H443.575C444.343 183.128 443.991 184.408 442.519 186.072C442.391 186.264 442.167 186.36 441.847 186.36Z" fill="#333333"/>
<path d="M455.172 187.704C455.812 186.104 456.132 184.824 456.132 183.864C456.388 182.328 456.132 181.24 455.364 180.6C454.212 179.32 451.588 179.32 447.492 180.6C444.676 181.56 442.276 182.808 440.292 184.344C438.308 185.88 437.028 187.448 436.452 189.048C436.196 189.752 436.164 190.488 436.356 191.256C436.548 191.96 437.06 192.92 437.892 194.136C438.212 194.648 438.532 195.16 438.852 195.672C439.172 196.184 439.396 196.6 439.524 196.92L440.004 197.784L440.964 196.248C441.54 195.224 442.244 194.104 443.076 192.888C443.908 191.608 444.676 190.488 445.38 189.528C446.148 188.504 446.66 187.864 446.916 187.608C447.428 187.16 447.94 187 448.452 187.128C449.028 187.256 449.476 187.608 449.796 188.184C450.372 189.272 450.052 190.296 448.836 191.256C448.004 192.024 446.852 193.4 445.38 195.384C443.972 197.368 442.724 199.288 441.636 201.144L440.964 202.296V204.408C440.9 205.048 440.836 205.656 440.772 206.232C440.708 206.744 440.644 207.16 440.58 207.48C440.196 209.016 439.332 210.52 437.988 211.992C437.412 212.632 436.996 212.728 436.74 212.28C436.676 212.088 436.58 211.992 436.452 211.992C436.388 211.992 436.324 211.96 436.26 211.896C436.196 211.832 436.1 211.736 435.972 211.608C435.396 211.032 435.204 210.136 435.396 208.92C435.588 208.024 436.004 206.776 436.644 205.176C437.22 203.576 437.892 201.976 438.66 200.376C438.788 200.056 438.884 199.8 438.948 199.608C439.076 199.416 439.14 199.256 439.14 199.128C439.14 199 439.108 198.872 439.044 198.744C438.916 198.36 438.66 197.848 438.276 197.208C437.828 196.568 437.38 195.96 436.932 195.384C436.036 194.296 435.428 193.368 435.108 192.6C434.724 191.768 434.564 190.904 434.628 190.008V189.816C434.692 189.496 434.756 189.208 434.82 188.952C434.884 188.632 434.948 188.376 435.012 188.184C435.908 186.072 437.636 184.088 440.196 182.232C440.9 181.72 441.86 181.176 443.076 180.6C444.356 179.96 445.444 179.48 446.34 179.16C447.428 178.712 448.356 178.424 449.124 178.296C449.956 178.168 450.884 178.104 451.908 178.104C452.484 178.104 452.9 178.136 453.156 178.2C453.476 178.2 453.7 178.232 453.828 178.296C454.02 178.296 454.212 178.328 454.404 178.392C456.068 178.968 457.092 180.024 457.476 181.56C457.54 181.816 457.572 182.136 457.572 182.52C457.636 182.84 457.636 183.32 457.572 183.96C457.572 184.984 457.412 186.104 457.092 187.32C456.452 188.6 455.812 188.728 455.172 187.704ZM439.812 204.888L439.908 204.984C440.036 204.28 439.748 204.696 439.044 206.232C438.532 207.384 438.18 208.28 437.988 208.92C437.796 209.496 437.732 209.944 437.796 210.264C437.796 210.392 437.828 210.488 437.892 210.552C437.892 210.616 437.892 210.68 437.892 210.744C437.892 210.808 437.892 210.84 437.892 210.84C437.892 210.84 437.924 210.808 437.988 210.744C438.052 210.68 438.148 210.584 438.276 210.456C438.34 210.328 438.436 210.168 438.564 209.976C438.82 209.528 439.044 209.048 439.236 208.536C439.428 208.024 439.556 207.32 439.62 206.424C439.684 206.104 439.716 205.784 439.716 205.464C439.78 205.144 439.812 204.952 439.812 204.888Z" fill="#333333"/>
<path d="M461.561 201.816L461.753 201.528L461.561 201.624C461.433 201.624 461.145 201.656 460.697 201.72C460.377 201.784 460.057 201.848 459.737 201.912C459.417 201.976 459.161 202.008 458.969 202.008L458.393 202.104L456.953 202.296C456.953 202.424 456.921 202.552 456.857 202.68C456.857 202.808 456.793 202.904 456.665 202.968V203.352C456.601 203.672 456.537 204.056 456.473 204.504C456.473 204.952 456.473 205.368 456.473 205.752C456.537 206.072 456.633 206.264 456.761 206.328C456.825 206.328 456.889 206.328 456.953 206.328C457.017 206.264 457.081 206.232 457.145 206.232C457.273 206.168 457.401 206.072 457.529 205.944C458.105 205.56 458.809 204.952 459.641 204.12C460.473 203.224 461.113 202.456 461.561 201.816ZM456.377 198.072L457.145 195.192C457.273 194.36 457.433 193.496 457.625 192.6L457.721 191.448C457.721 191.384 457.753 191.288 457.817 191.16C457.881 190.584 457.945 190.136 458.009 189.816C458.073 189.496 458.137 189.272 458.201 189.144C458.329 189.016 458.457 188.856 458.585 188.664C459.097 188.28 459.417 188.12 459.545 188.184C460.249 188.632 460.537 189.208 460.409 189.912C460.345 190.552 460.089 191.192 459.641 191.832C459.321 193.304 459.193 194.424 459.257 195.192C460.345 194.552 461.401 194.328 462.425 194.52C463.769 194.776 464.601 195.416 464.921 196.44C464.985 196.76 465.017 197.176 465.017 197.688C465.017 198.136 464.953 198.584 464.825 199.032C464.697 199.224 464.633 199.384 464.633 199.512V199.8C464.761 199.8 465.017 199.768 465.401 199.704C465.785 199.64 466.233 199.512 466.745 199.32C467.129 199.128 467.545 198.84 467.993 198.456C468.505 198.072 469.017 197.688 469.529 197.304C469.657 197.176 469.817 197.048 470.009 196.92C470.265 196.28 470.489 195.8 470.681 195.48C471.193 194.712 471.449 194.296 471.449 194.232C471.449 193.784 471.481 193.464 471.545 193.272C471.673 193.08 471.801 192.92 471.929 192.792C472.057 192.6 472.249 192.44 472.505 192.312C472.761 192.12 472.985 192.024 473.177 192.024C473.369 192.024 473.561 192.12 473.753 192.312C474.009 192.44 474.201 192.6 474.329 192.792C474.649 193.112 474.425 193.752 473.657 194.712C472.953 195.608 472.345 196.408 471.833 197.112C471.321 197.816 470.969 198.68 470.777 199.704C470.649 200.664 470.521 201.624 470.393 202.584C470.265 203.544 470.201 204.184 470.201 204.504C470.201 205.4 470.809 205.976 472.025 206.232C472.921 206.36 474.169 206.264 475.769 205.944C477.433 205.56 480.025 204.152 483.545 201.72C487.129 199.288 489.177 197.72 489.689 197.016C490.073 196.824 490.361 196.664 490.553 196.536L491.321 196.152C491.641 196.088 491.833 196.152 491.897 196.344C491.961 196.536 491.961 196.76 491.897 197.016C491.833 197.272 491.673 197.464 491.417 197.592C490.905 197.912 488.729 199.48 484.889 202.296C481.113 205.112 477.977 206.712 475.481 207.096C474.649 207.288 473.817 207.416 472.985 207.48C472.153 207.544 471.513 207.512 471.065 207.384C469.849 207.064 468.985 206.392 468.473 205.368C468.345 204.92 468.281 204.408 468.281 203.832C468.281 203.256 468.345 202.616 468.473 201.912C468.537 201.656 468.569 201.432 468.569 201.24V200.952C468.825 200.12 469.081 199.352 469.337 198.648C468.569 199.16 467.545 199.672 466.265 200.184L464.153 200.664L463.769 201.24C463.257 202.328 462.489 203.416 461.465 204.504C460.441 205.592 459.417 206.52 458.393 207.288C456.409 208.696 455.161 208.76 454.649 207.48C454.585 207.288 454.521 207.16 454.457 207.096C454.393 206.968 454.361 206.808 454.361 206.616C454.361 206.424 454.361 206.168 454.361 205.848L455.225 202.488C455.225 202.424 455.257 202.232 455.321 201.912C455.449 201.208 455.673 200.28 455.993 199.128C456.121 198.744 456.249 198.392 456.377 198.072ZM458.393 197.4L457.145 200.472C457.785 200.792 458.969 200.824 460.697 200.568C460.825 200.568 460.921 200.536 460.985 200.472C461.497 200.408 461.849 200.376 462.041 200.376C462.297 200.312 462.457 200.216 462.521 200.088C462.649 199.96 462.777 199.736 462.905 199.416C463.865 197.56 463.705 196.536 462.425 196.344C462.041 196.216 461.593 196.184 461.081 196.248C460.633 196.248 460.249 196.344 459.929 196.536C459.353 196.728 458.841 197.016 458.393 197.4Z" fill="#333333"/>
<path d="M433.215 86.3289C433.93 90.3442 433.126 93.4672 430.803 95.6979C428.481 97.9286 425.935 99.5793 423.165 100.65C420.485 101.721 417.582 102.479 414.455 102.925C411.329 103.372 408.56 103.595 406.148 103.595C403.378 103.595 400.475 103.461 397.438 103.193C394.4 102.925 391.095 102.345 387.522 101.453C383.859 100.293 380.465 99.0886 377.338 97.8394C377.249 97.9286 377.115 98.0625 376.936 98.2409C370.772 102.881 364.966 107.699 359.516 112.696C354.067 117.604 349.154 122.511 344.777 127.419C340.399 132.326 336.335 137.457 332.583 142.811C328.742 147.54 324.766 152.983 320.657 159.14C316.548 165.296 312.796 171.587 309.401 178.011C306.007 184.347 303.193 190.414 300.959 196.214C298.815 202.014 297.743 206.877 297.743 210.803C297.743 213.212 298.324 215.309 299.485 217.094C300.647 218.878 302.121 220.351 303.907 221.51C305.694 222.67 307.659 223.518 309.803 224.054C311.947 224.678 314.002 224.99 315.967 224.99C319.63 224.99 323.203 224.187 326.687 222.581C330.26 221.064 333.655 219.012 336.871 216.424C340.087 213.748 343.124 210.669 345.983 207.189C348.573 204.155 350.985 200.943 353.218 197.553C350.896 201.3 348.529 204.869 346.117 208.26C343.437 212.008 340.489 215.309 337.273 218.164C334.146 221.109 330.662 223.429 326.821 225.124C322.98 226.82 318.602 227.667 313.689 227.667C310.83 227.667 308.106 227.266 305.515 226.463C302.925 225.66 300.647 224.455 298.681 222.849C296.716 221.332 295.153 219.414 293.991 217.094C292.83 214.684 292.249 211.918 292.249 208.795C292.249 204.423 293.232 199.382 295.197 193.671C297.163 187.871 299.619 181.982 302.567 176.004C305.605 170.025 308.954 164.27 312.617 158.738C316.28 153.117 319.808 148.254 323.203 144.149C328.295 138.349 333.342 132.951 338.345 127.954C343.437 122.868 348.841 117.737 354.558 112.562C360.276 107.387 366.306 102.39 372.648 97.5717C373.184 97.2148 373.675 96.8132 374.122 96.3671C369.834 94.4933 366.082 92.5303 362.866 90.478C356.613 86.5519 350.807 82.3582 345.447 77.8967C340.087 73.3461 335.039 68.7508 330.305 64.1109C325.66 59.3818 321.014 54.9203 316.369 50.7266C300.557 34.8438 283.584 22.798 265.45 14.5889C247.315 6.29063 228.645 2.1415 209.439 2.1415C200.327 2.1415 191.349 3.03378 182.505 4.81836C173.661 6.51371 165.219 9.01211 157.18 12.3136C149.229 15.615 141.859 19.7196 135.07 24.6271C128.281 29.5347 122.385 35.1562 117.382 41.4914C112.469 47.8266 108.628 54.8757 105.858 62.6386C103.089 70.4015 101.704 78.789 101.704 87.8011C101.704 94.761 102.866 101.319 105.188 107.476C107.511 113.544 110.638 119.165 114.568 124.34C117.784 128.445 121.447 132.237 125.556 135.717C127.611 134.468 129.665 133.352 131.72 132.371C136.365 130.229 141.01 128.579 145.656 127.419C150.39 126.259 154.857 125.679 159.055 125.679C165.487 125.679 171.741 126.66 177.815 128.623C183.979 130.497 189.428 133.174 194.163 136.654C198.898 140.045 202.694 144.149 205.553 148.967C206.357 150.395 207.071 151.823 207.697 153.25C210.645 152.358 213.503 151.332 216.273 150.172C221.633 147.941 226.724 145.22 231.548 142.008C236.372 138.706 240.616 134.959 244.278 130.765C247.941 126.571 250.844 121.931 252.988 116.845C255.132 111.759 256.204 106.227 256.204 100.249C256.204 94.0918 255.087 88.4257 252.854 83.2505C250.621 78.0752 247.449 73.6138 243.34 69.8662C239.32 66.1185 234.496 63.2186 228.868 61.1663C223.24 59.0249 217.032 57.9541 210.243 57.9541C206.044 57.9541 201.89 58.6233 197.781 59.9618C193.761 61.211 189.875 62.9509 186.123 65.1816C182.371 67.4124 178.843 70.0446 175.537 73.0784C172.232 76.1122 169.329 79.369 166.827 82.8489C169.507 78.4767 172.5 74.5953 175.805 71.2046C179.111 67.7247 182.639 64.8247 186.391 62.5048C190.143 60.1848 194.029 58.4002 198.049 57.1511C202.069 55.9018 206.089 55.2772 210.109 55.2772C218.327 55.2772 225.742 56.5264 232.352 59.0248C238.963 61.5233 244.546 64.914 249.102 69.1969C253.747 73.3907 257.321 78.2983 259.822 83.9197C262.323 89.5411 263.574 95.5194 263.574 101.855C263.574 108.725 262.413 114.927 260.09 120.459C257.767 125.902 254.596 130.765 250.576 135.048C246.645 139.242 242.045 142.855 236.774 145.889C231.593 148.834 226.054 151.287 220.159 153.25C216.407 154.5 212.61 155.526 208.769 156.329C209.573 159.006 209.975 161.816 209.975 164.761C209.975 170.829 207.741 176.227 203.275 180.956C198.808 185.596 192.689 189.79 184.917 193.537C191.081 196.393 195.86 200.14 199.255 204.78C202.739 209.331 204.615 214.149 204.883 219.235C208.545 217.451 212.297 215.086 216.139 212.141C219.98 209.197 223.821 205.895 227.662 202.237C231.504 198.489 235.256 194.519 238.918 190.325C242.581 186.131 246.065 181.938 249.37 177.744C252.675 173.461 255.713 169.312 258.482 165.296C261.251 161.192 264.333 156.463 267.728 151.109C269.068 148.967 270.318 146.871 271.48 144.818C272.73 142.766 273.936 140.714 275.098 138.662C276.348 136.52 277.599 134.334 278.85 132.103C280.19 129.873 281.664 127.463 283.272 124.876C285.952 120.147 288.363 115.953 290.507 112.294C292.741 108.547 295.019 104.933 297.341 101.453C299.753 97.884 302.121 94.6718 304.443 91.8164C306.855 88.9611 309.088 86.9981 311.143 85.9273H313.555C311.5 87.6227 309.49 89.8534 307.525 92.6195C305.56 95.2964 303.595 98.3748 301.629 101.855C299.753 105.245 297.788 108.948 295.733 112.964C293.679 116.979 290.999 122.065 287.693 128.222C285.46 131.612 283.272 135.36 281.128 139.465C279.073 143.569 276.706 147.941 274.026 152.581C269.738 159.541 265.182 166.099 260.358 172.256C255.534 178.413 250.174 184.57 244.278 190.727C238.382 196.794 232.084 202.594 225.384 208.126C218.685 213.569 211.94 218.12 205.151 221.778C205.151 231.236 203.23 239.579 199.389 246.807C195.637 254.034 190.679 260.102 184.515 265.01C178.351 269.917 171.339 273.62 163.477 276.119C155.616 278.706 147.576 280 139.358 280C133.283 280 127.164 279.108 121 277.323C114.836 275.539 109.164 272.862 103.982 269.293C98.8904 265.723 94.5578 261.262 90.9846 255.908C87.5006 250.644 85.3567 244.442 84.5527 237.304C83.4807 237.393 82.364 237.438 81.2027 237.438H77.9868C72.0909 237.438 66.061 236.902 59.8971 235.832C53.7332 234.85 47.7479 233.289 41.9413 231.147C36.2241 229.006 30.8195 226.284 25.7276 222.983C20.6357 219.771 16.1691 215.934 12.3278 211.472C8.57587 207.011 5.58325 201.969 3.34995 196.348C1.11665 190.637 0 184.257 0 177.208C0 171.587 1.07198 166.322 3.21595 161.415C5.35992 156.507 8.2632 152.224 11.9258 148.566C15.5884 144.818 19.8317 141.874 24.6556 139.732C29.4795 137.591 34.6161 136.52 40.0654 136.52C44.4426 136.52 48.9092 137.234 53.4652 138.662C58.0211 140.089 62.175 142.141 65.927 144.818C69.6789 147.495 72.7609 150.752 75.1728 154.589C77.5848 158.337 78.7908 162.619 78.7908 167.438C78.7908 170.561 78.2548 173.684 77.1828 176.807C76.2001 179.841 74.6815 182.562 72.6269 184.971C70.6616 187.38 68.1603 189.344 65.123 190.86C62.0857 192.288 58.6017 193.002 54.6711 193.002C53.1525 193.002 51.5892 192.913 49.9812 192.734C50.7852 192.734 51.5445 192.734 52.2592 192.734C55.8325 192.734 59.1377 192.065 62.175 190.727C65.2123 189.299 67.8476 187.47 70.0809 185.239C72.3142 182.919 74.0562 180.287 75.3068 177.342C76.6468 174.308 77.3168 171.141 77.3168 167.839C77.3168 163.289 76.2001 159.184 73.9668 155.526C71.8229 151.778 68.9643 148.611 65.391 146.023C61.8177 143.346 57.7978 141.294 53.3312 139.866C48.8646 138.438 44.3533 137.725 39.7974 137.725C34.8841 137.725 30.1495 138.751 25.5936 140.803C21.127 142.855 17.1517 145.666 13.6678 149.235C10.1838 152.804 7.41455 156.953 5.35992 161.683C3.30528 166.322 2.27796 171.319 2.27796 176.673C2.27796 183.454 3.34995 189.611 5.49391 195.143C7.63788 200.676 10.5412 205.628 14.2038 210C17.8664 214.283 22.1543 218.031 27.0676 221.243C32.0702 224.455 37.4301 227.087 43.1473 229.14C48.8646 231.281 54.7605 232.843 60.835 233.824C66.9096 234.895 72.9395 235.43 78.9248 235.43H81.3367C82.1407 235.43 83.034 235.386 84.0167 235.296C84.0167 218.075 88.8853 203.174 98.6225 190.593C98.0865 189.165 97.5951 187.425 97.1485 185.373C96.7911 183.321 96.6125 181.001 96.6125 178.413C96.6125 173.148 97.5505 168.196 99.4264 163.556C101.392 158.917 103.982 154.678 107.198 150.841C110.504 146.915 114.256 143.391 118.454 140.268C120.062 139.108 121.625 138.037 123.144 137.055L123.01 136.922C115.596 130.229 109.789 122.511 105.59 113.767C101.481 105.022 99.4264 95.8764 99.4264 86.3289C99.4264 71.6954 102.33 58.9802 108.136 48.1836C114.032 37.3869 121.983 28.4194 131.988 21.2811C142.082 14.1428 153.785 8.83365 167.095 5.35372C180.406 1.78457 194.52 0 209.439 0C220.159 0 230.655 1.33843 240.928 4.01529C251.291 6.69216 261.162 10.2613 270.542 14.7228C279.922 19.095 288.676 24.0918 296.805 29.7132C304.935 35.2454 312.126 40.956 318.379 46.8451C323.65 51.8419 328.92 56.8834 334.191 61.9694C339.551 67.0555 345 71.9184 350.538 76.5583C356.077 81.109 361.75 85.2581 367.556 89.0057C370.415 90.8795 373.586 92.6195 377.07 94.2256C381.983 90.7457 386.986 87.5781 392.078 84.7227C398.778 80.9751 406.773 78.7444 416.063 78.0306C425.443 77.2275 431.161 79.9936 433.215 86.3289ZM204.749 162.352C204.659 160.567 204.481 158.872 204.213 157.266C203.498 157.355 202.739 157.444 201.935 157.533C195.771 158.426 189.786 158.872 183.979 158.872C171.562 158.872 160.172 156.909 149.81 152.983C140.162 149.324 131.809 144.461 124.752 138.394C123.055 139.465 121.402 140.58 119.794 141.74C115.774 144.595 112.201 147.852 109.074 151.51C105.948 155.169 103.446 159.184 101.57 163.556C99.6944 167.929 98.7565 172.524 98.7565 177.342C98.7565 179.573 98.9351 181.625 99.2924 183.499C99.6498 185.373 100.096 187.068 100.632 188.585C103.759 185.908 106.975 183.365 110.28 180.956C113.586 178.458 117.025 176.272 120.598 174.398C124.171 172.524 127.789 171.052 131.452 169.981C135.204 168.821 139.045 168.241 142.976 168.241C147.71 168.241 151.328 169.401 153.83 171.721C156.42 174.041 157.716 177.342 157.716 181.625C157.716 182.518 157.626 183.41 157.448 184.302C157.358 185.194 157.224 186.131 157.046 187.113C156.42 189.7 155.438 192.556 154.098 195.679C152.758 198.802 151.016 201.925 148.872 205.048C146.728 208.171 144.182 211.249 141.234 214.283C138.375 217.228 135.07 219.86 131.318 222.18C136.678 224.678 141.948 226.418 147.13 227.4C152.4 228.47 157.582 229.006 162.673 229.006C170.177 229.006 177.324 228.247 184.113 226.73C190.992 225.214 197.245 223.072 202.873 220.306C202.515 215.22 200.774 210.357 197.647 205.717C194.52 201.077 189.786 197.151 183.443 193.939C181.21 194.831 179.155 195.5 177.279 195.946C175.403 196.303 173.751 196.482 172.321 196.482C168.659 196.482 166.827 195.5 166.827 193.537C167.006 192.288 167.676 191.396 168.837 190.86C169.999 190.325 171.383 190.057 172.991 190.057C174.778 190.057 176.609 190.325 178.485 190.86C180.361 191.307 182.014 191.842 183.443 192.467C186.391 191.307 189.16 189.745 191.751 187.782C194.342 185.73 196.575 183.41 198.451 180.822C200.416 178.145 201.935 175.245 203.007 172.122C204.168 168.999 204.749 165.743 204.749 162.352ZM202.873 222.715C197.156 225.392 191.036 227.489 184.515 229.006C177.994 230.523 171.249 231.281 164.281 231.281C158.386 231.281 152.49 230.656 146.594 229.407C140.787 228.247 135.025 226.329 129.308 223.652C127.164 225.169 124.663 226.641 121.804 228.069C119.035 229.496 115.864 230.835 112.29 232.084C108.717 233.333 104.786 234.404 100.498 235.296C96.2105 236.278 91.5206 236.947 86.4286 237.304C87.6793 244.71 90.0912 250.956 93.6645 256.042C97.2378 261.128 101.526 265.233 106.528 268.356C111.62 271.568 117.203 273.888 123.278 275.315C129.442 276.743 135.74 277.457 142.172 277.457C150.033 277.457 157.582 276.119 164.817 273.442C172.143 270.854 178.619 267.151 184.247 262.333C189.875 257.514 194.386 251.759 197.781 245.067C201.175 238.375 202.873 230.924 202.873 222.715ZM152.892 180.822C152.892 177.61 152.088 174.933 150.48 172.792C148.872 170.561 146.058 169.445 142.038 169.445C138.196 169.445 134.579 169.981 131.184 171.052C127.789 172.122 124.439 173.595 121.134 175.468C117.918 177.342 114.658 179.573 111.352 182.161C108.047 184.748 104.608 187.559 101.034 190.593C103.982 198.623 107.779 205.003 112.424 209.732C117.069 214.461 122.563 218.298 128.906 221.243C132.569 218.477 135.695 215.488 138.286 212.275C140.966 208.974 143.244 205.762 145.12 202.639C146.996 199.516 148.47 196.571 149.542 193.805C150.703 191.039 151.596 188.674 152.222 186.711C152.668 184.481 152.892 182.518 152.892 180.822ZM132.658 134.245C130.871 135.137 129.085 136.074 127.298 137.055C127.745 137.412 128.191 137.725 128.638 137.992C133.998 142.008 139.715 145.443 145.79 148.298C151.954 151.064 158.252 153.206 164.683 154.723C171.205 156.15 177.637 156.864 183.979 156.864C189.071 156.864 194.386 156.284 199.925 155.124C201.176 154.857 202.381 154.589 203.543 154.321C202.828 152.001 201.89 149.815 200.729 147.763C198.228 143.48 194.878 139.866 190.679 136.922C186.57 133.977 181.79 131.746 176.341 130.229C170.981 128.713 165.353 127.954 159.457 127.954C155.348 127.954 150.971 128.489 146.326 129.56C141.77 130.631 137.214 132.192 132.658 134.245ZM126.896 222.715C124.484 221.466 121.849 219.904 118.99 218.031C116.221 216.157 113.541 213.971 110.95 211.472C108.36 208.885 105.992 206.029 103.848 202.906C101.794 199.694 100.23 196.214 99.1584 192.467C95.1385 197.82 91.8779 203.709 89.3766 210.134C86.9646 216.469 85.7587 223.161 85.7587 230.21C85.7587 231.103 85.7587 231.906 85.7587 232.619C85.848 233.423 85.9373 234.315 86.0266 235.296C95.0492 234.583 102.776 233.155 109.208 231.013C115.64 228.872 121.536 226.106 126.896 222.715ZM395.696 85.7935C390.425 88.738 385.244 92.0395 380.152 95.6979C383.011 96.9471 386.048 98.1071 389.264 99.1778C391.854 99.8024 394.579 100.249 397.438 100.516C400.296 100.695 402.753 100.784 404.808 100.784C407.488 100.784 410.302 100.561 413.25 100.115C416.287 99.5793 419.056 98.8209 421.557 97.8394C424.148 96.8579 426.605 95.341 428.927 93.2887C431.339 91.2364 431.831 88.3811 430.401 84.7227C429.061 81.0644 424.505 79.4136 416.733 79.7706C409.051 80.1275 402.038 82.1351 395.696 85.7935ZM181.433 193.537C180.629 193.002 179.378 192.511 177.681 192.065C176.073 191.619 174.51 191.396 172.991 191.396C171.83 191.396 170.847 191.574 170.043 191.931C169.239 192.288 168.837 192.823 168.837 193.537C168.837 194.786 169.865 195.411 171.919 195.411C173.259 195.411 174.823 195.233 176.609 194.876C178.396 194.43 180.004 193.983 181.433 193.537ZM46.6313 192.199C44.666 191.753 42.656 191.039 40.6014 190.057C43.9066 191.396 47.0333 192.288 49.9812 192.734C48.9092 192.556 47.7926 192.377 46.6313 192.199Z" fill="#333333"/>
</svg>
