<svg width="1011" height="280" viewBox="0 0 1011 280" fill="none" xmlns="http://www.w3.org/2000/svg">
<path d="M364.032 187.992L363.84 188.184C366.72 188.888 368.32 190.776 368.64 193.848C368.768 196.408 367.84 199.288 365.856 202.488C362.272 207.672 358.272 209.88 353.856 209.112C352 208.728 350.72 207.896 350.016 206.616L349.632 205.944L348.48 208.056L347.424 210.264V211.416C347.424 214.552 346.528 218.104 344.736 222.072C344.16 223.416 343.36 224.984 342.336 226.776C341.248 228.504 340.128 230.2 338.976 231.864C338.656 232.376 338.176 232.984 337.536 233.688C336.832 234.392 336.192 235.032 335.616 235.608C334.976 236.184 334.592 236.472 334.464 236.472C334.4 236.472 334.304 236.408 334.176 236.28C334.048 236.216 333.92 236.12 333.792 235.992C333.728 235.928 333.696 235.896 333.696 235.896C333.504 235.768 333.376 235.64 333.312 235.512C333.248 235.448 333.248 235.288 333.312 235.032C333.312 234.968 333.344 234.872 333.408 234.744C333.536 234.296 333.696 233.816 333.888 233.304C334.08 232.856 334.528 231.896 335.232 230.424C335.936 228.952 336.736 227.352 337.632 225.624C338.464 223.896 339.232 222.392 339.936 221.112C340.32 220.344 340.864 219.32 341.568 218.04C342.272 216.696 342.912 215.384 343.488 214.104C343.616 213.784 343.776 213.496 343.968 213.24C344.608 212.088 345.056 211.224 345.312 210.648C345.568 210.008 345.728 209.496 345.792 209.112C345.792 208.728 345.76 208.216 345.696 207.576C345.632 207.384 345.6 207.192 345.6 207C345.472 205.912 345.44 204.824 345.504 203.736C345.504 202.584 345.6 201.688 345.792 201.048C346.496 198.36 347.936 195.928 350.112 193.752L351.264 192.6C351.264 192.6 351.36 192.536 351.552 192.408C351.744 192.216 351.968 192.024 352.224 191.832C352.544 191.64 352.832 191.448 353.088 191.256C354.944 189.848 356.928 188.824 359.04 188.184C359.744 187.992 360.576 187.896 361.536 187.896C362.56 187.832 363.392 187.864 364.032 187.992ZM345.792 214.392L345.984 213.72L344.832 216.024C344.512 216.664 344.128 217.496 343.68 218.52C343.168 219.48 342.72 220.408 342.336 221.304C341.312 223.352 340.288 225.432 339.264 227.544C338.24 229.592 337.44 231.128 336.864 232.152C336.608 232.536 336.416 232.888 336.288 233.208C336.096 233.528 336 233.688 336 233.688C336 233.688 336.032 233.656 336.096 233.592C336.16 233.592 336.256 233.496 336.384 233.304C336.512 233.176 336.672 232.952 336.864 232.632C339.04 229.88 341.056 226.52 342.912 222.552C344.64 219.096 345.6 216.376 345.792 214.392ZM349.44 202.968L349.632 203.16C350.208 201.944 350.752 200.792 351.264 199.704C351.84 198.552 352.256 197.688 352.512 197.112C352.896 196.152 353.184 195.32 353.376 194.616C353.632 193.912 353.728 193.496 353.664 193.368C353.6 193.304 353.376 193.432 352.992 193.752C352.608 194.072 352.16 194.488 351.648 195C351.136 195.512 350.624 196.056 350.112 196.632C349.6 197.144 349.216 197.592 348.96 197.976C347.552 200.152 346.848 202.168 346.848 204.024C346.848 204.408 346.88 204.856 346.944 205.368C346.944 205.88 346.976 206.328 347.04 206.712C347.104 207.032 347.168 207.192 347.232 207.192C347.296 207.192 347.552 206.776 348 205.944C348.384 205.112 348.864 204.12 349.44 202.968ZM362.976 203.16V203.256C364.384 201.784 365.472 200.216 366.24 198.552C367.072 196.824 367.456 195.32 367.392 194.04C367.2 192.056 366.24 190.744 364.512 190.104C362.4 189.464 359.808 189.912 356.736 191.448C356.288 191.64 356 191.8 355.872 191.928C355.808 191.992 355.84 192.088 355.968 192.216C356.032 192.344 356.032 192.536 355.968 192.792C355.968 192.984 355.872 193.304 355.68 193.752C355.552 194.2 355.264 194.872 354.816 195.768C354.432 196.6 353.888 197.72 353.184 199.128C353.12 199.256 353.056 199.416 352.992 199.608C352.544 200.504 352.16 201.272 351.84 201.912C351.584 202.488 351.36 202.968 351.168 203.352C350.976 203.736 350.848 204.024 350.784 204.216C350.72 204.408 350.688 204.568 350.688 204.696C350.688 204.76 350.72 204.792 350.784 204.792C350.848 204.856 350.944 204.952 351.072 205.08C351.2 205.208 351.328 205.368 351.456 205.56C351.904 206.2 352.576 206.616 353.472 206.808C353.984 206.936 354.56 207 355.2 207C355.904 207 356.576 206.936 357.216 206.808C359.264 206.232 361.184 205.016 362.976 203.16Z" fill="#333333"/>
<path d="M395.569 195.096V195.288C395.761 195.352 395.889 195.48 395.953 195.672C396.017 195.864 396.017 196.056 395.953 196.248C395.889 196.376 395.761 196.408 395.569 196.344C392.881 196.344 388.913 196.984 383.665 198.264L380.881 198.936L380.401 199.8C379.697 201.272 378.673 202.776 377.329 204.312C375.985 205.848 374.641 207.128 373.297 208.152C370.673 210.136 369.009 210.232 368.305 208.44C368.177 208.248 368.081 208.056 368.017 207.864C367.953 207.672 367.921 207.448 367.921 207.192C367.921 206.936 367.921 206.584 367.921 206.136V204.504C367.921 204.504 367.985 204.376 368.113 204.12C368.177 203.8 368.273 203.48 368.401 203.16C368.529 202.776 368.657 202.424 368.785 202.104C368.913 201.784 369.009 201.56 369.073 201.432C369.201 201.176 369.361 200.92 369.553 200.664C369.745 200.408 369.905 200.216 370.033 200.088L370.609 199.608L370.225 199.224C368.945 197.624 369.649 195.48 372.337 192.792C374.577 190.808 376.689 189.976 378.673 190.296C380.401 190.68 381.489 191.576 381.937 192.984C382.065 193.432 382.097 194.008 382.033 194.712C382.033 195.352 381.937 195.992 381.745 196.632C381.617 196.952 381.521 197.208 381.457 197.4C381.457 197.592 381.489 197.688 381.553 197.688C381.617 197.688 381.905 197.624 382.417 197.496C382.929 197.368 383.569 197.208 384.337 197.016C387.601 196.056 389.969 195.512 391.441 195.384C392.785 195.192 394.161 195.096 395.569 195.096ZM378.289 199.992L378.577 199.512L378.289 199.608C378.033 199.672 377.585 199.736 376.945 199.8C376.369 199.928 375.825 200.024 375.313 200.088C374.801 200.152 374.385 200.216 374.065 200.28L373.105 200.376V200.856C373.105 200.984 373.041 201.176 372.913 201.432C372.849 201.624 372.753 201.816 372.625 202.008C372.369 202.456 372.081 203.064 371.761 203.832C371.441 204.6 371.153 205.368 370.897 206.136C370.641 206.84 370.513 207.32 370.513 207.576C370.513 207.768 370.929 207.576 371.761 207C372.721 206.36 373.873 205.304 375.217 203.832C376.561 202.36 377.585 201.08 378.289 199.992ZM380.017 197.016H379.921C381.329 194.264 381.105 192.696 379.249 192.312C378.737 192.184 378.129 192.152 377.425 192.216C376.721 192.28 376.145 192.408 375.697 192.6C374.353 193.176 373.201 194.04 372.241 195.192C371.281 196.344 370.897 197.304 371.089 198.072C371.473 199.032 373.361 199.256 376.753 198.744C376.881 198.744 377.041 198.712 377.233 198.648C377.937 198.584 378.449 198.52 378.769 198.456C379.089 198.328 379.313 198.168 379.441 197.976C379.633 197.784 379.825 197.496 380.017 197.112C380.017 197.048 380.017 197.016 380.017 197.016Z" fill="#333333"/>
<path d="M399.896 203.544C400.344 203.16 400.792 202.744 401.24 202.296V202.392C402.2 201.432 402.68 200.888 402.68 200.76C402.488 198.2 401.816 196.728 400.664 196.344C399.576 195.896 397.88 197.144 395.576 200.088C394.488 201.688 394.04 203.16 394.232 204.504C394.424 205.784 394.68 206.52 395 206.712C395.32 206.904 395.736 206.84 396.248 206.52C396.632 206.264 397.176 205.848 397.88 205.272V204.12C397.88 203.544 398.168 203.256 398.744 203.256C398.936 203.256 399.192 203.288 399.512 203.352L399.896 203.544ZM403.352 203.448C403.672 203.256 404.216 203 404.984 202.68C406.84 201.848 408.984 200.792 411.416 199.512C411.416 199.128 411.352 198.744 411.224 198.36C410.712 197.016 410.264 196.376 409.88 196.44C409.56 196.504 409.176 196.728 408.728 197.112C408.344 197.496 407.736 198.136 406.904 199.032C406.072 199.928 405.24 200.92 404.408 202.008L404.312 201.912C403.8 202.616 403.48 203.128 403.352 203.448ZM411.224 200.952C407.832 202.68 405.208 203.8 403.352 204.312H403.256C403.896 207.32 404.792 208.632 405.944 208.248C407.16 207.864 408.472 206.456 409.88 204.024C410.584 202.872 411.032 201.848 411.224 200.952ZM404.216 198.744C405.368 197.08 406.36 195.544 407.192 194.136L407.384 193.752L407.288 193.848L409.304 189.624C409.496 189.624 409.784 189.848 410.168 190.296C410.616 190.68 410.84 191.096 410.84 191.544C410.84 191.864 409.912 193.304 408.056 195.864L407.384 196.824C408.6 195.544 409.432 194.872 409.88 194.808C410.712 194.68 411.64 195.544 412.664 197.4C412.856 197.784 412.984 198.2 413.048 198.648L415.544 197.304C417.912 196.024 420.152 194.68 422.264 193.272C422.328 193.336 422.424 193.4 422.552 193.464C422.68 193.464 422.776 193.592 422.84 193.848C422.84 194.232 422.68 194.52 422.36 194.712C418.904 196.76 415.864 198.488 413.24 199.896C413.24 201.304 412.824 202.872 411.992 204.6C410.584 207.608 408.344 209.592 405.272 210.552C403.544 210.808 402.424 209.656 401.912 207.096V205.464C401.848 205.464 401.784 205.528 401.72 205.656C401.72 205.72 401.592 205.88 401.336 206.136C401.144 206.392 400.792 206.872 400.28 207.576C400.088 207.768 399.928 207.96 399.8 208.152V208.248L399.224 209.016C398.968 209.336 398.712 209.688 398.456 210.072L397.592 211.128C396.376 212.984 395.32 214.84 394.424 216.696C389.944 225.848 385.368 233.56 380.696 239.832C379.224 241.88 378.2 242.904 377.624 242.904C377.112 242.904 376.856 242.52 376.856 241.752C376.856 240.728 377.528 238.936 378.872 236.376C382.584 229.464 387.512 221.688 393.656 213.048C394.232 212.28 394.648 211.672 394.904 211.224C395.224 210.712 395.48 210.296 395.672 209.976C395.864 209.656 396.408 208.888 397.304 207.672C397.432 207.48 397.592 207.288 397.784 207.096V206.808C396.248 208.024 395.256 208.632 394.808 208.632C393.912 208.632 393.048 207.992 392.216 206.712C391.128 204.152 391.608 201.272 393.656 198.072C396.664 194.616 399.288 193.176 401.528 193.752C403.256 193.752 404.216 195.032 404.408 197.592L404.216 198.744Z" fill="#333333"/>
<path d="M450.237 197.688L450.141 197.496C450.333 197.624 450.429 197.816 450.429 198.072C450.493 198.264 450.397 198.52 450.141 198.84L448.317 199.992C442.941 203.256 439.005 205.56 436.509 206.904C434.077 208.248 431.997 209.24 430.269 209.88C424.381 211.992 420.253 211.896 417.885 209.592C417.565 209.208 417.245 208.728 416.925 208.152C416.605 207.576 416.381 207.064 416.253 206.616C416.189 206.488 416.157 206.392 416.157 206.328C416.093 206.2 416.061 206.136 416.061 206.136C416.061 206.136 416.061 206.008 416.061 205.752C416.061 205.432 416.061 205.112 416.061 204.792C416.061 204.408 416.061 204.088 416.061 203.832C416.061 203.576 416.061 203.416 416.061 203.352C416.061 203.352 416.093 203.288 416.157 203.16C416.285 202.904 416.381 202.552 416.445 202.104C417.085 200.312 418.365 198.52 420.285 196.728C422.717 194.552 424.861 194.104 426.717 195.384C427.997 196.344 428.253 197.624 427.485 199.224C426.525 200.952 424.957 202.36 422.781 203.448C422.333 203.704 421.949 203.864 421.629 203.928C421.373 203.928 421.053 203.928 420.669 203.928C420.413 203.992 420.221 204.024 420.093 204.024C419.965 204.024 419.869 203.992 419.805 203.928C419.677 203.864 419.549 203.8 419.421 203.736C419.165 203.48 418.973 203.416 418.845 203.544C418.717 203.608 418.589 203.96 418.461 204.6C418.397 204.92 418.365 205.176 418.365 205.368C418.301 205.56 418.301 205.752 418.365 205.944C418.365 206.136 418.397 206.36 418.461 206.616C418.909 208.536 420.605 209.496 423.549 209.496C427.581 209.496 433.245 207.352 440.541 203.064C441.309 202.616 442.173 202.104 443.133 201.528C444.349 200.888 445.373 200.312 446.205 199.8C446.397 199.672 446.589 199.544 446.781 199.416C448.573 198.456 449.725 197.88 450.237 197.688ZM420.381 200.664L419.901 201.24L420.669 201.144C421.245 201.016 421.789 200.856 422.301 200.664C422.813 200.408 423.325 200.088 423.837 199.704C424.349 199.256 424.733 198.872 424.989 198.552C425.437 197.976 425.245 197.752 424.413 197.88C423.837 198.008 423.165 198.328 422.397 198.84C421.629 199.352 420.957 199.96 420.381 200.664Z" fill="#333333"/>
<path d="M470.781 198.168H470.973C471.037 198.168 471.069 198.168 471.069 198.168C471.133 198.232 471.197 198.296 471.261 198.36C471.325 198.36 471.357 198.424 471.357 198.552C471.421 198.616 471.453 198.776 471.453 199.032C471.453 199.16 471.453 199.288 471.453 199.416C471.453 199.48 471.421 199.544 471.357 199.608C471.357 199.672 471.325 199.736 471.261 199.8C471.197 199.8 471.133 199.832 471.069 199.896C471.069 199.896 471.037 199.896 470.973 199.896C468.413 201.368 465.917 202.648 463.485 203.736C461.117 204.824 459.197 205.592 457.725 206.04C454.653 206.936 452.253 207 450.525 206.232C448.157 205.08 446.973 203.128 446.973 200.376C446.973 198.584 447.357 196.568 448.125 194.328C448.957 192.088 450.045 190.008 451.389 188.088C451.837 187.448 452.413 186.712 453.117 185.88C453.885 185.048 454.589 184.408 455.229 183.96C457.213 182.616 458.877 181.944 460.221 181.944C460.989 181.944 461.725 182.2 462.429 182.712C463.453 183.608 463.869 184.888 463.677 186.552C463.485 188.216 462.749 189.72 461.469 191.064C460.573 192.024 459.773 192.344 459.069 192.024C458.301 191.832 457.917 191.416 457.917 190.776C457.917 190.584 457.917 190.424 457.917 190.296C457.917 190.168 457.949 190.04 458.013 189.912C458.141 189.72 458.301 189.464 458.493 189.144C458.557 189.016 458.621 188.92 458.685 188.856C459.581 187.448 459.965 186.456 459.837 185.88C459.837 185.752 459.837 185.656 459.837 185.592C459.837 185.528 459.805 185.496 459.741 185.496C459.677 185.496 459.549 185.496 459.357 185.496C458.781 185.432 458.077 185.656 457.245 186.168C456.413 186.68 455.549 187.352 454.653 188.184C452.925 190.04 451.485 192.28 450.333 194.904C449.245 197.528 448.829 199.768 449.085 201.624C449.597 205.016 452.669 205.784 458.301 203.928C459.709 203.48 461.181 202.904 462.717 202.2C464.317 201.496 466.589 200.344 469.533 198.744C469.725 198.68 469.917 198.584 470.109 198.456C470.365 198.328 470.589 198.232 470.781 198.168Z" fill="#333333"/>
<path d="M491.406 198.168H491.598C491.662 198.168 491.694 198.168 491.694 198.168C491.758 198.232 491.822 198.296 491.886 198.36C491.95 198.36 491.982 198.424 491.982 198.552C492.046 198.616 492.078 198.776 492.078 199.032C492.078 199.16 492.078 199.288 492.078 199.416C492.078 199.48 492.046 199.544 491.982 199.608C491.982 199.672 491.95 199.736 491.886 199.8C491.822 199.8 491.758 199.832 491.694 199.896C491.694 199.896 491.662 199.896 491.598 199.896C489.038 201.368 486.542 202.648 484.11 203.736C481.742 204.824 479.822 205.592 478.35 206.04C475.278 206.936 472.878 207 471.15 206.232C468.782 205.08 467.598 203.128 467.598 200.376C467.598 198.584 467.982 196.568 468.75 194.328C469.582 192.088 470.67 190.008 472.014 188.088C472.462 187.448 473.038 186.712 473.742 185.88C474.51 185.048 475.214 184.408 475.854 183.96C477.838 182.616 479.502 181.944 480.846 181.944C481.614 181.944 482.35 182.2 483.054 182.712C484.078 183.608 484.494 184.888 484.302 186.552C484.11 188.216 483.374 189.72 482.094 191.064C481.198 192.024 480.398 192.344 479.694 192.024C478.926 191.832 478.542 191.416 478.542 190.776C478.542 190.584 478.542 190.424 478.542 190.296C478.542 190.168 478.574 190.04 478.638 189.912C478.766 189.72 478.926 189.464 479.118 189.144C479.182 189.016 479.246 188.92 479.31 188.856C480.206 187.448 480.59 186.456 480.462 185.88C480.462 185.752 480.462 185.656 480.462 185.592C480.462 185.528 480.43 185.496 480.366 185.496C480.302 185.496 480.174 185.496 479.982 185.496C479.406 185.432 478.702 185.656 477.87 186.168C477.038 186.68 476.174 187.352 475.278 188.184C473.55 190.04 472.11 192.28 470.958 194.904C469.87 197.528 469.454 199.768 469.71 201.624C470.222 205.016 473.294 205.784 478.926 203.928C480.334 203.48 481.806 202.904 483.342 202.2C484.942 201.496 487.214 200.344 490.158 198.744C490.35 198.68 490.542 198.584 490.734 198.456C490.99 198.328 491.214 198.232 491.406 198.168Z" fill="#333333"/>
<path d="M519.231 199.128L519.327 199.32C519.519 199.192 519.711 199.064 519.903 198.936C521.119 197.976 521.983 197.272 522.495 196.824C522.495 197.08 522.495 197.272 522.495 197.4C522.495 197.528 522.495 197.688 522.495 197.88C521.983 198.328 521.215 198.904 520.191 199.608C515.583 203.256 512.127 205.848 509.823 207.384C507.519 208.92 505.695 209.88 504.351 210.264C502.431 210.904 501.087 210.52 500.319 209.112C500.127 208.664 500.031 208.12 500.031 207.48C500.031 206.776 500.127 206.072 500.319 205.368C500.575 204.664 500.959 203.8 501.471 202.776C502.047 201.752 502.623 200.76 503.199 199.8C503.519 199.352 503.775 199 503.967 198.744C504.223 198.424 504.319 198.264 504.255 198.264C504.063 198.264 502.591 199.032 499.839 200.568C496.511 202.488 494.015 203.704 492.351 204.216C490.687 204.664 489.503 204.568 488.799 203.928C487.967 203.16 487.711 201.944 488.031 200.28C488.095 200.088 488.223 199.704 488.415 199.128C488.607 198.552 488.831 197.976 489.087 197.4C489.407 196.76 489.663 196.152 489.855 195.576C490.047 194.936 490.207 194.456 490.335 194.136C490.911 192.408 491.711 191.544 492.735 191.544C493.823 191.544 494.367 192.248 494.367 193.656C494.367 193.848 494.335 194.072 494.271 194.328C494.207 194.52 494.015 194.776 493.695 195.096C493.439 195.416 493.055 195.896 492.543 196.536C492.159 196.984 491.743 197.592 491.295 198.36C490.911 199.128 490.559 199.896 490.239 200.664C489.919 201.368 489.759 201.88 489.759 202.2C489.759 203.032 490.655 203.224 492.447 202.776C493.151 202.52 494.175 202.04 495.519 201.336C496.927 200.568 498.367 199.768 499.839 198.936C501.375 198.04 502.687 197.304 503.775 196.728C504.927 196.152 505.663 195.8 505.983 195.672C506.175 195.608 506.335 195.608 506.463 195.672C506.591 195.672 506.687 195.736 506.751 195.864C507.071 196.184 507.135 196.6 506.943 197.112C506.815 197.624 506.335 198.488 505.503 199.704C504.735 201.048 503.999 202.52 503.295 204.12C502.655 205.72 502.239 206.968 502.047 207.864C502.047 208.12 502.047 208.312 502.047 208.44C502.111 208.568 502.175 208.696 502.239 208.824C502.431 209.08 502.687 209.208 503.007 209.208C503.391 209.208 503.903 209.08 504.543 208.824C506.783 208.056 511.679 204.824 519.231 199.128Z" fill="#333333"/>
<path d="M545.944 195.096V195.288C546.136 195.352 546.264 195.48 546.328 195.672C546.392 195.864 546.392 196.056 546.328 196.248C546.264 196.376 546.136 196.408 545.944 196.344C543.256 196.344 539.288 196.984 534.04 198.264L531.256 198.936L530.776 199.8C530.072 201.272 529.048 202.776 527.704 204.312C526.36 205.848 525.016 207.128 523.672 208.152C521.048 210.136 519.384 210.232 518.68 208.44C518.552 208.248 518.456 208.056 518.392 207.864C518.328 207.672 518.296 207.448 518.296 207.192C518.296 206.936 518.296 206.584 518.296 206.136V204.504C518.296 204.504 518.36 204.376 518.488 204.12C518.552 203.8 518.648 203.48 518.776 203.16C518.904 202.776 519.032 202.424 519.16 202.104C519.288 201.784 519.384 201.56 519.448 201.432C519.576 201.176 519.736 200.92 519.928 200.664C520.12 200.408 520.28 200.216 520.408 200.088L520.984 199.608L520.6 199.224C519.32 197.624 520.024 195.48 522.712 192.792C524.952 190.808 527.064 189.976 529.048 190.296C530.776 190.68 531.864 191.576 532.312 192.984C532.44 193.432 532.472 194.008 532.408 194.712C532.408 195.352 532.312 195.992 532.12 196.632C531.992 196.952 531.896 197.208 531.832 197.4C531.832 197.592 531.864 197.688 531.928 197.688C531.992 197.688 532.28 197.624 532.792 197.496C533.304 197.368 533.944 197.208 534.712 197.016C537.976 196.056 540.344 195.512 541.816 195.384C543.16 195.192 544.536 195.096 545.944 195.096ZM528.664 199.992L528.952 199.512L528.664 199.608C528.408 199.672 527.96 199.736 527.32 199.8C526.744 199.928 526.2 200.024 525.688 200.088C525.176 200.152 524.76 200.216 524.44 200.28L523.48 200.376V200.856C523.48 200.984 523.416 201.176 523.288 201.432C523.224 201.624 523.128 201.816 523 202.008C522.744 202.456 522.456 203.064 522.136 203.832C521.816 204.6 521.528 205.368 521.272 206.136C521.016 206.84 520.888 207.32 520.888 207.576C520.888 207.768 521.304 207.576 522.136 207C523.096 206.36 524.248 205.304 525.592 203.832C526.936 202.36 527.96 201.08 528.664 199.992ZM530.392 197.016H530.296C531.704 194.264 531.48 192.696 529.624 192.312C529.112 192.184 528.504 192.152 527.8 192.216C527.096 192.28 526.52 192.408 526.072 192.6C524.728 193.176 523.576 194.04 522.616 195.192C521.656 196.344 521.272 197.304 521.464 198.072C521.848 199.032 523.736 199.256 527.128 198.744C527.256 198.744 527.416 198.712 527.608 198.648C528.312 198.584 528.824 198.52 529.144 198.456C529.464 198.328 529.688 198.168 529.816 197.976C530.008 197.784 530.2 197.496 530.392 197.112C530.392 197.048 530.392 197.016 530.392 197.016Z" fill="#333333"/>
<path d="M545.759 200.376C545.503 201.144 545.215 201.976 544.895 202.872C544.127 205.112 543.391 206.424 542.687 206.808C542.111 207.128 541.631 207.128 541.247 206.808C540.863 206.488 540.703 206.008 540.767 205.368C540.831 204.856 541.087 204.056 541.535 202.968C541.919 201.816 542.399 200.568 542.975 199.224C543.551 197.944 544.063 196.632 544.511 195.288C544.959 193.944 545.343 192.792 545.663 191.832C545.791 191.448 545.887 191.128 545.951 190.872C545.951 190.744 545.983 190.68 546.047 190.68V190.488L546.431 189.336C546.879 188.12 547.391 187.352 547.967 187.032C548.927 186.52 549.791 186.744 550.559 187.704C550.687 187.96 550.751 188.376 550.751 188.952C550.815 189.464 550.783 189.88 550.655 190.2C550.527 190.328 550.367 190.584 550.175 190.968C549.983 191.352 549.791 191.8 549.599 192.312C549.279 192.824 548.863 193.624 548.351 194.712C547.839 195.736 547.327 196.792 546.815 197.88L546.431 198.84C546.751 199.224 547.583 199.256 548.927 198.936C549.631 198.68 550.655 198.2 551.999 197.496C553.407 196.728 554.847 195.928 556.319 195.096C557.855 194.2 559.647 193.208 561.695 192.12C562.463 191.096 563.007 189.976 563.327 188.76C563.775 188.12 564.415 187.928 565.247 188.184C565.375 188.248 565.471 188.344 565.535 188.472C565.855 188.792 565.535 189.816 564.575 191.544C563.679 193.208 562.815 194.648 561.983 195.864C561.215 197.208 560.479 198.68 559.775 200.28C559.135 201.88 558.719 203.128 558.527 204.024C558.527 204.28 558.527 204.472 558.527 204.6C558.591 204.728 558.655 204.856 558.719 204.984C558.911 205.24 559.167 205.368 559.487 205.368C559.871 205.368 560.383 205.24 561.023 204.984C563.263 204.216 568.383 200.92 576.383 195.096C577.599 194.136 578.463 193.432 578.975 192.984V194.04C578.463 194.488 577.695 195.064 576.671 195.768C572.063 199.416 568.607 202.008 566.303 203.544C563.999 205.08 562.175 206.04 560.831 206.424C558.911 207.064 557.567 206.68 556.799 205.272C556.607 204.824 556.511 204.28 556.511 203.64C556.511 202.936 556.607 202.232 556.799 201.528C557.055 200.824 557.439 199.96 557.951 198.936C558.527 197.912 559.103 196.92 559.679 195.96C559.999 195.512 560.255 195.16 560.447 194.904C560.703 194.584 560.799 194.424 560.735 194.424C560.543 194.424 559.071 195.192 556.319 196.728C552.991 198.648 550.495 199.832 548.831 200.28C547.551 200.664 546.527 200.696 545.759 200.376Z" fill="#333333"/>
<path d="M613.887 196.632H613.983C614.431 196.44 614.815 196.472 615.135 196.728C615.519 196.92 615.711 197.272 615.711 197.784C615.711 198.232 615.423 198.616 614.847 198.936C614.527 199.128 614.175 199.288 613.791 199.416C610.271 200.888 607.519 202.008 605.535 202.776C603.615 203.544 602.143 204.088 601.119 204.408C600.159 204.728 599.327 204.952 598.623 205.08C596.447 205.464 594.847 205.08 593.823 203.928C592.863 202.84 592.575 201.304 592.959 199.32C593.087 198.68 593.247 197.944 593.439 197.112C593.695 196.28 593.983 195.544 594.303 194.904C594.367 194.712 594.399 194.552 594.399 194.424C594.463 194.296 594.495 194.232 594.495 194.232C594.495 194.232 594.367 194.328 594.111 194.52C593.919 194.712 593.663 194.936 593.343 195.192L592.191 196.248V197.016C591.807 199.576 590.975 200.856 589.695 200.856C589.439 200.856 589.183 200.76 588.927 200.568C588.671 200.376 588.479 200.12 588.351 199.8C588.351 199.736 588.319 199.704 588.255 199.704C588.255 199.64 588.223 199.64 588.159 199.704C588.095 199.768 587.967 199.864 587.775 199.992C587.583 200.12 587.327 200.312 587.007 200.568C586.687 200.824 586.271 201.144 585.759 201.528C583.711 203.128 582.047 204.408 580.767 205.368C579.487 206.328 578.303 207.096 577.215 207.672C573.439 209.784 571.007 209.624 569.919 207.192C569.535 206.232 569.471 205.08 569.727 203.736C570.815 199.448 574.079 195.192 579.519 190.968C583.743 187.832 587.103 187.224 589.599 189.144C590.367 189.72 590.911 190.52 591.231 191.544C591.359 191.864 591.455 192.152 591.519 192.408C591.647 192.6 591.743 192.696 591.807 192.696C591.935 192.696 592.287 192.472 592.863 192.024C593.439 191.512 594.079 190.936 594.783 190.296C595.487 189.592 596.159 188.952 596.799 188.376C597.439 187.8 597.855 187.384 598.047 187.128C598.687 186.296 599.327 185.88 599.967 185.88C600.927 185.88 601.407 186.52 601.407 187.8C601.343 188.056 601.215 188.344 601.023 188.664C600.895 188.92 600.703 189.272 600.447 189.72C599.935 190.616 599.359 191.704 598.719 192.984C598.079 194.264 597.567 195.384 597.183 196.344C596.863 197.112 596.575 197.976 596.319 198.936C596.063 199.832 595.871 200.536 595.743 201.048C595.679 202.264 596.703 202.648 598.815 202.2C599.903 202.008 601.375 201.592 603.231 200.952C605.087 200.248 607.807 199.128 611.391 197.592C612.287 197.336 613.119 197.016 613.887 196.632ZM586.335 197.304L586.431 197.4C587.007 196.952 587.455 196.6 587.775 196.344C588.095 196.088 588.319 195.896 588.447 195.768C588.575 195.576 588.639 195.448 588.639 195.384C588.703 195.256 588.735 195.16 588.735 195.096C588.735 194.904 588.703 194.744 588.639 194.616C588.639 194.488 588.511 194.328 588.255 194.136C586.911 193.112 584.831 193.56 582.015 195.48C581.119 196.12 580.031 197.08 578.751 198.36C577.535 199.64 576.543 200.76 575.775 201.72C575.263 202.488 574.751 203.256 574.239 204.024C573.791 204.792 573.567 205.272 573.567 205.464C573.567 205.656 574.239 205.432 575.583 204.792C577.567 203.832 581.151 201.336 586.335 197.304Z" fill="#333333"/>
<path d="M639.549 205.176C638.141 205.176 637.053 204.792 636.285 204.024C635.581 203.192 635.229 202.168 635.229 200.952C635.229 199.736 635.421 198.552 635.805 197.4C636.189 196.184 636.509 195.352 636.765 194.904C636.893 194.648 636.957 194.424 636.957 194.232C636.893 194.232 636.861 194.264 636.861 194.328L629.469 200.568C627.869 201.848 625.789 203.448 623.229 205.368C619.837 207.864 617.181 209.112 615.261 209.112C613.917 209.112 612.957 208.472 612.381 207.192C611.485 205.464 611.037 203.608 611.037 201.624C611.037 200.152 611.293 198.584 611.805 196.92C612.445 195.576 613.085 194.904 613.725 194.904C613.917 194.904 614.077 194.936 614.205 195C614.973 195.384 615.357 195.864 615.357 196.44C615.357 197.08 615.229 197.56 614.973 197.88C614.333 199.8 614.013 201.368 614.013 202.584C614.013 204.696 614.973 205.816 616.893 205.944C620.989 204.536 627.773 199.288 637.245 190.2C637.949 189.56 638.621 188.952 639.261 188.376C639.901 187.8 640.317 187.384 640.509 187.128C641.149 186.296 641.789 185.88 642.429 185.88C643.005 185.88 643.293 186.104 643.293 186.552C643.293 187.064 642.845 188.12 641.949 189.72C641.437 190.488 640.925 191.544 640.413 192.888C639.901 194.232 639.453 195.352 639.069 196.248C638.749 197.08 638.429 198.008 638.109 199.032C637.853 199.992 637.789 200.856 637.917 201.624C638.109 202.328 638.973 202.68 640.509 202.68C642.685 202.424 644.541 201.912 646.077 201.144C647.677 200.312 650.269 199.128 653.853 197.592C654.749 197.336 655.613 197.016 656.445 196.632L657.117 196.44C657.821 196.44 658.173 196.888 658.173 197.784C658.173 198.424 657.533 198.968 656.253 199.416C649.853 202.104 645.597 203.8 643.485 204.504L642.813 204.696C641.533 205.016 640.445 205.176 639.549 205.176Z" fill="#333333"/>
<path d="M660.969 201.72L661.161 201.432L660.969 201.528C660.777 201.528 660.489 201.56 660.105 201.624C659.785 201.688 659.433 201.752 659.049 201.816C658.729 201.88 658.473 201.912 658.281 201.912L657.705 202.008L656.265 202.296C656.265 202.36 656.233 202.456 656.169 202.584C656.105 202.712 656.009 202.84 655.881 202.968V203.352C655.817 203.672 655.753 204.088 655.689 204.6C655.689 205.048 655.689 205.464 655.689 205.848C655.753 206.168 655.849 206.328 655.977 206.328V206.424C656.041 206.424 656.105 206.424 656.169 206.424C656.233 206.36 656.297 206.328 656.361 206.328C656.489 206.264 656.649 206.168 656.841 206.04C657.417 205.592 658.121 204.952 658.953 204.12C659.849 203.224 660.521 202.424 660.969 201.72ZM657.705 197.4L656.457 200.472C657.097 200.792 658.281 200.824 660.009 200.568C660.137 200.568 660.233 200.536 660.297 200.472C660.809 200.408 661.161 200.376 661.353 200.376C661.609 200.312 661.769 200.216 661.833 200.088C661.961 199.96 662.089 199.736 662.217 199.416C663.177 197.56 663.017 196.536 661.737 196.344C661.353 196.216 660.905 196.184 660.393 196.248C659.945 196.248 659.561 196.344 659.241 196.536C658.665 196.728 658.153 197.016 657.705 197.4ZM655.689 198.072L656.457 195.192C656.585 194.36 656.745 193.496 656.937 192.6L657.033 191.448C657.033 191.384 657.065 191.288 657.129 191.16C657.193 190.584 657.257 190.136 657.321 189.816C657.385 189.496 657.449 189.272 657.513 189.144C657.641 189.016 657.769 188.856 657.897 188.664C658.409 188.28 658.729 188.12 658.857 188.184C659.561 188.632 659.849 189.208 659.721 189.912C659.657 190.552 659.401 191.192 658.953 191.832C658.633 193.304 658.505 194.424 658.569 195.192C659.657 194.552 660.713 194.328 661.737 194.52C663.081 194.776 663.913 195.416 664.233 196.44C664.297 196.76 664.329 197.176 664.329 197.688C664.329 198.136 664.265 198.584 664.137 199.032C664.009 199.224 663.945 199.384 663.945 199.512V199.8C664.009 199.8 664.233 199.768 664.617 199.704C665.001 199.576 665.481 199.448 666.057 199.32C668.489 198.616 670.281 198.232 671.433 198.168C672.393 197.976 673.417 197.88 674.505 197.88V198.072C674.697 198.072 674.793 198.168 674.793 198.36C674.857 198.488 674.857 198.616 674.793 198.744C674.793 198.808 674.697 198.84 674.505 198.84C672.521 198.84 669.545 199.288 665.577 200.184L663.465 200.664L663.081 201.24C662.569 202.328 661.801 203.416 660.777 204.504C659.753 205.592 658.729 206.52 657.705 207.288C655.721 208.696 654.473 208.76 653.961 207.48C653.897 207.288 653.833 207.16 653.769 207.096C653.705 206.968 653.673 206.808 653.673 206.616C653.673 206.424 653.673 206.168 653.673 205.848L654.537 202.488C654.537 202.424 654.569 202.232 654.633 201.912C654.761 201.208 654.985 200.28 655.305 199.128C655.433 198.744 655.561 198.392 655.689 198.072Z" fill="#333333"/>
<path d="M678.321 200.376C678.065 201.144 677.777 201.976 677.457 202.872C676.689 205.112 675.953 206.424 675.249 206.808C674.673 207.128 674.193 207.128 673.809 206.808C673.425 206.488 673.265 206.008 673.329 205.368C673.393 204.856 673.649 204.056 674.097 202.968C674.481 201.816 674.961 200.568 675.537 199.224C676.113 197.944 676.625 196.632 677.073 195.288C677.521 193.944 677.905 192.792 678.225 191.832C678.353 191.448 678.449 191.128 678.513 190.872C678.513 190.744 678.545 190.68 678.609 190.68V190.488L678.993 189.336C679.441 188.12 679.953 187.352 680.529 187.032C681.489 186.52 682.353 186.744 683.121 187.704C683.249 187.96 683.313 188.376 683.313 188.952C683.377 189.464 683.345 189.88 683.217 190.2C683.089 190.328 682.929 190.584 682.737 190.968C682.545 191.352 682.353 191.8 682.161 192.312C681.841 192.824 681.425 193.624 680.913 194.712C680.401 195.736 679.889 196.792 679.377 197.88L678.993 198.84C679.313 199.224 680.145 199.256 681.489 198.936C682.193 198.68 683.217 198.2 684.561 197.496C685.969 196.728 687.409 195.928 688.881 195.096C690.417 194.2 692.209 193.208 694.257 192.12C695.025 191.096 695.569 189.976 695.889 188.76C696.337 188.12 696.977 187.928 697.809 188.184C697.937 188.248 698.033 188.344 698.097 188.472C698.417 188.792 698.097 189.816 697.137 191.544C696.241 193.208 695.377 194.648 694.545 195.864C693.777 197.208 693.041 198.68 692.337 200.28C691.697 201.88 691.281 203.128 691.089 204.024C691.089 204.28 691.089 204.472 691.089 204.6C691.153 204.728 691.217 204.856 691.281 204.984C691.473 205.24 691.729 205.368 692.049 205.368C692.433 205.368 692.945 205.24 693.585 204.984C695.825 204.216 700.945 200.92 708.945 195.096C710.161 194.136 711.025 193.432 711.537 192.984V194.04C711.025 194.488 710.257 195.064 709.233 195.768C704.625 199.416 701.169 202.008 698.865 203.544C696.561 205.08 694.737 206.04 693.393 206.424C691.473 207.064 690.129 206.68 689.361 205.272C689.169 204.824 689.073 204.28 689.073 203.64C689.073 202.936 689.169 202.232 689.361 201.528C689.617 200.824 690.001 199.96 690.513 198.936C691.089 197.912 691.665 196.92 692.241 195.96C692.561 195.512 692.817 195.16 693.009 194.904C693.265 194.584 693.361 194.424 693.297 194.424C693.105 194.424 691.633 195.192 688.881 196.728C685.553 198.648 683.057 199.832 681.393 200.28C680.113 200.664 679.089 200.696 678.321 200.376Z" fill="#333333"/>
<path d="M711.217 201.816L711.409 201.528L711.217 201.624C711.089 201.624 710.801 201.656 710.353 201.72C710.033 201.784 709.713 201.848 709.393 201.912C709.073 201.976 708.817 202.008 708.625 202.008L708.049 202.104L706.609 202.296C706.609 202.424 706.577 202.552 706.513 202.68C706.513 202.808 706.449 202.904 706.321 202.968V203.352C706.257 203.672 706.193 204.056 706.129 204.504C706.129 204.952 706.129 205.368 706.129 205.752C706.193 206.072 706.289 206.264 706.417 206.328C706.481 206.328 706.545 206.328 706.609 206.328C706.673 206.264 706.737 206.232 706.801 206.232C706.929 206.168 707.057 206.072 707.185 205.944C707.761 205.56 708.465 204.952 709.297 204.12C710.129 203.224 710.769 202.456 711.217 201.816ZM706.033 198.072L706.801 195.192C706.929 194.36 707.089 193.496 707.281 192.6L707.377 191.448C707.377 191.384 707.409 191.288 707.473 191.16C707.537 190.584 707.601 190.136 707.665 189.816C707.729 189.496 707.793 189.272 707.857 189.144C707.985 189.016 708.113 188.856 708.241 188.664C708.753 188.28 709.073 188.12 709.201 188.184C709.905 188.632 710.193 189.208 710.065 189.912C710.001 190.552 709.745 191.192 709.297 191.832C708.977 193.304 708.849 194.424 708.913 195.192C710.001 194.552 711.057 194.328 712.081 194.52C713.425 194.776 714.257 195.416 714.577 196.44C714.641 196.76 714.673 197.176 714.673 197.688C714.673 198.136 714.609 198.584 714.481 199.032C714.353 199.224 714.289 199.384 714.289 199.512V199.8C714.417 199.8 714.673 199.768 715.057 199.704C715.441 199.64 715.889 199.512 716.401 199.32C716.785 199.128 717.201 198.84 717.649 198.456C718.161 198.072 718.673 197.688 719.185 197.304C719.313 197.176 719.473 197.048 719.665 196.92C719.921 196.28 720.145 195.8 720.337 195.48C720.849 194.712 721.105 194.296 721.105 194.232C721.105 193.784 721.137 193.464 721.201 193.272C721.329 193.08 721.457 192.92 721.585 192.792C721.713 192.6 721.905 192.44 722.161 192.312C722.417 192.12 722.641 192.024 722.833 192.024C723.025 192.024 723.217 192.12 723.409 192.312C723.665 192.44 723.857 192.6 723.985 192.792C724.305 193.112 724.081 193.752 723.313 194.712C722.609 195.608 722.001 196.408 721.489 197.112C720.977 197.816 720.625 198.68 720.433 199.704C720.305 200.664 720.177 201.624 720.049 202.584C719.921 203.544 719.857 204.184 719.857 204.504C719.857 205.4 720.465 205.976 721.681 206.232C722.577 206.36 723.825 206.264 725.425 205.944C727.089 205.56 729.681 204.152 733.201 201.72C736.785 199.288 738.833 197.72 739.345 197.016C739.729 196.824 740.017 196.664 740.209 196.536L740.977 196.152C741.297 196.088 741.489 196.152 741.553 196.344C741.617 196.536 741.617 196.76 741.553 197.016C741.489 197.272 741.329 197.464 741.073 197.592C740.561 197.912 738.385 199.48 734.545 202.296C730.769 205.112 727.633 206.712 725.137 207.096C724.305 207.288 723.473 207.416 722.641 207.48C721.809 207.544 721.169 207.512 720.721 207.384C719.505 207.064 718.641 206.392 718.129 205.368C718.001 204.92 717.937 204.408 717.937 203.832C717.937 203.256 718.001 202.616 718.129 201.912C718.193 201.656 718.225 201.432 718.225 201.24V200.952C718.481 200.12 718.737 199.352 718.993 198.648C718.225 199.16 717.201 199.672 715.921 200.184L713.809 200.664L713.425 201.24C712.913 202.328 712.145 203.416 711.121 204.504C710.097 205.592 709.073 206.52 708.049 207.288C706.065 208.696 704.817 208.76 704.305 207.48C704.241 207.288 704.177 207.16 704.113 207.096C704.049 206.968 704.017 206.808 704.017 206.616C704.017 206.424 704.017 206.168 704.017 205.848L704.881 202.488C704.881 202.424 704.913 202.232 704.977 201.912C705.105 201.208 705.329 200.28 705.649 199.128C705.777 198.744 705.905 198.392 706.033 198.072ZM708.049 197.4L706.801 200.472C707.441 200.792 708.625 200.824 710.353 200.568C710.481 200.568 710.577 200.536 710.641 200.472C711.153 200.408 711.505 200.376 711.697 200.376C711.953 200.312 712.113 200.216 712.177 200.088C712.305 199.96 712.433 199.736 712.561 199.416C713.521 197.56 713.361 196.536 712.081 196.344C711.697 196.216 711.249 196.184 710.737 196.248C710.289 196.248 709.905 196.344 709.585 196.536C709.009 196.728 708.497 197.016 708.049 197.4Z" fill="#333333"/>
<path d="M770.293 199.128L770.389 199.32C770.581 199.192 770.773 199.064 770.965 198.936C772.181 197.976 773.045 197.272 773.557 196.824C773.557 197.08 773.557 197.272 773.557 197.4C773.557 197.528 773.557 197.688 773.557 197.88C773.045 198.328 772.277 198.904 771.253 199.608C766.645 203.256 763.189 205.848 760.885 207.384C758.581 208.92 756.757 209.88 755.413 210.264C753.493 210.904 752.149 210.52 751.381 209.112C751.189 208.664 751.093 208.12 751.093 207.48C751.093 206.776 751.189 206.072 751.381 205.368C751.637 204.664 752.021 203.8 752.533 202.776C753.109 201.752 753.685 200.76 754.261 199.8C754.581 199.352 754.837 199 755.029 198.744C755.285 198.424 755.381 198.264 755.317 198.264C755.125 198.264 753.653 199.032 750.901 200.568C747.573 202.488 745.077 203.704 743.413 204.216C741.749 204.664 740.565 204.568 739.861 203.928C739.029 203.16 738.773 201.944 739.093 200.28C739.157 200.088 739.285 199.704 739.477 199.128C739.669 198.552 739.893 197.976 740.149 197.4C740.469 196.76 740.725 196.152 740.917 195.576C741.109 194.936 741.269 194.456 741.397 194.136C741.973 192.408 742.773 191.544 743.797 191.544C744.885 191.544 745.429 192.248 745.429 193.656C745.429 193.848 745.397 194.072 745.333 194.328C745.269 194.52 745.077 194.776 744.757 195.096C744.501 195.416 744.117 195.896 743.605 196.536C743.221 196.984 742.805 197.592 742.357 198.36C741.973 199.128 741.621 199.896 741.301 200.664C740.981 201.368 740.821 201.88 740.821 202.2C740.821 203.032 741.717 203.224 743.509 202.776C744.213 202.52 745.237 202.04 746.581 201.336C747.989 200.568 749.429 199.768 750.901 198.936C752.437 198.04 753.749 197.304 754.837 196.728C755.989 196.152 756.725 195.8 757.045 195.672C757.237 195.608 757.397 195.608 757.525 195.672C757.653 195.672 757.749 195.736 757.813 195.864C758.133 196.184 758.197 196.6 758.005 197.112C757.877 197.624 757.397 198.488 756.565 199.704C755.797 201.048 755.061 202.52 754.357 204.12C753.717 205.72 753.301 206.968 753.109 207.864C753.109 208.12 753.109 208.312 753.109 208.44C753.173 208.568 753.237 208.696 753.301 208.824C753.493 209.08 753.749 209.208 754.069 209.208C754.453 209.208 754.965 209.08 755.605 208.824C757.845 208.056 762.741 204.824 770.293 199.128ZM747.733 176.952C747.925 176.44 748.053 176.088 748.117 175.896C748.245 175.64 748.341 175.48 748.405 175.416C748.469 175.288 748.565 175.224 748.693 175.224C748.821 175.16 748.885 175.128 748.885 175.128C748.949 175.064 748.981 175.064 748.981 175.128C749.045 175.128 749.109 175.192 749.173 175.32C749.237 175.384 749.269 175.48 749.269 175.608C749.333 175.736 749.333 175.992 749.269 176.376C749.269 176.696 749.205 177.176 749.077 177.816C749.077 177.88 749.077 177.976 749.077 178.104C748.949 179 748.853 179.704 748.789 180.216C748.789 180.728 748.853 181.208 748.981 181.656C749.173 182.232 749.429 182.808 749.749 183.384C750.069 183.896 750.453 184.28 750.901 184.536C751.029 184.6 751.189 184.664 751.381 184.728C751.637 184.728 751.893 184.76 752.149 184.824C752.469 184.888 752.725 184.952 752.917 185.016C753.109 185.016 753.301 184.984 753.493 184.92C754.709 184.472 755.861 182.968 756.949 180.408C757.141 179.768 757.301 179.352 757.429 179.16C757.557 178.904 757.717 178.744 757.909 178.68C758.229 178.488 758.549 178.52 758.869 178.776C759.253 179.032 759.445 179.608 759.445 180.504C759.445 180.824 759.413 181.112 759.349 181.368C759.285 181.624 759.189 182.008 759.061 182.52C758.933 183.224 758.741 183.8 758.485 184.248C758.293 184.632 758.037 185.048 757.717 185.496C756.629 187.032 755.349 187.8 753.877 187.8C753.557 187.8 753.205 187.768 752.821 187.704C752.437 187.576 751.957 187.384 751.381 187.128C750.741 186.744 750.165 186.36 749.653 185.976C749.205 185.592 748.789 185.112 748.405 184.536C748.149 184.088 747.957 183.736 747.829 183.48C747.701 183.224 747.605 182.872 747.541 182.424C747.221 181.528 747.093 180.696 747.157 179.928C747.221 179.096 747.445 178.136 747.829 177.048L747.733 176.952Z" fill="#333333"/>
<path d="M801.519 197.688L801.423 197.496C801.615 197.624 801.711 197.816 801.711 198.072C801.775 198.264 801.679 198.52 801.423 198.84L799.599 199.992C794.223 203.256 790.287 205.56 787.791 206.904C785.359 208.248 783.279 209.24 781.551 209.88C775.663 211.992 771.535 211.896 769.167 209.592C768.847 209.208 768.527 208.728 768.207 208.152C767.887 207.576 767.663 207.064 767.535 206.616C767.471 206.488 767.439 206.392 767.439 206.328C767.375 206.2 767.343 206.136 767.343 206.136C767.343 206.136 767.343 206.008 767.343 205.752C767.343 205.432 767.343 205.112 767.343 204.792C767.343 204.408 767.343 204.088 767.343 203.832C767.343 203.576 767.343 203.416 767.343 203.352C767.343 203.352 767.375 203.288 767.439 203.16C767.567 202.904 767.663 202.552 767.727 202.104C768.367 200.312 769.647 198.52 771.567 196.728C773.999 194.552 776.143 194.104 777.999 195.384C779.279 196.344 779.535 197.624 778.767 199.224C777.807 200.952 776.239 202.36 774.063 203.448C773.615 203.704 773.231 203.864 772.911 203.928C772.655 203.928 772.335 203.928 771.951 203.928C771.695 203.992 771.503 204.024 771.375 204.024C771.247 204.024 771.151 203.992 771.087 203.928C770.959 203.864 770.831 203.8 770.703 203.736C770.447 203.48 770.255 203.416 770.127 203.544C769.999 203.608 769.871 203.96 769.743 204.6C769.679 204.92 769.647 205.176 769.647 205.368C769.583 205.56 769.583 205.752 769.647 205.944C769.647 206.136 769.679 206.36 769.743 206.616C770.191 208.536 771.887 209.496 774.831 209.496C778.863 209.496 784.527 207.352 791.823 203.064C792.591 202.616 793.455 202.104 794.415 201.528C795.631 200.888 796.655 200.312 797.487 199.8C797.679 199.672 797.871 199.544 798.063 199.416C799.855 198.456 801.007 197.88 801.519 197.688ZM771.663 200.664L771.183 201.24L771.951 201.144C772.527 201.016 773.071 200.856 773.583 200.664C774.095 200.408 774.607 200.088 775.119 199.704C775.631 199.256 776.015 198.872 776.271 198.552C776.719 197.976 776.527 197.752 775.695 197.88C775.119 198.008 774.447 198.328 773.679 198.84C772.911 199.352 772.239 199.96 771.663 200.664Z" fill="#333333"/>
<path d="M833.759 200.376C833.503 201.144 833.215 201.976 832.895 202.872C832.127 205.112 831.391 206.424 830.687 206.808C830.111 207.128 829.631 207.128 829.247 206.808C828.863 206.488 828.703 206.008 828.767 205.368C828.831 204.856 829.087 204.056 829.535 202.968C829.919 201.816 830.399 200.568 830.975 199.224C831.551 197.944 832.063 196.632 832.511 195.288C832.959 193.944 833.343 192.792 833.663 191.832C833.791 191.448 833.887 191.128 833.951 190.872C833.951 190.744 833.983 190.68 834.047 190.68V190.488L834.431 189.336C834.879 188.12 835.391 187.352 835.967 187.032C836.927 186.52 837.791 186.744 838.559 187.704C838.687 187.96 838.751 188.376 838.751 188.952C838.815 189.464 838.783 189.88 838.655 190.2C838.527 190.328 838.367 190.584 838.175 190.968C837.983 191.352 837.791 191.8 837.599 192.312C837.279 192.824 836.863 193.624 836.351 194.712C835.839 195.736 835.327 196.792 834.815 197.88L834.431 198.84C834.751 199.224 835.583 199.256 836.927 198.936C837.631 198.68 838.655 198.2 839.999 197.496C841.407 196.728 842.847 195.928 844.319 195.096C845.855 194.2 847.647 193.208 849.695 192.12C850.463 191.096 851.007 189.976 851.327 188.76C851.775 188.12 852.415 187.928 853.247 188.184C853.375 188.248 853.471 188.344 853.535 188.472C853.855 188.792 853.535 189.816 852.575 191.544C851.679 193.208 850.815 194.648 849.983 195.864C849.215 197.208 848.479 198.68 847.775 200.28C847.135 201.88 846.719 203.128 846.527 204.024C846.527 204.28 846.527 204.472 846.527 204.6C846.591 204.728 846.655 204.856 846.719 204.984C846.911 205.24 847.167 205.368 847.487 205.368C847.871 205.368 848.383 205.24 849.023 204.984C851.263 204.216 856.383 200.92 864.383 195.096C865.599 194.136 866.463 193.432 866.975 192.984V194.04C866.463 194.488 865.695 195.064 864.671 195.768C860.063 199.416 856.607 202.008 854.303 203.544C851.999 205.08 850.175 206.04 848.831 206.424C846.911 207.064 845.567 206.68 844.799 205.272C844.607 204.824 844.511 204.28 844.511 203.64C844.511 202.936 844.607 202.232 844.799 201.528C845.055 200.824 845.439 199.96 845.951 198.936C846.527 197.912 847.103 196.92 847.679 195.96C847.999 195.512 848.255 195.16 848.447 194.904C848.703 194.584 848.799 194.424 848.735 194.424C848.543 194.424 847.071 195.192 844.319 196.728C840.991 198.648 838.495 199.832 836.831 200.28C835.551 200.664 834.527 200.696 833.759 200.376Z" fill="#333333"/>
<path d="M901.887 196.632H901.983C902.431 196.44 902.815 196.472 903.135 196.728C903.519 196.92 903.711 197.272 903.711 197.784C903.711 198.232 903.423 198.616 902.847 198.936C902.527 199.128 902.175 199.288 901.791 199.416C898.271 200.888 895.519 202.008 893.535 202.776C891.615 203.544 890.143 204.088 889.119 204.408C888.159 204.728 887.327 204.952 886.623 205.08C884.447 205.464 882.847 205.08 881.823 203.928C880.863 202.84 880.575 201.304 880.959 199.32C881.087 198.68 881.247 197.944 881.439 197.112C881.695 196.28 881.983 195.544 882.303 194.904C882.367 194.712 882.399 194.552 882.399 194.424C882.463 194.296 882.495 194.232 882.495 194.232C882.495 194.232 882.367 194.328 882.111 194.52C881.919 194.712 881.663 194.936 881.343 195.192L880.191 196.248V197.016C879.807 199.576 878.975 200.856 877.695 200.856C877.439 200.856 877.183 200.76 876.927 200.568C876.671 200.376 876.479 200.12 876.351 199.8C876.351 199.736 876.319 199.704 876.255 199.704C876.255 199.64 876.223 199.64 876.159 199.704C876.095 199.768 875.967 199.864 875.775 199.992C875.583 200.12 875.327 200.312 875.007 200.568C874.687 200.824 874.271 201.144 873.759 201.528C871.711 203.128 870.047 204.408 868.767 205.368C867.487 206.328 866.303 207.096 865.215 207.672C861.439 209.784 859.007 209.624 857.919 207.192C857.535 206.232 857.471 205.08 857.727 203.736C858.815 199.448 862.079 195.192 867.519 190.968C871.743 187.832 875.103 187.224 877.599 189.144C878.367 189.72 878.911 190.52 879.231 191.544C879.359 191.864 879.455 192.152 879.519 192.408C879.647 192.6 879.743 192.696 879.807 192.696C879.935 192.696 880.287 192.472 880.863 192.024C881.439 191.512 882.079 190.936 882.783 190.296C883.487 189.592 884.159 188.952 884.799 188.376C885.439 187.8 885.855 187.384 886.047 187.128C886.687 186.296 887.327 185.88 887.967 185.88C888.927 185.88 889.407 186.52 889.407 187.8C889.343 188.056 889.215 188.344 889.023 188.664C888.895 188.92 888.703 189.272 888.447 189.72C887.935 190.616 887.359 191.704 886.719 192.984C886.079 194.264 885.567 195.384 885.183 196.344C884.863 197.112 884.575 197.976 884.319 198.936C884.063 199.832 883.871 200.536 883.743 201.048C883.679 202.264 884.703 202.648 886.815 202.2C887.903 202.008 889.375 201.592 891.231 200.952C893.087 200.248 895.807 199.128 899.391 197.592C900.287 197.336 901.119 197.016 901.887 196.632ZM874.335 197.304L874.431 197.4C875.007 196.952 875.455 196.6 875.775 196.344C876.095 196.088 876.319 195.896 876.447 195.768C876.575 195.576 876.639 195.448 876.639 195.384C876.703 195.256 876.735 195.16 876.735 195.096C876.735 194.904 876.703 194.744 876.639 194.616C876.639 194.488 876.511 194.328 876.255 194.136C874.911 193.112 872.831 193.56 870.015 195.48C869.119 196.12 868.031 197.08 866.751 198.36C865.535 199.64 864.543 200.76 863.775 201.72C863.263 202.488 862.751 203.256 862.239 204.024C861.791 204.792 861.567 205.272 861.567 205.464C861.567 205.656 862.239 205.432 863.583 204.792C865.567 203.832 869.151 201.336 874.335 197.304Z" fill="#333333"/>
<path d="M939.261 154.392L939.069 154.296C939.261 154.744 939.357 155.384 939.357 156.216C939.421 157.048 939.389 157.848 939.261 158.616C938.685 160.984 937.693 163.672 936.285 166.68C932.701 174.104 927.933 180.792 921.981 186.744C921.021 187.704 920.189 188.504 919.485 189.144C918.845 189.72 918.141 190.328 917.373 190.968C917.309 191.032 917.245 191.096 917.181 191.16L916.221 191.928L917.373 192.024C917.821 192.024 918.141 192.056 918.333 192.12C918.589 192.12 918.845 192.184 919.101 192.312C920.381 192.888 921.213 193.944 921.597 195.48C921.853 197.144 921.501 199.224 920.541 201.72C919.453 204.728 917.437 207.672 914.493 210.552C911.165 213.88 908.029 216.088 905.085 217.176C904.509 217.432 903.901 217.592 903.261 217.656C902.621 217.656 902.077 217.56 901.629 217.368C900.349 216.792 899.709 215.928 899.709 214.776C899.709 214.456 899.773 214.168 899.901 213.912C899.965 213.656 900.125 213.4 900.381 213.144C901.021 212.376 901.661 212.152 902.301 212.472C902.429 212.536 902.525 212.6 902.589 212.664C902.717 212.664 902.845 212.632 902.973 212.568C903.165 212.504 903.421 212.44 903.741 212.376C907.773 211.48 911.325 209.464 914.397 206.328C916.125 204.664 917.437 202.84 918.333 200.856C919.933 197.656 920.157 195.48 919.005 194.328C917.469 193.048 915.165 193.528 912.093 195.768C910.173 197.304 908.253 199.288 906.333 201.72C904.413 204.152 903.101 206.328 902.397 208.248L902.205 208.92L902.397 209.304C902.781 209.816 902.749 210.424 902.301 211.128C902.045 211.704 901.597 212.024 900.957 212.088C900.317 212.152 899.677 211.832 899.037 211.128C898.397 210.424 897.981 209.496 897.789 208.344C897.597 207.512 897.533 206.456 897.597 205.176C897.661 203.896 897.853 202.648 898.173 201.432C898.173 201.304 898.205 201.112 898.269 200.856C898.333 200.536 898.397 200.216 898.461 199.896C898.525 199.704 898.589 199.512 898.653 199.32C898.781 198.936 898.877 198.616 898.941 198.36C899.005 198.04 899.037 197.88 899.037 197.88C899.037 197.88 899.069 197.816 899.133 197.688C899.197 197.496 899.293 197.272 899.421 197.016C899.485 196.76 899.549 196.568 899.613 196.44C899.677 196.248 899.709 196.152 899.709 196.152L900.285 194.712C901.885 190.552 904.157 185.976 907.101 180.984C910.109 175.928 913.149 171.544 916.221 167.832C919.165 164.184 922.269 161.016 925.533 158.328C928.797 155.64 931.709 153.816 934.269 152.856C934.653 152.664 934.941 152.568 935.133 152.568C935.389 152.504 935.741 152.472 936.189 152.472C936.573 152.472 936.829 152.472 936.957 152.472C937.149 152.472 937.309 152.504 937.437 152.568C937.565 152.632 937.693 152.696 937.821 152.76C938.461 153.08 938.941 153.624 939.261 154.392ZM909.597 195.288L910.077 194.904L909.117 195.096C908.157 195.352 907.165 195.544 906.141 195.672C905.117 195.736 904.413 195.736 904.029 195.672C903.965 195.608 903.901 195.576 903.837 195.576C903.837 195.576 903.837 195.64 903.837 195.768C903.837 195.832 903.805 195.896 903.741 195.96C903.677 196.088 903.613 196.184 903.549 196.248C903.421 196.376 903.165 197.016 902.781 198.168C902.141 200.536 901.725 202.84 901.533 205.08L901.437 205.848L902.013 204.696C902.269 204.184 902.653 203.576 903.165 202.872C903.357 202.488 903.549 202.136 903.741 201.816C905.469 199.32 907.421 197.144 909.597 195.288ZM937.149 160.344H937.053C937.821 157.272 937.789 155.384 936.957 154.68C935.485 153.592 932.285 155 927.357 158.904C926.589 159.544 925.565 160.504 924.285 161.784C923.005 163.064 921.949 164.184 921.117 165.144C915.421 171.544 910.589 179.032 906.621 187.608C906.365 188.248 906.045 189.016 905.661 189.912C905.341 190.744 905.053 191.512 904.797 192.216C904.541 192.856 904.413 193.176 904.413 193.176C904.413 193.176 904.477 193.208 904.605 193.272C904.733 193.272 904.893 193.304 905.085 193.368C905.405 193.496 905.853 193.56 906.429 193.56C907.005 193.496 907.581 193.4 908.157 193.272C912.957 192.12 918.301 188.312 924.189 181.848C931.229 173.848 935.549 166.68 937.149 160.344Z" fill="#333333"/>
<path d="M931.811 201.816L932.003 201.528L931.811 201.624C931.683 201.624 931.395 201.656 930.947 201.72C930.627 201.784 930.307 201.848 929.987 201.912C929.667 201.976 929.411 202.008 929.219 202.008L928.643 202.104L927.203 202.296C927.203 202.424 927.171 202.552 927.107 202.68C927.107 202.808 927.043 202.904 926.915 202.968V203.352C926.851 203.672 926.787 204.056 926.723 204.504C926.723 204.952 926.723 205.368 926.723 205.752C926.787 206.072 926.883 206.264 927.011 206.328C927.075 206.328 927.139 206.328 927.203 206.328C927.267 206.264 927.331 206.232 927.395 206.232C927.523 206.168 927.651 206.072 927.779 205.944C928.355 205.56 929.059 204.952 929.891 204.12C930.723 203.224 931.363 202.456 931.811 201.816ZM926.627 198.072L927.395 195.192C927.523 194.36 927.683 193.496 927.875 192.6L927.971 191.448C927.971 191.384 928.003 191.288 928.067 191.16C928.131 190.584 928.195 190.136 928.259 189.816C928.323 189.496 928.387 189.272 928.451 189.144C928.579 189.016 928.707 188.856 928.835 188.664C929.347 188.28 929.667 188.12 929.795 188.184C930.499 188.632 930.787 189.208 930.659 189.912C930.595 190.552 930.339 191.192 929.891 191.832C929.571 193.304 929.443 194.424 929.507 195.192C930.595 194.552 931.651 194.328 932.675 194.52C934.019 194.776 934.851 195.416 935.171 196.44C935.235 196.76 935.267 197.176 935.267 197.688C935.267 198.136 935.203 198.584 935.075 199.032C934.947 199.224 934.883 199.384 934.883 199.512V199.8C935.011 199.8 935.267 199.768 935.651 199.704C936.035 199.64 936.483 199.512 936.995 199.32C937.379 199.128 937.795 198.84 938.243 198.456C938.755 198.072 939.267 197.688 939.779 197.304C939.907 197.176 940.067 197.048 940.259 196.92C940.515 196.28 940.739 195.8 940.931 195.48C941.443 194.712 941.699 194.296 941.699 194.232C941.699 193.784 941.731 193.464 941.795 193.272C941.923 193.08 942.051 192.92 942.179 192.792C942.307 192.6 942.499 192.44 942.755 192.312C943.011 192.12 943.235 192.024 943.427 192.024C943.619 192.024 943.811 192.12 944.003 192.312C944.259 192.44 944.451 192.6 944.579 192.792C944.899 193.112 944.675 193.752 943.907 194.712C943.203 195.608 942.595 196.408 942.083 197.112C941.571 197.816 941.219 198.68 941.027 199.704C940.899 200.664 940.771 201.624 940.643 202.584C940.515 203.544 940.451 204.184 940.451 204.504C940.451 205.4 941.059 205.976 942.275 206.232C943.171 206.36 944.419 206.264 946.019 205.944C947.683 205.56 950.275 204.152 953.795 201.72C957.379 199.288 959.427 197.72 959.939 197.016C960.323 196.824 960.611 196.664 960.803 196.536L961.571 196.152C961.891 196.088 962.083 196.152 962.147 196.344C962.211 196.536 962.211 196.76 962.147 197.016C962.083 197.272 961.923 197.464 961.667 197.592C961.155 197.912 958.979 199.48 955.139 202.296C951.363 205.112 948.227 206.712 945.731 207.096C944.899 207.288 944.067 207.416 943.235 207.48C942.403 207.544 941.763 207.512 941.315 207.384C940.099 207.064 939.235 206.392 938.723 205.368C938.595 204.92 938.531 204.408 938.531 203.832C938.531 203.256 938.595 202.616 938.723 201.912C938.787 201.656 938.819 201.432 938.819 201.24V200.952C939.075 200.12 939.331 199.352 939.587 198.648C938.819 199.16 937.795 199.672 936.515 200.184L934.403 200.664L934.019 201.24C933.507 202.328 932.739 203.416 931.715 204.504C930.691 205.592 929.667 206.52 928.643 207.288C926.659 208.696 925.411 208.76 924.899 207.48C924.835 207.288 924.771 207.16 924.707 207.096C924.643 206.968 924.611 206.808 924.611 206.616C924.611 206.424 924.611 206.168 924.611 205.848L925.475 202.488C925.475 202.424 925.507 202.232 925.571 201.912C925.699 201.208 925.923 200.28 926.243 199.128C926.371 198.744 926.499 198.392 926.627 198.072ZM928.643 197.4L927.395 200.472C928.035 200.792 929.219 200.824 930.947 200.568C931.075 200.568 931.171 200.536 931.235 200.472C931.747 200.408 932.099 200.376 932.291 200.376C932.547 200.312 932.707 200.216 932.771 200.088C932.899 199.96 933.027 199.736 933.155 199.416C934.115 197.56 933.955 196.536 932.675 196.344C932.291 196.216 931.843 196.184 931.331 196.248C930.883 196.248 930.499 196.344 930.179 196.536C929.603 196.728 929.091 197.016 928.643 197.4Z" fill="#333333"/>
<path d="M981.191 186.36C980.999 186.296 980.903 186.008 980.903 185.496C980.967 184.92 981.095 184.44 981.287 184.056C981.415 183.736 981.447 183.544 981.383 183.48C981.383 183.416 981.255 183.448 980.999 183.576C980.807 183.64 980.551 183.768 980.231 183.96C978.567 184.792 976.583 186.296 974.279 188.472C972.039 190.584 969.959 192.888 968.039 195.384C967.783 195.768 967.559 196.088 967.367 196.344L967.175 196.536C965.703 198.712 964.679 200.184 964.103 200.952C964.615 202.36 965.031 203.736 965.351 205.08C965.671 206.36 966.023 207.992 966.407 209.976C967.367 214.584 968.199 217.976 968.903 220.152C969.671 222.328 970.631 224.216 971.783 225.816C973.191 227.864 974.855 229.176 976.775 229.752C977.671 230.008 978.791 230.104 980.135 230.04C981.479 229.912 982.663 229.624 983.687 229.176C984.263 228.92 984.647 228.792 984.839 228.792C985.095 228.792 985.223 228.92 985.223 229.176L984.839 228.888C984.967 229.144 984.935 229.368 984.743 229.56C984.615 229.752 984.295 229.976 983.783 230.232C982.375 230.936 980.871 231.32 979.271 231.384C977.735 231.512 976.327 231.352 975.047 230.904C973.063 230.136 971.239 228.536 969.575 226.104C968.551 224.568 967.719 222.904 967.079 221.112C966.439 219.32 965.703 216.536 964.871 212.76C964.103 209.752 963.527 207.64 963.143 206.424C962.823 205.144 962.503 204.408 962.183 204.216C962.119 204.152 962.055 204.12 961.991 204.12C961.927 204.12 961.863 204.152 961.799 204.216C961.671 204.344 961.383 204.792 960.935 205.56C960.487 206.328 960.007 207.192 959.495 208.152C958.919 209.048 958.439 209.816 958.055 210.456C957.415 211.608 956.967 212.568 956.711 213.336C956.391 214.04 956.167 214.712 956.039 215.352C955.719 216.568 955.335 216.92 954.887 216.408C954.823 216.344 954.791 216.312 954.791 216.312C954.727 216.248 954.663 216.248 954.599 216.312C954.535 216.376 954.471 216.44 954.407 216.504C954.279 216.504 954.151 216.504 954.023 216.504C953.767 216.504 953.543 216.408 953.351 216.216C953.095 215.96 952.967 215.704 952.967 215.448C952.967 214.872 953.415 213.528 954.311 211.416C955.143 209.304 956.231 206.808 957.575 203.928L957.959 203.16C958.343 202.52 959.079 201.144 960.167 199.032C961.255 196.92 963.079 193.304 965.639 188.184C966.791 186.008 967.943 183.768 969.095 181.464C970.503 178.712 971.591 176.6 972.359 175.128C972.487 174.936 972.583 174.712 972.647 174.456C973.287 173.24 973.895 172.088 974.471 171C975.111 169.848 975.591 168.984 975.911 168.408C977.831 164.888 978.855 162.136 978.983 160.152C979.047 159.832 979.111 159.544 979.175 159.288C979.239 158.968 979.303 158.744 979.367 158.616C979.751 157.912 980.263 157.56 980.903 157.56C981.543 157.496 982.087 157.784 982.535 158.424V158.808C982.599 159 982.631 159.224 982.631 159.48C982.631 159.672 982.631 159.832 982.631 159.96C982.631 160.088 982.567 160.248 982.439 160.44C982.375 160.632 982.247 160.92 982.055 161.304C981.863 161.624 981.607 162.072 981.287 162.648C980.583 163.928 979.463 166.04 977.927 168.984C976.391 171.928 974.791 175.064 973.127 178.392C971.463 181.72 970.055 184.568 968.903 186.936L966.407 192.312C965.447 194.36 964.647 196.12 964.007 197.592C963.367 199 963.047 199.736 963.047 199.8C963.175 200.056 963.943 199.128 965.351 197.016C968.167 193.048 970.951 189.784 973.703 187.224C977.543 183.64 980.231 181.848 981.767 181.848C982.087 181.848 982.311 181.88 982.439 181.944C982.567 182.008 982.695 182.104 982.823 182.232H982.919C983.687 183.128 983.335 184.408 981.863 186.072C981.735 186.264 981.511 186.36 981.191 186.36Z" fill="#333333"/>
<path d="M1007.67 199.128L1007.76 199.32C1007.96 199.192 1008.15 199.064 1008.34 198.936C1009.56 197.976 1010.42 197.272 1010.93 196.824C1010.93 197.08 1010.93 197.272 1010.93 197.4C1010.93 197.528 1010.93 197.688 1010.93 197.88C1010.42 198.328 1009.65 198.904 1008.63 199.608C1004.02 203.256 1000.56 205.848 998.26 207.384C995.956 208.92 994.132 209.88 992.788 210.264C990.868 210.904 989.524 210.52 988.756 209.112C988.564 208.664 988.468 208.12 988.468 207.48C988.468 206.776 988.564 206.072 988.756 205.368C989.012 204.664 989.396 203.8 989.908 202.776C990.484 201.752 991.06 200.76 991.636 199.8C991.956 199.352 992.212 199 992.404 198.744C992.66 198.424 992.756 198.264 992.692 198.264C992.5 198.264 991.028 199.032 988.276 200.568C984.948 202.488 982.452 203.704 980.788 204.216C979.124 204.664 977.94 204.568 977.236 203.928C976.404 203.16 976.148 201.944 976.468 200.28C976.532 200.088 976.66 199.704 976.852 199.128C977.044 198.552 977.268 197.976 977.524 197.4C977.844 196.76 978.1 196.152 978.292 195.576C978.484 194.936 978.644 194.456 978.772 194.136C979.348 192.408 980.148 191.544 981.172 191.544C982.26 191.544 982.804 192.248 982.804 193.656C982.804 193.848 982.772 194.072 982.708 194.328C982.644 194.52 982.452 194.776 982.132 195.096C981.876 195.416 981.492 195.896 980.98 196.536C980.596 196.984 980.18 197.592 979.732 198.36C979.348 199.128 978.996 199.896 978.676 200.664C978.356 201.368 978.196 201.88 978.196 202.2C978.196 203.032 979.092 203.224 980.884 202.776C981.588 202.52 982.612 202.04 983.956 201.336C985.364 200.568 986.804 199.768 988.276 198.936C989.812 198.04 991.124 197.304 992.212 196.728C993.364 196.152 994.1 195.8 994.42 195.672C994.612 195.608 994.772 195.608 994.9 195.672C995.028 195.672 995.124 195.736 995.188 195.864C995.508 196.184 995.572 196.6 995.38 197.112C995.252 197.624 994.772 198.488 993.94 199.704C993.172 201.048 992.436 202.52 991.732 204.12C991.092 205.72 990.676 206.968 990.484 207.864C990.484 208.12 990.484 208.312 990.484 208.44C990.548 208.568 990.612 208.696 990.676 208.824C990.868 209.08 991.124 209.208 991.444 209.208C991.828 209.208 992.34 209.08 992.98 208.824C995.22 208.056 1000.12 204.824 1007.67 199.128Z" fill="#333333"/>
<path d="M433.215 86.3289C433.93 90.3442 433.126 93.4672 430.803 95.6979C428.481 97.9286 425.935 99.5793 423.165 100.65C420.485 101.721 417.582 102.479 414.455 102.925C411.329 103.372 408.56 103.595 406.148 103.595C403.378 103.595 400.475 103.461 397.438 103.193C394.4 102.925 391.095 102.345 387.522 101.453C383.859 100.293 380.465 99.0886 377.338 97.8394C377.249 97.9286 377.115 98.0625 376.936 98.2409C370.772 102.881 364.966 107.699 359.516 112.696C354.067 117.604 349.154 122.511 344.777 127.419C340.399 132.326 336.335 137.457 332.583 142.811C328.742 147.54 324.766 152.983 320.657 159.14C316.548 165.296 312.796 171.587 309.401 178.011C306.007 184.347 303.193 190.414 300.959 196.214C298.815 202.014 297.743 206.877 297.743 210.803C297.743 213.212 298.324 215.309 299.485 217.094C300.647 218.878 302.121 220.351 303.907 221.51C305.694 222.67 307.659 223.518 309.803 224.054C311.947 224.678 314.002 224.99 315.967 224.99C319.63 224.99 323.203 224.187 326.687 222.581C330.26 221.064 333.655 219.012 336.871 216.424C340.087 213.748 343.124 210.669 345.983 207.189C348.573 204.155 350.985 200.943 353.218 197.553C350.896 201.3 348.529 204.869 346.117 208.26C343.437 212.008 340.489 215.309 337.273 218.164C334.146 221.109 330.662 223.429 326.821 225.124C322.98 226.82 318.602 227.667 313.689 227.667C310.83 227.667 308.106 227.266 305.515 226.463C302.925 225.66 300.647 224.455 298.681 222.849C296.716 221.332 295.153 219.414 293.991 217.094C292.83 214.684 292.249 211.918 292.249 208.795C292.249 204.423 293.232 199.382 295.197 193.671C297.163 187.871 299.619 181.982 302.567 176.004C305.605 170.025 308.954 164.27 312.617 158.738C316.28 153.117 319.808 148.254 323.203 144.149C328.295 138.349 333.342 132.951 338.345 127.954C343.437 122.868 348.841 117.737 354.558 112.562C360.276 107.387 366.306 102.39 372.648 97.5717C373.184 97.2148 373.675 96.8132 374.122 96.3671C369.834 94.4933 366.082 92.5303 362.866 90.478C356.613 86.5519 350.807 82.3582 345.447 77.8967C340.087 73.3461 335.039 68.7508 330.305 64.1109C325.66 59.3818 321.014 54.9203 316.369 50.7266C300.557 34.8438 283.584 22.798 265.45 14.5889C247.315 6.29063 228.645 2.1415 209.439 2.1415C200.327 2.1415 191.349 3.03378 182.505 4.81836C173.661 6.51371 165.219 9.01211 157.18 12.3136C149.229 15.615 141.859 19.7196 135.07 24.6271C128.281 29.5347 122.385 35.1562 117.382 41.4914C112.469 47.8266 108.628 54.8757 105.858 62.6386C103.089 70.4015 101.704 78.789 101.704 87.8011C101.704 94.761 102.866 101.319 105.188 107.476C107.511 113.544 110.638 119.165 114.568 124.34C117.784 128.445 121.447 132.237 125.556 135.717C127.611 134.468 129.665 133.352 131.72 132.371C136.365 130.229 141.01 128.579 145.656 127.419C150.39 126.259 154.857 125.679 159.055 125.679C165.487 125.679 171.741 126.66 177.815 128.623C183.979 130.497 189.428 133.174 194.163 136.654C198.898 140.045 202.694 144.149 205.553 148.967C206.357 150.395 207.071 151.823 207.697 153.25C210.645 152.358 213.503 151.332 216.273 150.172C221.633 147.941 226.724 145.22 231.548 142.008C236.372 138.706 240.616 134.959 244.278 130.765C247.941 126.571 250.844 121.931 252.988 116.845C255.132 111.759 256.204 106.227 256.204 100.249C256.204 94.0918 255.087 88.4257 252.854 83.2505C250.621 78.0752 247.449 73.6138 243.34 69.8662C239.32 66.1185 234.496 63.2186 228.868 61.1663C223.24 59.0249 217.032 57.9541 210.243 57.9541C206.044 57.9541 201.89 58.6233 197.781 59.9618C193.761 61.211 189.875 62.9509 186.123 65.1816C182.371 67.4124 178.843 70.0446 175.537 73.0784C172.232 76.1122 169.329 79.369 166.827 82.8489C169.507 78.4767 172.5 74.5953 175.805 71.2046C179.111 67.7247 182.639 64.8247 186.391 62.5048C190.143 60.1848 194.029 58.4002 198.049 57.1511C202.069 55.9018 206.089 55.2772 210.109 55.2772C218.327 55.2772 225.742 56.5264 232.352 59.0248C238.963 61.5233 244.546 64.914 249.102 69.1969C253.747 73.3907 257.321 78.2983 259.822 83.9197C262.323 89.5411 263.574 95.5194 263.574 101.855C263.574 108.725 262.413 114.927 260.09 120.459C257.767 125.902 254.596 130.765 250.576 135.048C246.645 139.242 242.045 142.855 236.774 145.889C231.593 148.834 226.054 151.287 220.159 153.25C216.407 154.5 212.61 155.526 208.769 156.329C209.573 159.006 209.975 161.816 209.975 164.761C209.975 170.829 207.741 176.227 203.275 180.956C198.808 185.596 192.689 189.79 184.917 193.537C191.081 196.393 195.86 200.14 199.255 204.78C202.739 209.331 204.615 214.149 204.883 219.235C208.545 217.451 212.297 215.086 216.139 212.141C219.98 209.197 223.821 205.895 227.662 202.237C231.504 198.489 235.256 194.519 238.918 190.325C242.581 186.131 246.065 181.938 249.37 177.744C252.675 173.461 255.713 169.312 258.482 165.296C261.251 161.192 264.333 156.463 267.728 151.109C269.068 148.967 270.318 146.871 271.48 144.818C272.73 142.766 273.936 140.714 275.098 138.662C276.348 136.52 277.599 134.334 278.85 132.103C280.19 129.873 281.664 127.463 283.272 124.876C285.952 120.147 288.363 115.953 290.507 112.294C292.741 108.547 295.019 104.933 297.341 101.453C299.753 97.884 302.121 94.6718 304.443 91.8164C306.855 88.9611 309.088 86.9981 311.143 85.9273H313.555C311.5 87.6227 309.49 89.8534 307.525 92.6195C305.56 95.2964 303.595 98.3748 301.629 101.855C299.753 105.245 297.788 108.948 295.733 112.964C293.679 116.979 290.999 122.065 287.693 128.222C285.46 131.612 283.272 135.36 281.128 139.465C279.073 143.569 276.706 147.941 274.026 152.581C269.738 159.541 265.182 166.099 260.358 172.256C255.534 178.413 250.174 184.57 244.278 190.727C238.382 196.794 232.084 202.594 225.384 208.126C218.685 213.569 211.94 218.12 205.151 221.778C205.151 231.236 203.23 239.579 199.389 246.807C195.637 254.034 190.679 260.102 184.515 265.01C178.351 269.917 171.339 273.62 163.477 276.119C155.616 278.706 147.576 280 139.358 280C133.283 280 127.164 279.108 121 277.323C114.836 275.539 109.164 272.862 103.982 269.293C98.8904 265.723 94.5578 261.262 90.9846 255.908C87.5006 250.644 85.3567 244.442 84.5527 237.304C83.4807 237.393 82.364 237.438 81.2027 237.438H77.9868C72.0909 237.438 66.061 236.902 59.8971 235.832C53.7332 234.85 47.7479 233.289 41.9413 231.147C36.2241 229.006 30.8195 226.284 25.7276 222.983C20.6357 219.771 16.1691 215.934 12.3278 211.472C8.57587 207.011 5.58325 201.969 3.34995 196.348C1.11665 190.637 0 184.257 0 177.208C0 171.587 1.07198 166.322 3.21595 161.415C5.35992 156.507 8.2632 152.224 11.9258 148.566C15.5884 144.818 19.8317 141.874 24.6556 139.732C29.4795 137.591 34.6161 136.52 40.0654 136.52C44.4426 136.52 48.9092 137.234 53.4652 138.662C58.0211 140.089 62.175 142.141 65.927 144.818C69.6789 147.495 72.7609 150.752 75.1728 154.589C77.5848 158.337 78.7908 162.619 78.7908 167.438C78.7908 170.561 78.2548 173.684 77.1828 176.807C76.2001 179.841 74.6815 182.562 72.6269 184.971C70.6616 187.38 68.1603 189.344 65.123 190.86C62.0857 192.288 58.6017 193.002 54.6711 193.002C53.1525 193.002 51.5892 192.913 49.9812 192.734C50.7852 192.734 51.5445 192.734 52.2592 192.734C55.8325 192.734 59.1377 192.065 62.175 190.727C65.2123 189.299 67.8476 187.47 70.0809 185.239C72.3142 182.919 74.0562 180.287 75.3068 177.342C76.6468 174.308 77.3168 171.141 77.3168 167.839C77.3168 163.289 76.2001 159.184 73.9668 155.526C71.8229 151.778 68.9643 148.611 65.391 146.023C61.8177 143.346 57.7978 141.294 53.3312 139.866C48.8646 138.438 44.3533 137.725 39.7974 137.725C34.8841 137.725 30.1495 138.751 25.5936 140.803C21.127 142.855 17.1517 145.666 13.6678 149.235C10.1838 152.804 7.41455 156.953 5.35992 161.683C3.30528 166.322 2.27796 171.319 2.27796 176.673C2.27796 183.454 3.34995 189.611 5.49391 195.143C7.63788 200.676 10.5412 205.628 14.2038 210C17.8664 214.283 22.1543 218.031 27.0676 221.243C32.0702 224.455 37.4301 227.087 43.1473 229.14C48.8646 231.281 54.7605 232.843 60.835 233.824C66.9096 234.895 72.9395 235.43 78.9248 235.43H81.3367C82.1407 235.43 83.034 235.386 84.0167 235.296C84.0167 218.075 88.8853 203.174 98.6225 190.593C98.0865 189.165 97.5951 187.425 97.1485 185.373C96.7911 183.321 96.6125 181.001 96.6125 178.413C96.6125 173.148 97.5505 168.196 99.4264 163.556C101.392 158.917 103.982 154.678 107.198 150.841C110.504 146.915 114.256 143.391 118.454 140.268C120.062 139.108 121.625 138.037 123.144 137.055L123.01 136.922C115.596 130.229 109.789 122.511 105.59 113.767C101.481 105.022 99.4264 95.8764 99.4264 86.3289C99.4264 71.6954 102.33 58.9802 108.136 48.1836C114.032 37.3869 121.983 28.4194 131.988 21.2811C142.082 14.1428 153.785 8.83365 167.095 5.35372C180.406 1.78457 194.52 0 209.439 0C220.159 0 230.655 1.33843 240.928 4.01529C251.291 6.69216 261.162 10.2613 270.542 14.7228C279.922 19.095 288.676 24.0918 296.805 29.7132C304.935 35.2454 312.126 40.956 318.379 46.8451C323.65 51.8419 328.92 56.8834 334.191 61.9694C339.551 67.0555 345 71.9184 350.538 76.5583C356.077 81.109 361.75 85.2581 367.556 89.0057C370.415 90.8795 373.586 92.6195 377.07 94.2256C381.983 90.7457 386.986 87.5781 392.078 84.7227C398.778 80.9751 406.773 78.7444 416.063 78.0306C425.443 77.2275 431.161 79.9936 433.215 86.3289ZM204.749 162.352C204.659 160.567 204.481 158.872 204.213 157.266C203.498 157.355 202.739 157.444 201.935 157.533C195.771 158.426 189.786 158.872 183.979 158.872C171.562 158.872 160.172 156.909 149.81 152.983C140.162 149.324 131.809 144.461 124.752 138.394C123.055 139.465 121.402 140.58 119.794 141.74C115.774 144.595 112.201 147.852 109.074 151.51C105.948 155.169 103.446 159.184 101.57 163.556C99.6944 167.929 98.7565 172.524 98.7565 177.342C98.7565 179.573 98.9351 181.625 99.2924 183.499C99.6498 185.373 100.096 187.068 100.632 188.585C103.759 185.908 106.975 183.365 110.28 180.956C113.586 178.458 117.025 176.272 120.598 174.398C124.171 172.524 127.789 171.052 131.452 169.981C135.204 168.821 139.045 168.241 142.976 168.241C147.71 168.241 151.328 169.401 153.83 171.721C156.42 174.041 157.716 177.342 157.716 181.625C157.716 182.518 157.626 183.41 157.448 184.302C157.358 185.194 157.224 186.131 157.046 187.113C156.42 189.7 155.438 192.556 154.098 195.679C152.758 198.802 151.016 201.925 148.872 205.048C146.728 208.171 144.182 211.249 141.234 214.283C138.375 217.228 135.07 219.86 131.318 222.18C136.678 224.678 141.948 226.418 147.13 227.4C152.4 228.47 157.582 229.006 162.673 229.006C170.177 229.006 177.324 228.247 184.113 226.73C190.992 225.214 197.245 223.072 202.873 220.306C202.515 215.22 200.774 210.357 197.647 205.717C194.52 201.077 189.786 197.151 183.443 193.939C181.21 194.831 179.155 195.5 177.279 195.946C175.403 196.303 173.751 196.482 172.321 196.482C168.659 196.482 166.827 195.5 166.827 193.537C167.006 192.288 167.676 191.396 168.837 190.86C169.999 190.325 171.383 190.057 172.991 190.057C174.778 190.057 176.609 190.325 178.485 190.86C180.361 191.307 182.014 191.842 183.443 192.467C186.391 191.307 189.16 189.745 191.751 187.782C194.342 185.73 196.575 183.41 198.451 180.822C200.416 178.145 201.935 175.245 203.007 172.122C204.168 168.999 204.749 165.743 204.749 162.352ZM202.873 222.715C197.156 225.392 191.036 227.489 184.515 229.006C177.994 230.523 171.249 231.281 164.281 231.281C158.386 231.281 152.49 230.656 146.594 229.407C140.787 228.247 135.025 226.329 129.308 223.652C127.164 225.169 124.663 226.641 121.804 228.069C119.035 229.496 115.864 230.835 112.29 232.084C108.717 233.333 104.786 234.404 100.498 235.296C96.2105 236.278 91.5206 236.947 86.4286 237.304C87.6793 244.71 90.0912 250.956 93.6645 256.042C97.2378 261.128 101.526 265.233 106.528 268.356C111.62 271.568 117.203 273.888 123.278 275.315C129.442 276.743 135.74 277.457 142.172 277.457C150.033 277.457 157.582 276.119 164.817 273.442C172.143 270.854 178.619 267.151 184.247 262.333C189.875 257.514 194.386 251.759 197.781 245.067C201.175 238.375 202.873 230.924 202.873 222.715ZM152.892 180.822C152.892 177.61 152.088 174.933 150.48 172.792C148.872 170.561 146.058 169.445 142.038 169.445C138.196 169.445 134.579 169.981 131.184 171.052C127.789 172.122 124.439 173.595 121.134 175.468C117.918 177.342 114.658 179.573 111.352 182.161C108.047 184.748 104.608 187.559 101.034 190.593C103.982 198.623 107.779 205.003 112.424 209.732C117.069 214.461 122.563 218.298 128.906 221.243C132.569 218.477 135.695 215.488 138.286 212.275C140.966 208.974 143.244 205.762 145.12 202.639C146.996 199.516 148.47 196.571 149.542 193.805C150.703 191.039 151.596 188.674 152.222 186.711C152.668 184.481 152.892 182.518 152.892 180.822ZM132.658 134.245C130.871 135.137 129.085 136.074 127.298 137.055C127.745 137.412 128.191 137.725 128.638 137.992C133.998 142.008 139.715 145.443 145.79 148.298C151.954 151.064 158.252 153.206 164.683 154.723C171.205 156.15 177.637 156.864 183.979 156.864C189.071 156.864 194.386 156.284 199.925 155.124C201.176 154.857 202.381 154.589 203.543 154.321C202.828 152.001 201.89 149.815 200.729 147.763C198.228 143.48 194.878 139.866 190.679 136.922C186.57 133.977 181.79 131.746 176.341 130.229C170.981 128.713 165.353 127.954 159.457 127.954C155.348 127.954 150.971 128.489 146.326 129.56C141.77 130.631 137.214 132.192 132.658 134.245ZM126.896 222.715C124.484 221.466 121.849 219.904 118.99 218.031C116.221 216.157 113.541 213.971 110.95 211.472C108.36 208.885 105.992 206.029 103.848 202.906C101.794 199.694 100.23 196.214 99.1584 192.467C95.1385 197.82 91.8779 203.709 89.3766 210.134C86.9646 216.469 85.7587 223.161 85.7587 230.21C85.7587 231.103 85.7587 231.906 85.7587 232.619C85.848 233.423 85.9373 234.315 86.0266 235.296C95.0492 234.583 102.776 233.155 109.208 231.013C115.64 228.872 121.536 226.106 126.896 222.715ZM395.696 85.7935C390.425 88.738 385.244 92.0395 380.152 95.6979C383.011 96.9471 386.048 98.1071 389.264 99.1778C391.854 99.8024 394.579 100.249 397.438 100.516C400.296 100.695 402.753 100.784 404.808 100.784C407.488 100.784 410.302 100.561 413.25 100.115C416.287 99.5793 419.056 98.8209 421.557 97.8394C424.148 96.8579 426.605 95.341 428.927 93.2887C431.339 91.2364 431.831 88.3811 430.401 84.7227C429.061 81.0644 424.505 79.4136 416.733 79.7706C409.051 80.1275 402.038 82.1351 395.696 85.7935ZM181.433 193.537C180.629 193.002 179.378 192.511 177.681 192.065C176.073 191.619 174.51 191.396 172.991 191.396C171.83 191.396 170.847 191.574 170.043 191.931C169.239 192.288 168.837 192.823 168.837 193.537C168.837 194.786 169.865 195.411 171.919 195.411C173.259 195.411 174.823 195.233 176.609 194.876C178.396 194.43 180.004 193.983 181.433 193.537ZM46.6313 192.199C44.666 191.753 42.656 191.039 40.6014 190.057C43.9066 191.396 47.0333 192.288 49.9812 192.734C48.9092 192.556 47.7926 192.377 46.6313 192.199Z" fill="#333333"/>
</svg>
