<svg width="72" height="190" viewBox="0 0 72 190" fill="none" xmlns="http://www.w3.org/2000/svg">
<path d="M32.4697 189.674C32.4496 189.669 32.4292 189.667 32.4092 189.662C32.4029 189.661 32.3969 189.659 32.3906 189.657C32.4169 189.663 32.4434 189.668 32.4697 189.674Z" fill="black"/>
<path d="M31.8574 189.527C31.836 189.522 31.8143 189.517 31.793 189.512C31.7328 189.496 31.6732 189.477 31.6133 189.46C31.6945 189.483 31.7758 189.506 31.8574 189.527Z" fill="black"/>
<path d="M36.6152 149.186C36.5918 149.167 36.566 149.149 36.541 149.128L36.3916 148.993C36.4717 149.069 36.5474 149.132 36.6152 149.186Z" fill="black"/>
<path d="M30.75 141.945C30.7755 141.974 30.8003 142.004 30.8271 142.035C30.7879 141.99 30.7501 141.948 30.7139 141.908C30.7253 141.921 30.7383 141.932 30.75 141.945Z" fill="black"/>
<path d="M39.126 132.084C39.1125 132.042 39.0973 132 39.084 131.957L38.9658 131.556C39.0177 131.74 39.0719 131.915 39.126 132.084Z" fill="black"/>
<path d="M34.2344 118.522C34.2577 118.507 34.2807 118.491 34.3047 118.477L34.3164 118.47C34.2884 118.487 34.2614 118.505 34.2344 118.522Z" fill="black"/>
<path d="M35.1875 118.214L35.4795 118.172C35.4945 118.17 35.5095 118.169 35.5244 118.167C35.4152 118.179 35.3033 118.195 35.1875 118.214Z" fill="black"/>
<path d="M52.458 135.547L52.2354 135.586C52.3877 135.559 52.54 135.53 52.6924 135.498C52.6142 135.515 52.5362 135.532 52.458 135.547Z" fill="black"/>
<path d="M59.5664 119.854C59.5655 119.867 59.5635 119.88 59.5625 119.893C59.5643 119.87 59.5668 119.848 59.5684 119.825L59.5664 119.854Z" fill="black"/>
<path d="M66.4316 110.994C66.5062 111.075 66.5776 111.158 66.6484 111.243C66.5713 111.151 66.4924 111.06 66.4111 110.973L66.4316 110.994Z" fill="black"/>
<path d="M22.7842 129.038C22.7247 129.169 22.6676 129.307 22.6133 129.453C22.6404 129.38 22.6679 129.309 22.6963 129.24L22.7842 129.038Z" fill="black"/>
<path d="M16.1064 118.797L15.752 118.787C15.7431 118.787 15.7344 118.786 15.7256 118.785C15.851 118.792 15.9778 118.797 16.1064 118.797Z" fill="black"/>
<path d="M18.8018 117.312L18.5918 117.721C18.7402 117.448 18.871 117.176 18.9834 116.904C18.9272 117.04 18.8672 117.176 18.8018 117.312Z" fill="black"/>
<path d="M14.8145 109.286C15.0965 109.386 15.3715 109.5 15.6396 109.628C15.5057 109.564 15.3698 109.504 15.2324 109.447L14.8145 109.286Z" fill="black"/>
<path d="M26.9404 119.515C26.9361 119.518 26.9311 119.519 26.9268 119.522C26.9345 119.517 26.9425 119.512 26.9502 119.507C26.9468 119.509 26.9438 119.512 26.9404 119.515Z" fill="black"/>
<path d="M24.915 117.487C24.8919 117.638 24.8658 117.788 24.8369 117.939L24.916 117.479L24.915 117.487Z" fill="black"/>
<path d="M31.8447 114.312C31.6464 114.337 31.463 114.375 31.293 114.427C31.3808 114.4 31.4722 114.377 31.5674 114.357C31.6564 114.339 31.7489 114.324 31.8447 114.312Z" fill="black"/>
<path d="M31.8447 114.312C31.8519 114.311 31.859 114.309 31.8662 114.309C31.8791 114.307 31.8922 114.306 31.9053 114.305C31.885 114.307 31.8647 114.309 31.8447 114.312Z" fill="black"/>
<path d="M32.9121 114.298L32.9102 114.297C32.8441 113.83 32.7766 113.384 32.7129 112.947C32.7767 113.384 32.846 113.831 32.9121 114.298Z" fill="black"/>
<path d="M24.7539 111.623C24.7648 111.693 24.7737 111.763 24.7842 111.833C24.7709 111.745 24.759 111.656 24.7451 111.567L24.7539 111.623Z" fill="black"/>
<path fill-rule="evenodd" clip-rule="evenodd" d="M36.5342 4.09375C36.9135 6.10928 37.1275 8.29411 37.0889 10.5371V10.542C36.9057 25.0905 37.7886 39.6318 39.7314 54.0508V54.0527L39.9199 55.3887C40.3692 58.5036 40.8959 61.6075 41.5 64.6963L41.501 64.7012C41.8751 66.5635 42.5443 69.2919 42.8447 71.1465C42.0457 71.7496 41.3644 72.132 40.5459 72.7119C39.6208 73.3673 38.7426 74.1469 37.9434 75.4697L37.8047 75.6992L37.7998 75.9678C37.7521 78.4768 37.6833 81.039 37.665 83.5635L37.6602 84.2793L38.3359 84.5146C40.4301 85.2447 41.4818 86.7271 41.5654 87.8027C41.6045 88.3055 41.4463 88.749 41.0518 89.1045C40.6341 89.4806 39.865 89.8321 38.5713 89.9082L37.7764 89.9551L37.6436 90.7393C37.0321 94.3434 37.0581 99.2016 39.2842 102.604C40.1131 103.871 41.4791 104.736 42.9072 105.074C44.3376 105.412 45.9528 105.248 47.2285 104.277C48.0335 103.665 48.5503 102.913 48.7969 102.08C49.0402 101.258 49.0019 100.42 48.8066 99.6445C48.4869 98.3759 47.725 97.1856 46.8623 96.2803C47.2204 95.5727 47.6459 95.1576 48.0635 94.9287C48.5853 94.6428 49.2053 94.5807 49.8848 94.7451C51.2887 95.0853 52.7689 96.3624 53.4453 98.0049L53.4463 98.0059C53.9103 99.1309 53.9111 100.395 53.4473 101.52L53.4463 101.519C53.298 101.873 53.0067 102.342 52.7295 102.786L51.625 104.555L53.6953 104.309C58.4584 103.741 63.6638 104.86 67.3926 107.812L67.3965 107.815L67.7529 108.105C69.4994 109.589 70.7673 111.563 71.3896 113.777L71.3916 113.785L71.4697 114.074C71.5465 114.375 71.6205 114.711 71.7002 115.069C71.7885 115.466 71.8875 115.898 72.001 116.278V119.245C71.7983 119.991 71.6677 120.711 71.54 121.364C71.4011 122.075 71.2576 122.736 71.0146 123.418C69.0809 128.843 64.5712 133.225 59.5078 136.045L59.5068 136.044C58.3282 136.689 57.1171 137.274 55.8789 137.795L55.1504 138.103L55.2803 138.882C55.4498 139.897 55.7261 140.859 55.7969 141.895C55.8484 142.648 55.7581 143.15 55.5586 143.475C55.4187 143.43 55.2575 143.372 55.0752 143.3C54.6945 143.149 54.1164 142.896 53.6787 142.79L53.0938 142.659C50.197 142.068 47.7223 142.393 45.667 143.426C43.4869 144.522 41.8795 146.365 40.7451 148.523C38.492 152.812 37.9991 158.536 38.6533 163.035L38.7178 163.48L40.6875 164.772C44.3305 167.183 47.389 169.501 48.3076 173.822C49.1931 177.988 48.2798 181.355 46.4238 183.842C44.5523 186.349 41.6709 188.029 38.5352 188.688C35.3988 189.348 32.0753 188.971 29.3438 187.455C26.6348 185.951 24.4453 183.294 23.583 179.249C22.799 175.571 23.451 172.688 25.0215 170.286C26.618 167.845 29.2146 165.825 32.4482 164.017L32.8555 163.789L32.9424 163.331C33.6276 159.731 33.4495 155.065 32.0088 151.016C30.5655 146.959 27.7859 143.362 23.1797 142.277C20.7392 141.703 18.4411 142.495 16.4746 143.45C16.2181 142.925 16.0773 142.508 16.0352 142.116C15.978 141.585 16.0902 140.982 16.6025 140.087L17.0811 139.252L16.2646 138.742C9.25077 134.359 2.46595 129.536 0.483398 121.451C-0.743827 116.447 0.450958 112.05 3.13379 108.985C5.82267 105.914 10.0794 104.099 15.125 104.423H15.127C16.1013 104.483 17.0594 104.608 18.0762 104.739L19.8711 104.971L19.1113 103.328C18.889 102.847 18.6866 102.409 18.5479 101.966C18.0621 100.415 18.5671 98.2763 19.7803 96.6602C20.9831 95.0581 22.6265 94.2725 24.2754 94.8281C24.92 95.0455 25.5399 95.6392 26.083 96.3945C25.7634 96.6867 25.4369 96.9082 25.0713 97.1455C24.5064 97.5121 23.8167 97.9353 23.1045 98.6963L22.7402 99.0859L22.8604 99.6055C23.4955 102.345 24.7732 104.116 26.5273 104.763C28.2776 105.407 30.1247 104.793 31.582 103.615C34.4957 101.259 36.4581 96.2291 34.4746 91.0234L34.2822 90.5186L33.7549 90.4023C33.287 90.2994 32.8842 90.2225 32.5859 90.1055C31.6762 89.748 31.0218 88.9065 30.8369 88.0088C30.6601 87.1497 30.9164 86.3066 31.7637 85.7617C32.2776 85.4323 32.6385 85.4547 33.6377 85.418L34.4092 85.3896L34.5771 84.6357C35.1875 81.8893 35.3552 79.2332 34.625 76.8506C33.9407 74.6178 32.4951 72.7206 30.1025 71.2412C33.8944 51.309 35.7124 30.8463 36.001 10.5693V10.5615C36.0136 8.69925 36.0147 7.4982 36.1934 6.0791C36.2687 5.48112 36.3781 4.84025 36.5342 4.09375ZM36 168C31.0294 168 27 172.029 27 177C27 181.971 31.0294 186 36 186C40.9706 186 45 181.971 45 177C45 172.029 40.9706 168 36 168ZM37.4541 117.338C36.7437 117.101 35.9278 117.077 35.0225 117.228L35.0156 117.229C34.754 117.275 34.4943 117.332 34.2383 117.4L34.124 117.431L34.0205 117.487C32.6556 118.226 32.0308 119.353 31.876 120.585C31.731 121.738 31.9994 122.956 32.2891 123.985C33.2849 127.525 33.0772 129.929 32.0752 131.948C31.0414 134.031 29.1004 135.846 26.2803 138.068L25.2119 138.909L26.333 139.678C27.8681 140.731 28.5146 141.186 29.8057 142.404C30.0351 142.621 30.4745 143.156 31.0703 143.927C31.6511 144.678 32.3125 145.563 32.9883 146.448C33.6547 147.322 34.3293 148.188 34.9004 148.854C35.1845 149.186 35.459 149.487 35.7051 149.72C35.8278 149.836 35.9588 149.949 36.0918 150.045C36.209 150.129 36.4008 150.253 36.6387 150.314L37.2461 150.472L37.6523 149.993C39.2405 148.119 40.386 145.955 41.541 144.062C42.7217 142.128 43.9574 140.385 45.7949 139.039L46.8916 138.235L45.7979 137.428C44.865 136.739 44.0528 136.23 43.3789 135.796C42.6926 135.354 42.174 135.004 41.7344 134.604C40.9178 133.859 40.2754 132.847 39.7129 130.441C39.5314 129.665 39.575 128.5 39.7012 127.045C39.8211 125.662 40.0109 124.052 40.0225 122.615C40.0338 121.21 39.8859 119.7 39.1348 118.606C38.7374 118.028 38.182 117.581 37.4541 117.338ZM64.9639 108.683C62.8011 107.605 60.1494 107.439 57.6436 107.826C54.8854 108.23 52.6411 109.642 51.417 112.316L51.3701 112.419L51.3477 112.529C51.0067 114.17 50.968 115.518 51.2754 116.603C51.5973 117.738 52.2811 118.519 53.21 118.996C54.0906 119.448 55.1412 119.604 56.1973 119.643C56.9473 119.67 57.7551 119.64 58.5801 119.59C58.5289 120.77 58.1754 121.657 57.6191 122.295C56.9145 123.102 55.7544 123.66 54.0391 123.787L54.04 123.788C53.8306 123.803 53.6205 123.81 53.4111 123.812L52.582 123.817L52.4336 124.633C52.2124 125.852 52.0426 127.098 51.6006 128.117C51.261 128.9 50.82 129.415 50.1406 129.626C50.0868 129.515 50.0278 129.378 49.9648 129.206C49.8914 129.005 49.7887 128.699 49.6914 128.457C49.5913 128.208 49.4477 127.892 49.2305 127.622C48.459 126.664 47.5322 126.113 46.5225 126.087C45.5287 126.061 44.682 126.551 44.0684 127.191C42.8766 128.435 42.2303 130.584 42.8184 132.435C43.4593 134.452 45.1084 135.625 46.8643 136.217C48.6126 136.806 50.5944 136.873 52.2158 136.604L52.6445 136.529C57.071 135.677 61.4159 132.642 64.5361 128.767C67.756 124.767 69.8131 119.694 69.1943 114.896C68.7967 111.813 67.1814 109.788 64.9639 108.683ZM12.1543 107.729C8.86736 107.466 6.48043 108.382 4.96875 110.196C3.49762 111.962 3.01157 114.396 3.08301 116.866C3.15499 119.355 3.79421 122.019 4.72949 124.399C5.66218 126.774 6.91903 128.942 8.2832 130.41C12.1343 134.554 17.152 136.909 22.8271 136.743L22.8564 136.742L22.8867 136.74C24.6438 136.583 26.7412 136.231 28.2061 134.45L28.207 134.449C29.1149 133.342 29.5408 131.916 29.3887 130.491V130.488C29.1548 128.36 27.6469 126.457 25.748 126.138C24.7443 125.969 23.7195 126.271 22.8926 127.101C22.3087 127.687 21.8497 128.508 21.5244 129.556C20.7243 129.125 20.2347 128.686 19.9307 128.195C19.5132 127.521 19.3366 126.576 19.4854 125L19.5771 124.024L18.6035 123.912C16.5239 123.673 15.0972 123.171 14.2217 122.335C13.5602 121.703 13.1082 120.772 13.0371 119.308C14.7138 119.74 16.1513 120.044 18.334 119.515L18.7178 119.421L18.9336 119.091C19.7027 117.919 20.2708 116.69 20.4102 115.378C20.5523 114.04 20.239 112.705 19.4023 111.362L19.3613 111.296L19.3096 111.237C17.3628 108.988 15.0029 107.958 12.1543 107.729ZM32.3477 107.993L30.71 108.15L30.6582 108.155L30.6064 108.166C29.5012 108.391 28.4359 108.696 27.4219 108.982C26.3951 109.272 25.4159 109.545 24.4199 109.731L23.4512 109.913L23.6191 110.885C24.036 113.3 24.2886 115.476 23.8545 117.752C23.8274 117.894 23.7374 118.29 23.6924 118.572C23.6449 118.871 23.5932 119.318 23.7002 119.745L23.8145 120.201L24.2383 120.404C24.6726 120.612 25.2119 120.667 25.5986 120.688C26.0231 120.71 26.4457 120.695 26.7305 120.682L26.9795 120.67L27.1943 120.542C28.0891 120.008 28.6808 119.301 29.127 118.607C29.3474 118.265 29.5362 117.918 29.7051 117.6C29.88 117.27 30.0258 116.987 30.1836 116.713C30.4967 116.17 30.7774 115.814 31.127 115.591C31.4547 115.382 31.9525 115.22 32.8271 115.294L34.0781 115.4L33.9023 114.158C33.6301 112.235 33.3521 110.812 33.4414 109.039L33.5 107.884L32.3477 107.993ZM43.4814 108.694C42.0887 108.268 40.5183 107.888 39.25 108.052L38.3818 108.164L38.3779 109.039C38.3706 110.812 38.1909 111.896 37.8604 113.718L37.7061 114.57L38.5283 114.845C40.0626 115.357 41.0582 115.895 41.7773 116.618C42.4897 117.335 43.0161 118.321 43.4424 119.889L43.6416 120.619L45.7217 120.642C46.1733 120.646 46.6299 120.646 47.0723 120.636L48.1143 120.611L48.0469 119.571C47.8496 116.523 47.5644 113.952 48.1006 111.146L48.2695 110.26L47.4062 110C46.8758 109.84 46.2649 109.628 45.5898 109.395C44.9233 109.164 44.2014 108.915 43.4814 108.694Z" fill="black"/>
<path d="M26.4062 186.534C26.3635 186.494 26.3206 186.453 26.2783 186.412C26.2497 186.384 26.2218 186.355 26.1934 186.327C26.2637 186.397 26.3345 186.466 26.4062 186.534Z" fill="black"/>
<path d="M24.3857 184.032C24.3247 183.932 24.265 183.832 24.2061 183.729C24.1855 183.694 24.1659 183.657 24.1455 183.621C24.224 183.76 24.3035 183.898 24.3857 184.032Z" fill="black"/>
<path d="M48.7949 181.612C48.7705 181.675 48.7451 181.737 48.7197 181.799C48.7869 181.635 48.8517 181.469 48.9121 181.301L48.7949 181.612Z" fill="black"/>
<path d="M23.2217 181.607C23.194 181.532 23.1653 181.456 23.1387 181.38L23.0166 181.012C23.0813 181.214 23.1502 181.412 23.2217 181.607Z" fill="black"/>
<path d="M49.4971 178.977C49.4793 179.093 49.4602 179.209 49.4395 179.324C49.4331 179.36 49.4246 179.394 49.418 179.43C49.451 179.255 49.4807 179.078 49.5068 178.899C49.5031 178.925 49.501 178.951 49.4971 178.977Z" fill="black"/>
<path d="M41.2227 163.926C41.3657 164.02 41.5073 164.116 41.6494 164.211C41.4909 164.105 41.3325 163.999 41.1729 163.894L41.2227 163.926Z" fill="black"/>
<path d="M32.127 155.875L32.2129 156.643C32.1666 156.163 32.1047 155.683 32.0293 155.203C32.0645 155.427 32.0982 155.651 32.127 155.875Z" fill="black"/>
<path d="M28.2988 146.488C28.4606 146.671 28.6175 146.859 28.7686 147.053C28.6929 146.956 28.6154 146.861 28.5371 146.767L28.2988 146.488Z" fill="black"/>
<path d="M51.3838 143.415C51.5326 143.429 51.683 143.445 51.835 143.464L51.3838 143.415Z" fill="black"/>
<path d="M51.3242 143.409L51.3838 143.415C51.3286 143.41 51.2735 143.407 51.2188 143.402C51.2538 143.405 51.289 143.406 51.3242 143.409Z" fill="black"/>
<path d="M11.3213 136.698C11.2747 136.666 11.2272 136.634 11.1807 136.602C11.0888 136.537 10.9978 136.471 10.9062 136.406C11.0441 136.504 11.1826 136.601 11.3213 136.698Z" fill="black"/>
<path d="M61.9121 135.758C61.8506 135.798 61.7883 135.837 61.7266 135.877C61.9469 135.735 62.1664 135.591 62.3838 135.443L61.9121 135.758Z" fill="black"/>
<path d="M3.96094 106.795C3.67509 107.031 3.39923 107.277 3.13477 107.534C3.17089 107.499 3.20661 107.463 3.24316 107.429C3.34363 107.333 3.4463 107.24 3.5498 107.147C3.68423 107.027 3.82151 106.91 3.96094 106.795Z" fill="black"/>
<path d="M4.10156 106.68C4.13044 106.656 4.15939 106.633 4.18848 106.61C4.29799 106.524 4.40909 106.438 4.52148 106.354C4.37907 106.46 4.23932 106.569 4.10156 106.68Z" fill="black"/>
<path d="M46.6895 97.6143C46.7863 97.741 46.8795 97.8715 46.9688 98.0049C46.9276 97.9434 46.8856 97.8824 46.8428 97.8223L46.6895 97.6143Z" fill="black"/>
<path d="M47.0674 94.4033C46.9429 94.5058 46.8224 94.6196 46.7061 94.7451C46.8077 94.6357 46.9118 94.5344 47.0195 94.4424C47.0352 94.429 47.0516 94.4164 47.0674 94.4033Z" fill="black"/>
<path d="M47.4902 94.1055C47.3618 94.1815 47.2362 94.2674 47.1143 94.3643C47.1737 94.3168 47.2338 94.2718 47.2949 94.2295C47.3419 94.197 47.3896 94.1663 47.4375 94.1367C47.4549 94.126 47.4727 94.1159 47.4902 94.1055Z" fill="black"/>
<path d="M24.3887 93.8154L24.5947 93.8799C24.5079 93.8506 24.4213 93.8243 24.335 93.8008C24.3527 93.8056 24.3709 93.8103 24.3887 93.8154Z" fill="black"/>
<path d="M30.9912 90.2451C31.043 90.2948 31.0967 90.3427 31.1514 90.3896C31.0354 90.2904 30.9251 90.1855 30.8223 90.0742C30.8767 90.1332 30.9331 90.1894 30.9912 90.2451Z" fill="black"/>
<path d="M32.3223 74.5146C32.3266 74.5204 32.3306 74.5265 32.335 74.5322C32.3225 74.5158 32.3095 74.4998 32.2969 74.4834C32.3051 74.494 32.3141 74.504 32.3223 74.5146Z" fill="black"/>
<path d="M31.4258 73.5107C31.4301 73.5149 31.4342 73.5193 31.4385 73.5234C31.4248 73.5102 31.4103 73.4976 31.3965 73.4844C31.406 73.4935 31.4163 73.5016 31.4258 73.5107Z" fill="black"/>
<path d="M43.8057 70.8145L43.9209 71.5732C43.8614 71.1158 43.7667 70.5764 43.6543 69.9932C43.7094 70.279 43.7615 70.5541 43.8057 70.8145Z" fill="black"/>
<path d="M38.1055 19.2207C38.1026 19.0501 38.0992 18.8796 38.0967 18.709C38.0961 18.667 38.0953 18.625 38.0947 18.583C38.0978 18.7956 38.1019 19.0081 38.1055 19.2207Z" fill="black"/>
<path d="M36.5254 0.00195312L36.2578 0.984375C36.3414 0.671422 36.4301 0.343716 36.5254 0V0.00195312Z" fill="black"/>
<path d="M26.1348 186.269C26.1049 186.239 26.0744 186.209 26.0449 186.179C25.9945 186.127 25.9451 186.074 25.8955 186.021C25.9742 186.105 26.0541 186.187 26.1348 186.269Z" fill="black"/>
</svg>
